<svg width="120" height="47" xmlns="http://www.w3.org/2000/svg" fill="none">
 <defs>
  <clipPath id="clip0_614_631">
   <rect id="svg_1" fill="white" height="47" width="120"/>
  </clipPath>
 </defs>
 <g>
  <title>Layer 1</title>
  <g id="svg_2" clip-path="url(#clip0_614_631)">
   <path id="svg_3" fill="#ffffff" d="m11.1826,40.7246l-1.95838,0c-5.94607,0 -9.22422,-3.3449 -9.22422,-9.4343l0,-16.2527l2.0719,0c2.0719,0 3.13624,1.1864 3.13624,3.7165l0,12.1932c0,3.8595 0.87985,5.2746 4.68306,5.2746l1.2914,0c2.3983,0 4.3567,-0.5575 5.2791,-0.9291l0,1.7439c0,2.2442 -1.1069,3.6879 -5.2791,3.6879z"/>
   <path id="svg_4" fill="#ffffff" d="m26.709,40.8391l-0.9934,0c-4.7256,0 -7.9754,-2.6731 -7.9754,-6.361c0,-3.5736 2.5828,-6.2753 9.8912,-6.2753l1.7313,0l0,-0.2573c0,-2.8302 -1.3339,-3.6736 -4.2857,-3.6736c-3.5761,0 -5.5771,1.3723 -6.315,2.3014l-0.1703,0l0,-1.601c0,-2.2299 1.9868,-4.903 7.2375,-4.903c4.4276,0 8.4153,2.087 8.4153,8.9912l0,4.6028c-0.0142,4.2311 -3.1079,7.1758 -7.5355,7.1758zm2.6963,-9.0769l-1.7739,0c-3.7606,0 -4.8391,0.8862 -4.8391,2.5301c0,1.558 1.2488,2.4872 3.4342,2.4872c2.1429,0 3.1788,-1.0435 3.1788,-3.0876l0,-1.9297z"/>
   <path id="svg_5" fill="#ffffff" d="m45.6223,40.9534c-5.2366,0 -9.2668,-4.6028 -9.2668,-10.1062c0,-6.5754 3.1788,-10.8494 8.9687,-10.8494c1.9868,0 4.1722,1.4151 4.9386,3.159l0,-9.42l1.5184,0c2.3557,0 3.3917,1.3723 3.3917,3.3878l0,14.1229c0.0142,5.8321 -2.7247,9.7059 -9.5506,9.7059zm-0.2555,-16.7674c-2.5118,0 -4.1296,2.4587 -4.1296,5.6892c0,4.1597 2.1429,6.8756 4.9811,6.8756c2.7673,0 3.9877,-2.087 3.9877,-5.7178c0,-5.0316 -2.1854,-6.847 -4.8392,-6.847z"/>
   <path id="svg_6" fill="#ffffff" d="m61.1625,47c-1.8449,0 -3.4626,-1.2293 -3.4626,-3.0875l0,-0.9721l2.8098,-0.1858c1.8023,-0.1143 2.4409,-0.8577 3.5052,-3.6737c-2.6254,-3.9738 -6.386,-13.937 -7.053,-18.6541l2.6254,0c1.3623,0 2.6253,0.9291 2.8808,2.3442c0.6953,3.8595 2.1712,8.0335 3.9877,11.5642c1.6178,-3.7594 3.4342,-9.8059 3.8741,-13.8941l2.1429,0c1.5894,0 2.3273,0.7004 2.3273,2.3442c0,2.1156 -3.4626,11.264 -4.385,13.4225c-3.7181,8.7624 -5.6765,10.7922 -9.2526,10.7922z"/>
   <path id="svg_7" fill="#ffffff" d="m88.0557,18.1967c-0.7805,-0.2573 -1.6604,-0.4431 -2.8808,-0.4431c-2.0293,0 -3.5478,0.7004 -3.5478,3.3878l0,1.7868l5.6764,0l0,1.3723c0,1.7868 -1.8874,2.8302 -3.5477,2.8302l-2.1429,0l0,13.3796l-1.9867,0c-1.5894,0 -2.9944,-1.2293 -2.9944,-2.9732l0,-16.8102c0,-2.8303 1.9584,-7.3617 7.7484,-7.3617c2.1428,0 3.8032,1.1865 3.8032,3.1591l0,1.6724l-0.1277,0z"/>
   <path id="svg_8" fill="#ffffff" d="m96.5271,32.6198l-3.2498,0c0.369,2.5301 2.6537,4.1311 5.5771,4.1311c2.0716,0 4.4986,-0.4146 6.0876,-1.9012l0.185,0l0,1.5581c0,2.5587 -1.731,4.5313 -7.195,4.5313c-4.9385,0 -9.7777,-3.9452 -9.7777,-10.0775c0,-6.6898 4.0587,-10.8924 9.7351,-10.8924c4.1296,0 7.9756,2.9733 7.9756,7.7619c0,3.7022 -2.767,4.8887 -9.3379,4.8887zm0.9224,-8.4766c-2.3983,0 -4.0587,1.9726 -4.1722,4.274l-0.0426,0.6719l2.2138,0c4.6835,0 5.7615,-0.5146 5.7615,-1.9298c0,-2.0012 -1.4758,-3.0161 -3.7605,-3.0161z"/>
   <path id="svg_9" fill="#ffffff" d="m119.815,25.3011c-0.738,-0.3002 -1.59,-0.6004 -2.881,-0.6004c-2.214,0 -3.434,1.2293 -3.434,4.274l0,11.5213l-1.363,0c-2.214,0 -3.618,-1.1149 -3.618,-3.2019l0,-9.2199c0,-4.0167 2.1,-7.8476 7.336,-7.8476c3.066,0 4.13,1.7439 4.13,3.2734l0,1.7868l-0.17,0l0,0.0143z"/>
   <path id="svg_10" fill="#ffffff" d="m2.89499,1.94408l0,2.32998c0,0.98632 -0.24125,1.7868 -0.73794,2.44435c-0.49669,0.65754 -0.99338,0.97202 -1.53264,0.97202c-0.1703,0 -0.31221,-0.05718 -0.43993,-0.18583c-0.11352,-0.12865 -0.18448,-0.28589 -0.18448,-0.45742c0,-0.27159 0.11353,-0.47172 0.34059,-0.57178c0.42573,-0.21441 0.73793,-0.47171 0.92242,-0.7719c0.18448,-0.30018 0.28382,-0.77189 0.28382,-1.41514l0,-2.93035c0,-0.20013 0.07096,-0.35736 0.19868,-0.48601c0.12772,-0.12865 0.28382,-0.20012 0.48249,-0.20012l3.81741,0c0.19868,0 0.35478,0.05717 0.4825,0.20012c0.12772,0.14294 0.19867,0.28588 0.19867,0.48601l0,5.50334c0,0.20012 -0.07095,0.35736 -0.19867,0.48601c-0.14191,0.12865 -0.29801,0.18583 -0.4825,0.18583c-0.19867,0 -0.35478,-0.07147 -0.4825,-0.20012c-0.14191,-0.11436 -0.19867,-0.28589 -0.19867,-0.47172l0,-4.91727l-2.46925,0z"/>
   <path id="svg_11" fill="#ffffff" d="m10.0206,5.06017l3.1362,-4.0882c0.1703,-0.22871 0.3974,-0.34306 0.6812,-0.34306c0.1987,0 0.3548,0.05717 0.4825,0.20012c0.1277,0.14294 0.1987,0.28589 0.1987,0.48601l0,5.54623c0,0.20012 -0.0568,0.35736 -0.1845,0.48601c-0.1135,0.12864 -0.2838,0.18582 -0.4967,0.18582c-0.2128,0 -0.3831,-0.05718 -0.4967,-0.18582c-0.1135,-0.12865 -0.1703,-0.28589 -0.1703,-0.48601l0,-3.74514l-0.0567,0l-3.13626,4.0882c-0.17029,0.22871 -0.39735,0.32877 -0.68117,0.32877c-0.19868,0 -0.35478,-0.07147 -0.4825,-0.20012c-0.12772,-0.11435 -0.18449,-0.28589 -0.18449,-0.47171l0,-5.54623c0,-0.20012 0.05677,-0.35736 0.18449,-0.48601c0.12772,-0.12865 0.28382,-0.18583 0.49669,-0.18583c0.21286,0 0.38316,0.05718 0.49668,0.18583c0.11353,0.12865 0.18449,0.28589 0.18449,0.48601l0,3.74513l0.02837,0z"/>
   <path id="svg_12" fill="#ffffff" d="m18.7036,1.94408l0,2.32998c0,0.98632 -0.2413,1.7868 -0.738,2.44435c-0.4966,0.65754 -1.0075,0.97202 -1.5326,0.97202c-0.1703,0 -0.3122,-0.05718 -0.4399,-0.18583c-0.1277,-0.12865 -0.1845,-0.27159 -0.1845,-0.44313c0,-0.27159 0.1135,-0.47171 0.3406,-0.58607c0.4257,-0.21441 0.7379,-0.47171 0.9224,-0.7719c0.1845,-0.30018 0.2838,-0.77189 0.2838,-1.41514l0,-2.93035c0,-0.20013 0.071,-0.35736 0.1987,-0.48601c0.1277,-0.12865 0.2838,-0.20012 0.4825,-0.20012l3.8174,0c0.1987,0 0.3548,0.05717 0.4825,0.20012c0.1277,0.14294 0.1987,0.28588 0.1987,0.48601l0,5.50334c0,0.20012 -0.071,0.35736 -0.1987,0.48601c-0.1277,0.12865 -0.2838,0.20012 -0.4825,0.20012c-0.1987,0 -0.3548,-0.07147 -0.4825,-0.20012c-0.1277,-0.12865 -0.1987,-0.28589 -0.1987,-0.48601l0,-4.91727l-2.4692,0z"/>
   <path id="svg_13" fill="#ffffff" d="m25.8288,5.06017l3.1362,-4.0882c0.1703,-0.22871 0.3973,-0.34306 0.6812,-0.34306c0.1986,0 0.3547,0.05717 0.4825,0.20012c0.1277,0.14294 0.1986,0.28589 0.1986,0.48601l0,5.54623c0,0.20012 -0.0567,0.35736 -0.1845,0.48601c-0.1135,0.12864 -0.2838,0.18582 -0.4966,0.18582c-0.2129,0 -0.3832,-0.05718 -0.4967,-0.18582c-0.1136,-0.12865 -0.1845,-0.28589 -0.1845,-0.48601l0,-3.74514l-0.0426,0l-3.1362,4.0882c-0.1703,0.22871 -0.3974,0.34307 -0.6812,0.34307c-0.1987,0 -0.3548,-0.07148 -0.4825,-0.20012c-0.1277,-0.12865 -0.1987,-0.28589 -0.1987,-0.48601l0,-5.54623c0,-0.20012 0.0568,-0.35736 0.1845,-0.48601c0.1277,-0.12865 0.2838,-0.18583 0.4967,-0.18583c0.2129,0 0.3832,0.05718 0.4967,0.18583c0.1135,0.12865 0.1845,0.28589 0.1845,0.48601l0,3.74513l0.0426,0z"/>
   <path id="svg_14" fill="#ffffff" d="m36.953,0.68603c0.1987,0 0.3548,0.05718 0.4825,0.18583c0.1278,0.12865 0.1987,0.2716 0.1987,0.44313c0,0.17153 -0.0709,0.32877 -0.1987,0.44313c-0.1277,0.12865 -0.2838,0.18582 -0.4825,0.18582l-1.6461,0l0,4.91728c0,0.20012 -0.0568,0.35736 -0.1845,0.48601c-0.1277,0.12865 -0.2838,0.18583 -0.4967,0.18583c-0.2129,0 -0.3832,-0.05718 -0.4967,-0.18583c-0.1135,-0.12865 -0.1845,-0.28589 -0.1845,-0.48601l0,-4.91728l-1.6461,0c-0.1987,0 -0.3548,-0.05717 -0.4825,-0.18582c-0.1278,-0.12865 -0.1987,-0.2716 -0.1987,-0.44313c0,-0.17153 0.0568,-0.32877 0.1987,-0.44313c0.1277,-0.12865 0.2838,-0.18583 0.4825,-0.18583l4.6546,0z"/>
   <path id="svg_15" fill="#ffffff" d="m40.3164,1.94408l0,1.55809l2.5544,0c0.1703,0 0.3123,0.05717 0.4116,0.17153c0.1135,0.11435 0.1703,0.243 0.1703,0.41454c0,0.17153 -0.0568,0.31447 -0.1703,0.41453c-0.1135,0.11436 -0.2413,0.17154 -0.4116,0.17154l-2.5544,0l0,1.55809l3.5194,0c0.1703,0 0.3122,0.05717 0.44,0.18582c0.1277,0.12865 0.1845,0.2716 0.1845,0.44313c0,0.17153 -0.0568,0.31448 -0.1845,0.44313c-0.1278,0.12865 -0.2697,0.18582 -0.44,0.18582l-4.2005,0c-0.1987,0 -0.3548,-0.05717 -0.4825,-0.20012c-0.1277,-0.14294 -0.1987,-0.28588 -0.1987,-0.48601l0,-5.44616c0,-0.20013 0.071,-0.35736 0.1987,-0.48601c0.1277,-0.12865 0.2838,-0.20012 0.4825,-0.20012l4.1012,0c0.1703,0 0.3122,0.05717 0.4399,0.18582c0.1277,0.12865 0.1845,0.2716 0.1845,0.44313c0,0.17153 -0.0568,0.31448 -0.1845,0.44313c-0.1277,0.12864 -0.2696,0.18582 -0.4399,0.18582l-3.4201,0l0,0.0143z"/>
   <path id="svg_16" fill="#ffffff" d="m48.2915,1.94408l0,2.32998c0,0.98632 -0.2413,1.7868 -0.738,2.44435c-0.4967,0.65754 -1.0075,0.97202 -1.5326,0.97202c-0.1703,0 -0.3122,-0.05718 -0.4399,-0.18583c-0.1278,-0.12865 -0.1845,-0.27159 -0.1845,-0.44313c0,-0.27159 0.1135,-0.47171 0.3406,-0.58607c0.4257,-0.21441 0.7379,-0.47171 0.9224,-0.7719c0.1845,-0.30018 0.2838,-0.77189 0.2838,-1.41514l0,-2.93035c0,-0.20013 0.071,-0.35736 0.1987,-0.48601c0.1277,-0.12865 0.2838,-0.20012 0.4825,-0.20012l3.8174,0c0.1987,0 0.3548,0.05717 0.4825,0.20012c0.1277,0.14294 0.1987,0.28588 0.1987,0.48601l0,5.50334c0,0.20012 -0.071,0.35736 -0.1987,0.48601c-0.1277,0.12865 -0.2838,0.20012 -0.4825,0.20012c-0.1987,0 -0.3548,-0.07147 -0.4825,-0.20012c-0.1277,-0.12865 -0.1987,-0.28589 -0.1987,-0.48601l0,-4.91727l-2.4692,0z"/>
   <path id="svg_17" fill="#ffffff" d="m54.6929,7.49022c-0.1987,0 -0.3548,-0.05718 -0.4825,-0.20012c-0.1277,-0.14295 -0.1987,-0.28589 -0.1987,-0.48601l0,-5.48905c0,-0.20012 0.071,-0.35736 0.1987,-0.48601c0.1277,-0.12865 0.2838,-0.20012 0.4825,-0.20012c0.1987,0 0.3548,0.05717 0.4825,0.20012c0.1277,0.14294 0.1987,0.28589 0.1987,0.48601l0,1.50091l1.5468,0c0.7947,0 1.4475,0.22871 1.9584,0.68613c0.4967,0.45742 0.7521,1.00061 0.7521,1.65815c0,0.64325 -0.2554,1.20073 -0.7521,1.65815c-0.4967,0.45742 -1.1495,0.68614 -1.9584,0.68614l-2.228,0l0,-0.0143zm3.193,-3.11618c-0.2271,-0.20012 -0.5393,-0.28589 -0.965,-0.28589l-1.5468,0l0,2.14416l1.5468,0c0.4257,0 0.7521,-0.10006 0.965,-0.28589c0.227,-0.20012 0.3406,-0.45742 0.3406,-0.77189c-0.0142,-0.34307 -0.1136,-0.60037 -0.3406,-0.80049z"/>
   <path id="svg_18" fill="#ffffff" d="m68.4868,1.94408l0,2.32998c0,0.98632 -0.2413,1.7868 -0.738,2.44435c-0.4966,0.65754 -1.0075,0.97202 -1.5326,0.97202c-0.1703,0 -0.3122,-0.05718 -0.4399,-0.18583c-0.1277,-0.12865 -0.1845,-0.27159 -0.1845,-0.44313c0,-0.27159 0.1135,-0.47171 0.3406,-0.58607c0.4257,-0.21441 0.7379,-0.47171 0.9224,-0.7719c0.1845,-0.30018 0.2838,-0.77189 0.2838,-1.41514l0,-2.93035c0,-0.20013 0.071,-0.35736 0.1987,-0.48601c0.1277,-0.12865 0.2838,-0.20012 0.4825,-0.20012l3.8174,0c0.1987,0 0.3548,0.05717 0.4825,0.20012c0.1277,0.14294 0.1987,0.28588 0.1987,0.48601l0,5.50334c0,0.20012 -0.071,0.35736 -0.1987,0.48601c-0.1277,0.12865 -0.2838,0.20012 -0.4825,0.20012c-0.1987,0 -0.3548,-0.07147 -0.4825,-0.20012c-0.1419,-0.12865 -0.1987,-0.30018 -0.1987,-0.48601l0,-4.91727l-2.4692,0z"/>
   <path id="svg_19" fill="#ffffff" d="m75.5698,1.94408l0,1.55809l2.5544,0c0.1703,0 0.3122,0.05717 0.4116,0.17153c0.1135,0.11435 0.1703,0.243 0.1703,0.41454c0,0.17153 -0.0568,0.31447 -0.1703,0.41453c-0.1136,0.11436 -0.2413,0.17154 -0.4116,0.17154l-2.5544,0l0,1.55809l3.5194,0c0.1703,0 0.3122,0.05717 0.4399,0.18582c0.1278,0.12865 0.1845,0.2716 0.1845,0.44313c0,0.17153 -0.0567,0.31448 -0.1845,0.44313c-0.1277,0.12865 -0.2696,0.18582 -0.4399,0.18582l-4.2005,0c-0.1987,0 -0.3548,-0.05717 -0.4825,-0.20012c-0.1278,-0.14294 -0.1845,-0.28588 -0.1845,-0.48601l0,-5.44616c0,-0.20013 0.0567,-0.35736 0.1987,-0.48601c0.1419,-0.12865 0.2838,-0.20012 0.4825,-0.20012l4.1012,0c0.1703,0 0.3122,0.05717 0.4399,0.18582c0.1277,0.12865 0.1845,0.2716 0.1845,0.44313c0,0.17153 -0.0568,0.31448 -0.1845,0.44313c-0.1277,0.12864 -0.2696,0.18582 -0.4399,0.18582l-3.4343,0l0,0.0143z"/>
   <path id="svg_20" fill="#ffffff" d="m81.9961,7.4903l0,0.87196c0,0.18583 -0.0709,0.34307 -0.1986,0.48601c-0.1278,0.12865 -0.2839,0.20013 -0.4825,0.20013c-0.1987,0 -0.3548,-0.05718 -0.4825,-0.20013c-0.1278,-0.14294 -0.1987,-0.28588 -0.1987,-0.48601l0,-1.45803c0,-0.20012 0.0709,-0.35736 0.1987,-0.48601c0.1277,-0.12864 0.2838,-0.20012 0.4825,-0.20012l0.0993,0c0.0142,-0.01429 0.0426,-0.02859 0.0851,-0.07147c0.0426,-0.02859 0.0994,-0.10006 0.1845,-0.22871c0.0852,-0.12865 0.1703,-0.243 0.2413,-0.38595c0.0709,-0.12865 0.1277,-0.31448 0.1845,-0.54319c0.0567,-0.22871 0.0851,-0.47171 0.0851,-0.72901l0,-2.90176c0,-0.20013 0.071,-0.35736 0.1987,-0.48601c0.1277,-0.12865 0.2838,-0.20012 0.4825,-0.20012l3.718,0c0.1987,0 0.3548,0.05717 0.4825,0.20012c0.1278,0.12865 0.1987,0.28588 0.1987,0.48601l0,4.86009l0.2838,0c0.1987,0 0.3548,0.07148 0.4825,0.20012c0.1278,0.12865 0.1987,0.28589 0.1987,0.48601l0,1.45803c0,0.20013 -0.0709,0.35736 -0.1987,0.48601c-0.1277,0.12865 -0.2838,0.20013 -0.4825,0.20013c-0.1986,0 -0.3547,-0.05718 -0.4825,-0.20013c-0.1277,-0.12865 -0.1986,-0.28588 -0.1986,-0.48601l0,-0.87196l-4.8818,0zm1.5469,-5.54622l0,2.32998c0,0.2573 -0.0284,0.48601 -0.071,0.71472c-0.0568,0.22871 -0.1135,0.40025 -0.1845,0.54319c-0.0709,0.14295 -0.1419,0.2573 -0.2128,0.35736c-0.071,0.10006 -0.1278,0.17153 -0.1845,0.21442l-0.071,0.07147l0,0.04288l3.0937,0l0,-4.27402l-2.3699,0z"/>
   <path id="svg_21" fill="#ffffff" d="m91.0924,5.06017l3.1363,-4.0882c0.1703,-0.22871 0.3973,-0.34306 0.6811,-0.34306c0.1987,0 0.3548,0.05717 0.4825,0.20012c0.1278,0.14294 0.1987,0.28589 0.1987,0.48601l0,5.54623c0,0.20012 -0.0567,0.35736 -0.1845,0.48601c-0.1135,0.12864 -0.2838,0.18582 -0.4967,0.18582c-0.2128,0 -0.3831,-0.05718 -0.4967,-0.18582c-0.1135,-0.12865 -0.1844,-0.28589 -0.1844,-0.48601l0,-3.74514l-0.0426,0l-3.1362,4.0882c-0.1703,0.22871 -0.3974,0.34307 -0.6812,0.34307c-0.1987,0 -0.3548,-0.07148 -0.4825,-0.20012c-0.1277,-0.12865 -0.1987,-0.28589 -0.1987,-0.48601l0,-5.54623c0,-0.20012 0.0568,-0.35736 0.1845,-0.48601c0.1277,-0.12865 0.2838,-0.18583 0.4967,-0.18583c0.2128,0 0.3831,0.05718 0.4967,0.18583c0.1135,0.12865 0.1845,0.28589 0.1845,0.48601l0,3.74513l0.0425,0z"/>
   <path id="svg_22" fill="#ffffff" d="m101.934,0.20012c0.128,0.12865 0.199,0.28589 0.199,0.48601l0,0.68613l0.043,0c0.326,-0.20012 0.723,-0.28589 1.206,-0.28589c0.681,0 1.249,0.24301 1.717,0.74331c0.468,0.48601 0.695,1.12926 0.695,1.88686l0,0.7719c0,0.7719 -0.227,1.40085 -0.695,1.88686c-0.468,0.48601 -1.036,0.74331 -1.717,0.74331c-0.213,0 -0.426,-0.02859 -0.625,-0.07147c-0.198,-0.04288 -0.354,-0.10006 -0.454,-0.14294l-0.127,-0.07148l-0.043,0l0,0.68614c0,0.20012 -0.057,0.35736 -0.184,0.48601c-0.128,0.12865 -0.284,0.18582 -0.497,0.18582c-0.213,0 -0.383,-0.05717 -0.497,-0.18582c-0.113,-0.12865 -0.184,-0.28589 -0.184,-0.48601l0,-0.71472l-0.043,0c-0.326,0.20012 -0.724,0.28588 -1.2061,0.28588c-0.6812,0 -1.2489,-0.243 -1.7172,-0.74331c-0.4683,-0.486 -0.6953,-1.12925 -0.6953,-1.88686l0,-0.7576c0,-0.7719 0.227,-1.40085 0.6953,-1.88686c0.4683,-0.48601 1.036,-0.74331 1.7172,-0.74331c0.2128,0 0.4257,0.02859 0.6241,0.07147c0.199,0.04289 0.355,0.10006 0.454,0.14295l0.128,0.07147l0.043,0l0,-0.67184c0,-0.20012 0.056,-0.35736 0.198,-0.48601c0.142,-0.12865 0.298,-0.20012 0.497,-0.20012c0.185,0 0.341,0.07147 0.468,0.20012zm-3.4623,4.27403c0,0.44312 0.1135,0.7719 0.3548,1.0149c0.227,0.22871 0.5818,0.34307 1.0359,0.34307c0.1566,0 0.3126,-0.02859 0.4686,-0.07148c0.156,-0.04288 0.269,-0.10006 0.34,-0.14294l0.114,-0.07147l0,-2.91606c-0.256,-0.20012 -0.568,-0.28589 -0.9226,-0.28589c-0.4541,0 -0.8089,0.11436 -1.0501,0.34307c-0.2412,0.22871 -0.3548,0.57177 -0.3548,1.0149l0,0.7719l0.0142,0zm4.1153,-2.07269c-0.156,0.04288 -0.27,0.10006 -0.355,0.14294l-0.099,0.07148l0,2.91605c0.255,0.20013 0.568,0.28589 0.922,0.28589c0.455,0 0.809,-0.11435 1.036,-0.35736c0.242,-0.22871 0.355,-0.57177 0.355,-1.0149l0,-0.74331c0,-0.44313 -0.113,-0.7719 -0.355,-1.0149c-0.241,-0.22871 -0.581,-0.34307 -1.036,-0.34307c-0.156,-0.01429 -0.312,0.0143 -0.468,0.05718z"/>
   <path id="svg_23" fill="#ffffff" d="m108.692,1.94408l0,1.55809l2.554,0c0.171,0 0.313,0.05717 0.412,0.17153c0.113,0.11435 0.17,0.243 0.17,0.41454c0,0.17153 -0.057,0.31447 -0.17,0.41453c-0.114,0.11436 -0.241,0.17154 -0.412,0.17154l-2.554,0l0,1.55809l3.519,0c0.171,0 0.313,0.05717 0.44,0.18582c0.128,0.12865 0.185,0.2716 0.185,0.44313c0,0.17153 -0.057,0.31448 -0.185,0.44313c-0.113,0.12865 -0.255,0.18582 -0.426,0.18582l-4.2,0c-0.199,0 -0.355,-0.05717 -0.483,-0.20012c-0.127,-0.14294 -0.198,-0.28588 -0.198,-0.48601l0,-5.44616c0,-0.20013 0.057,-0.35736 0.198,-0.48601c0.142,-0.12865 0.284,-0.20012 0.483,-0.20012l4.101,0c0.17,0 0.312,0.05717 0.44,0.18582c0.128,0.12865 0.185,0.2716 0.185,0.44313c0,0.17153 -0.057,0.31448 -0.185,0.44313c-0.128,0.12864 -0.27,0.18582 -0.44,0.18582l-3.434,0l0,0.0143z"/>
   <path id="svg_24" fill="#ffffff" d="m117.134,0.68617c0.794,0 1.447,0.22871 1.958,0.68613c0.497,0.45742 0.752,1.00061 0.752,1.65815c0,0.64325 -0.255,1.20073 -0.752,1.65815c-0.497,0.45742 -1.149,0.68613 -1.958,0.68613l-1.547,0l0,1.48662c0,0.20012 -0.057,0.35736 -0.199,0.48601c-0.127,0.12865 -0.284,0.20012 -0.482,0.20012c-0.199,0 -0.355,-0.07147 -0.483,-0.20012c-0.127,-0.12865 -0.198,-0.28589 -0.198,-0.48601l0,-5.50334c0,-0.20013 0.071,-0.35736 0.198,-0.48601c0.128,-0.12865 0.284,-0.20012 0.483,-0.20012l2.228,0l0,0.01429zm0.965,1.55809c-0.227,-0.20012 -0.539,-0.28589 -0.965,-0.28589l-1.547,0l0,2.14416l1.547,0c0.426,0 0.752,-0.10006 0.965,-0.28589c0.227,-0.20012 0.34,-0.45742 0.34,-0.77189c0,-0.35736 -0.113,-0.61466 -0.34,-0.80049z"/>
  </g>
 </g>
</svg>