<svg width="123.82" height="116" xmlns="http://www.w3.org/2000/svg">

 <g>
  <title>Layer 1</title>
  <g data-name="Layer 2" id="Layer_2">
   <g data-name="Layer 1" id="Layer_1-2">
    <path id="svg_1" fill="#ffffff" d="m10.56,77.74l-6,0l0,-13.22l5.75,0a4.64,4.64 0 0 1 2.91,0.87a2.86,2.86 0 0 1 1.14,2.48a2.92,2.92 0 0 1 -2,2.82l0,0a3.12,3.12 0 0 1 2.5,3.39c0,2.65 -2.57,3.63 -4.29,3.63m-1.29,-10.71l-1.28,0l0,2.6l1.2,0c1.1,0 1.65,-0.44 1.65,-1.33c0,-0.73 -0.58,-1.23 -1.56,-1.23m0.38,5.1l-1.67,0l0,3.06l1.5,0c1.07,0 1.76,-0.59 1.76,-1.48a1.5,1.5 0 0 0 -1.59,-1.58" class="cls-1"/>
    <polygon id="svg_2" fill="#ffffff" points="19.81 77.74 16.47 77.74 16.47 64.52 19.9 64.52 19.9 69.71 19.83 72.09 19.88 72.1 21.1 69.84 24.1 64.52 27.45 64.52 27.45 77.74 24.06 77.74 24.06 72.03 24.15 70.03 24.11 70.03 23.1 71.94 19.81 77.74" class="cls-1"/>
    <path id="svg_3" fill="#ffffff" d="m32.75,73.65l0,4.09l-3.43,0l0,-13.22l4.68,0a5.79,5.79 0 0 1 3.78,1.18a4.53,4.53 0 0 1 -0.09,6.74a6.56,6.56 0 0 1 -4.16,1.21l-0.78,0zm0,-2.54l1,0a1.83,1.83 0 0 0 2,-2a1.78,1.78 0 0 0 -2,-2l-0.91,0l-0.09,4z" class="cls-1"/>
    <path id="svg_4" fill="#ffffff" d="m48.46,76.14l0,1.6l-3.26,0l0,-1.6c-3.54,-0.39 -5.34,-2.53 -5.34,-5.42s1.75,-5 5.34,-5.39l0,-0.83l3.28,0l0,0.83a6,6 0 0 1 4,1.75a5.09,5.09 0 0 1 1.37,3.64c0,3 -1.75,5 -5.34,5.42m-3.28,-8.58a1.84,1.84 0 0 0 -1.16,0.7a3.65,3.65 0 0 0 -0.69,2.46c0,1.92 0.62,3 1.85,3.17l0,-6.33zm3.28,6.33c1.23,-0.22 1.85,-1.27 1.85,-3.17s-0.62,-2.94 -1.85,-3.14l0,6.31z" class="cls-1"/>
    <polygon id="svg_5" fill="#ffffff" points="64.54 77.74 55.48 77.74 55.48 64.52 64.41 64.52 63.74 67.06 58.92 67.06 58.92 69.6 63.57 69.6 63.57 72.14 58.92 72.14 58.92 75.2 64.54 75.2 64.54 77.74" class="cls-1"/>
    <path id="svg_6" fill="#ffffff" d="m69.36,73.65l0,4.09l-3.43,0l0,-13.22l4.72,0a5.79,5.79 0 0 1 3.78,1.18a4.53,4.53 0 0 1 -0.09,6.74a6.56,6.56 0 0 1 -4.16,1.21l-0.82,0zm0,-2.54l1,0a1.83,1.83 0 0 0 2,-2a1.78,1.78 0 0 0 -2,-2l-0.91,0l-0.09,4z" class="cls-1"/>
    <polygon id="svg_7" fill="#ffffff" points="86.34 67.06 83.35 67.06 83.35 77.74 79.9 77.74 79.9 67.06 76.58 67.06 76.58 64.52 87.07 64.52 86.34 67.06" class="cls-1"/>
    <polygon id="svg_8" fill="#ffffff" points="91.51 77.74 88.18 77.74 88.18 64.52 91.6 64.52 91.6 69.71 91.53 72.09 91.58 72.1 92.8 69.84 95.8 64.52 99.15 64.52 99.15 77.74 95.76 77.74 95.76 72.03 95.85 70.03 95.82 70.03 94.81 71.94 91.51 77.74" class="cls-1"/>
    <path id="svg_9" fill="#ffffff" d="m111.7,77.74l-3.45,0l0,-10.68l-2.1,0l-0.24,3.2l-0.13,1.38c0,0.35 -0.09,0.76 -0.17,1.26a8.44,8.44 0 0 1 -0.21,1.17a7.45,7.45 0 0 1 -0.61,1.92a4,4 0 0 1 -1.07,1.34a4.85,4.85 0 0 1 -2.87,0.7l-0.67,-2.54a1.82,1.82 0 0 0 1.82,-0.92a12.37,12.37 0 0 0 0.63,-3.66l0.51,-6.39l8.56,0l0,13.22z" class="cls-1"/>
    <path id="svg_10" fill="#ffffff" d="m24.27,39.32l-3.36,-13.45l-5.91,-21.73a5.6,5.6 0 0 0 -5.37,-4.14l-4,0a5.61,5.61 0 0 0 -5.39,7.21l13.39,44.56a5.6,5.6 0 0 0 5.36,4l10.27,0a5.61,5.61 0 0 0 5.38,-4l12.94,-44.6a5.61,5.61 0 0 0 -5.38,-7.17l-3.74,0a5.6,5.6 0 0 0 -5.46,4.18l-5.67,21.7l-3.06,13.44zm36.57,16.44a7.87,7.87 0 0 0 7.87,-7.87l0,-40a7.88,7.88 0 1 0 -15.71,-0.01l0,40a7.87,7.87 0 0 0 7.84,7.88zm32.46,-19.76a2.1,2.1 0 0 1 1.88,1.18l8.35,17.05a2.7,2.7 0 0 0 2.47,1.53l10.65,0a2.72,2.72 0 0 0 2.41,-4l-9.29,-17.76a1.05,1.05 0 0 1 0.41,-1.41a15.52,15.52 0 0 0 8.61,-14.53c0,-13.27 -10.71,-18.06 -22.29,-18.06l-18.28,0a2.71,2.71 0 0 0 -2.71,2.71l0,50.29a2.71,2.71 0 0 0 2.71,2.72l10.39,0a2.71,2.71 0 0 0 2.71,-2.72l-0.12,-15.9a1.08,1.08 0 0 1 1.07,-1.1l1.03,0zm-2.12,-13.1l0,-9.78a1.08,1.08 0 0 1 1.08,-1.12l2.86,0a10.79,10.79 0 0 1 5,0.92c1.52,0.65 2.5,2.15 2.5,5c0,4.19 -2.8,6 -7.23,6l-3.13,0a1.09,1.09 0 0 1 -1.08,-1.02z" class="cls-1"/>
    <path id="svg_11" fill="#ffffff" d="m21,93.48a1.38,1.38 0 0 0 1.34,-1l0.86,-3.48a1.38,1.38 0 0 0 -1.33,-1.75l-16,0a1.39,1.39 0 0 0 -1.38,1.39l0,25.93a1.39,1.39 0 0 0 1.33,1.43l5.24,0a1.38,1.38 0 0 0 1.38,-1.39l0,-9.39a0.56,0.56 0 0 1 0.56,-0.56l7.57,0a1.38,1.38 0 0 0 1.43,-1.38l0,-3.42a1.37,1.37 0 0 0 -1.38,-1.38l-7.62,0a0.57,0.57 0 0 1 -0.56,-0.56l0,-3.92a0.56,0.56 0 0 1 0.56,-0.56l8,0.04zm22.08,22.52a1.59,1.59 0 0 0 1.58,-1.59l0,-3a1.58,1.58 0 0 0 -1.58,-1.59l-9.29,0a0.76,0.76 0 0 1 -0.77,-0.77l0,-4.05a0.77,0.77 0 0 1 0.77,-0.77l7.27,0a1.59,1.59 0 0 0 1.59,-1.59l0,-3a1.59,1.59 0 0 0 -1.59,-1.64l-7.27,0a0.76,0.76 0 0 1 -0.77,-0.77l0,-3a0.76,0.76 0 0 1 0.77,-0.76l7.89,0a1.58,1.58 0 0 0 1.53,-1.19l0.78,-3a1.58,1.58 0 0 0 -1.53,-2l-15.82,0a1.6,1.6 0 0 0 -1.59,1.6l0,25.52a1.59,1.59 0 0 0 1.59,1.6l16.44,0zm13.06,-10.17a0.37,0.37 0 0 1 0.34,0.21l4.17,8.65a2.32,2.32 0 0 0 2.08,1.31l3.27,0a2.32,2.32 0 0 0 2.06,-3.38l-3.61,-7a1.53,1.53 0 0 1 0.54,-2a7.93,7.93 0 0 0 3.64,-7c0,-6.83 -5.41,-9.3 -11.28,-9.3l-8.35,0a2.3,2.3 0 0 0 -2.31,2.31l0,24.07a2.31,2.31 0 0 0 2.31,2.3l3.36,0a2.33,2.33 0 0 0 2.32,-2.34l-0.06,-7.46a0.37,0.37 0 0 1 0.38,-0.37l1.14,0zm-1.5,-7.69l0,-3.14a1.5,1.5 0 0 1 1.5,-1.49l0.5,0a5.33,5.33 0 0 1 2.51,0.47c0.77,0.34 1.27,1.12 1.27,2.57c0,2.18 -1.42,3.12 -3.66,3.12l-0.62,0a1.5,1.5 0 0 1 -1.5,-1.53zm34.57,-4.66a1.24,1.24 0 0 0 1.19,-0.91l1,-3.71a1.23,1.23 0 0 0 -1.19,-1.57l-19.78,0a1.23,1.23 0 0 0 -1.24,1.24l0,3.71a1.23,1.23 0 0 0 1.24,1.24l5.23,0a0.41,0.41 0 0 1 0.41,0.41l0,20.87a1.23,1.23 0 0 0 1.23,1.24l5.5,0a1.24,1.24 0 0 0 1.2,-1.24l0,-20.87a0.41,0.41 0 0 1 0.42,-0.41l4.79,0zm8.39,22.52a4,4 0 0 0 4,-4l0,-20.72a4,4 0 1 0 -8,0l0,20.72a4,4 0 0 0 4,4zm15.4,-6.18l0,-19.44a3.1,3.1 0 0 0 -3.1,-3.09l-1.78,0a3.09,3.09 0 0 0 -3.12,3.09l0,21a4.61,4.61 0 0 0 4.61,4.62l11.09,0a3.09,3.09 0 1 0 0,-6.18l-7.7,0z" class="cls-1"/>
   </g>
  </g>
 </g>
</svg>