<svg width="332.52" height="50.3" xmlns="http://www.w3.org/2000/svg">

 <title>glv-logo</title>
 <g>
  <title>Layer 1</title>
  <path id="svg_1" fill="#ffffff" d="m194.66,0a4.5,4.5 0 0 0 -4.54,4.45l0,41.36a4.51,4.51 0 0 0 4.54,4.46l23.45,0a11.19,11.19 0 0 0 9.09,-4.88a16.2,16.2 0 0 0 3.16,-9.91a16.72,16.72 0 0 0 -2.8,-9.4l-0.64,-0.94l0.64,-0.94a16.78,16.78 0 0 0 2.8,-9.41a16.19,16.19 0 0 0 -3.2,-10a11.14,11.14 0 0 0 -9,-4.83l-23.5,0.04zm4.46,9l19,0a2.15,2.15 0 0 1 1.88,1.14a7.32,7.32 0 0 1 1.45,4.65a7.05,7.05 0 0 1 -1.31,4.46a2.52,2.52 0 0 1 -2,1.42l-7.3,0a4.79,4.79 0 0 0 -5,4.5a4.78,4.78 0 0 0 5,4.48l7.79,0l0.36,0.18a2.5,2.5 0 0 1 1,1a7.21,7.21 0 0 1 1.45,4.66a7.08,7.08 0 0 1 -1.31,4.45a2.41,2.41 0 0 1 -2,1.36l-19,0l-0.01,-32.3z" class="a"/>
  <path id="svg_2" fill="#ffffff" d="m4.47,0a4.49,4.49 0 0 0 -4.47,4.48l0,41.36a4.49,4.49 0 0 0 9,0l0,-36.91l26.8,0a4.45,4.45 0 1 0 0,-8.89l-31.33,-0.04z" class="a"/>
  <path id="svg_3" fill="#ffffff" d="m111.46,0c-5.61,0 -10.81,2.78 -14.69,7.83a28.77,28.77 0 0 0 -5.47,17.3l0,20.71a4.5,4.5 0 0 0 9,0l0,-20.67a19.5,19.5 0 0 1 3.63,-11.89c2,-2.71 4.8,-4.27 7.54,-4.27l11.17,0l0,36.83a4.45,4.45 0 0 0 8.9,0l0,-41.36a4.44,4.44 0 0 0 -4.46,-4.48l-15.62,0z" class="a"/>
  <path id="svg_4" fill="#ffffff" d="m62.31,0c-5.6,0 -10.82,2.78 -14.67,7.83a28.65,28.65 0 0 0 -5.48,17.3l0,20.71a4.49,4.49 0 0 0 4.53,4.45a4.44,4.44 0 0 0 4.44,-4.45l0,-12.18l22.35,0l0,12.18a4.46,4.46 0 0 0 8.91,0l0,-41.36a4.46,4.46 0 0 0 -4.47,-4.48l-15.61,0zm-11.18,25.17a19.5,19.5 0 0 1 3.63,-11.89c2.06,-2.71 4.81,-4.28 7.55,-4.28l11.17,0l0,16.7l-22.35,0l0,-0.53z" class="a"/>
  <path id="svg_5" fill="#ffffff" d="m160.08,0c-5.61,0 -10.82,2.78 -14.68,7.83a28.84,28.84 0 0 0 -5.48,17.3l0,20.71a4.5,4.5 0 0 0 9,0l0,-12.18l22.32,0l0,12.18a4.46,4.46 0 1 0 8.92,0l0,-41.36a4.45,4.45 0 0 0 -4.47,-4.48l-15.61,0zm-11.16,25.17a19.37,19.37 0 0 1 3.63,-11.89a9.72,9.72 0 0 1 7.53,-4.28l11.16,0l0,16.7l-22.32,0l0,-0.53z" class="a"/>
  <path id="svg_6" fill="#ffffff" d="m289,0a4.5,4.5 0 1 0 0,9l11.17,0l0,36.81a4.46,4.46 0 1 0 8.91,0l0,-36.81l11.18,0a4.52,4.52 0 0 0 4.45,-4.54a4.47,4.47 0 0 0 -4.45,-4.46l-31.26,0z" class="a"/>
  <path id="svg_7" fill="#ffffff" d="m270.28,4.48l0,9.67l-22.28,22.27l0,-31.94a4.5,4.5 0 0 0 -4.53,-4.48a4.44,4.44 0 0 0 -4.47,4.48l0,41.36a4.46,4.46 0 0 0 7.37,3.37l0,0l0.23,-0.23l0.09,-0.08l23.59,-23.5l0,20.44a4.5,4.5 0 0 0 9,0l0,-41.36a4.49,4.49 0 0 0 -4.54,-4.48a4.45,4.45 0 0 0 -4.46,4.44" class="a"/>
  <path id="svg_8" fill="#ffffff" d="m316.9,42.49a7.81,7.81 0 1 0 7.81,-7.8a7.77,7.77 0 0 0 -7.81,7.8m1.47,0a6.34,6.34 0 1 1 6.34,6.62a6.44,6.44 0 0 1 -6.34,-6.62m3.48,-4l0,7.8l1.44,0l0,-3.19l1.18,0c1.67,0 1.7,0.73 1.73,1.45c0,1.28 0,1.46 0.29,1.78l1.51,0c-0.33,-0.43 -0.27,-0.65 -0.33,-1.84c0,-0.79 -0.11,-1.69 -1.12,-1.88l0,0a1.79,1.79 0 0 0 1.33,-1.78c0,-2 -1.74,-2.25 -2.58,-2.25l-3.45,-0.09zm1.44,1.07l1.53,0c0.93,0 1.58,0.24 1.58,1.18c0,0.55 -0.23,1.25 -1.42,1.25l-1.69,0l0,-2.43z" class="a"/>
 </g>
</svg>