<svg width="143" height="116.00000000000001" xmlns="http://www.w3.org/2000/svg">
 <g>
  <title>Layer 1</title>
  <g id="Layer_2" data-name="Layer 2">
   <g id="Layer_1-2" data-name="Layer 1">
    <path class="cls-1" d="m2.43333,3.75a3.22,3.22 0 0 1 3.4,-3.48a3.22,3.22 0 0 1 3.4,3.48l0,9.48l14.24,0l0,-9.48a3.22,3.22 0 0 1 3.4,-3.48a3.23,3.23 0 0 1 3.46,3.48l0,25.39a3.23,3.23 0 0 1 -3.41,3.49a3.23,3.23 0 0 1 -3.4,-3.49l0,-9.74l-14.29,0l0,9.74a3.23,3.23 0 0 1 -3.4,3.49a3.23,3.23 0 0 1 -3.4,-3.49l0,-25.39z" fill="#ffffff" id="svg_1"/>
    <path class="cls-1" d="m43.65333,3.71a5.32,5.32 0 0 1 4.86,-3.71a5.11,5.11 0 0 1 4.82,3.71l8.92,24.29a5.2,5.2 0 0 1 0.36,1.66a3,3 0 0 1 -3.13,3a3.18,3.18 0 0 1 -3.31,-2.33l-1.36,-4.2l-12.61,0l-1.36,4.16a3.15,3.15 0 0 1 -3.27,2.37a3.23,3.23 0 0 1 -3.35,-3.13a3.82,3.82 0 0 1 0.32,-1.53l9.11,-24.29zm0.5,16.22l8.62,0l-4.22,-12.93l-0.09,0l-4.31,12.93z" fill="#ffffff" id="svg_2"/>
    <path class="cls-1" d="m66.55333,4a3.24,3.24 0 0 1 3.54,-3.46l8,0c6.69,0 11.64,4.29 11.64,10.68s-5.13,10.59 -11.34,10.59l-5.06,0l0,7.33a3.41,3.41 0 1 1 -6.81,0l0.03,-25.14zm6.78,11.91l4.62,0a4.5,4.5 0 0 0 4.67,-4.74a4.49,4.49 0 0 0 -4.67,-4.73l-4.62,0l0,9.47z" fill="#ffffff" id="svg_3"/>
    <path class="cls-1" d="m93.58333,4a3.24,3.24 0 0 1 3.54,-3.46l8,0c6.66,0 11.61,4.29 11.61,10.68s-5.13,10.59 -11.34,10.59l-5,0l0,7.33a3.4,3.4 0 1 1 -6.8,0l-0.01,-25.14zm6.8,11.89l4.63,0a4.5,4.5 0 0 0 4.67,-4.74a4.49,4.49 0 0 0 -4.67,-4.73l-4.63,0l0,9.47z" fill="#ffffff" id="svg_4"/>
    <path class="cls-1" d="m127.33333,17.43l-8.58,-11.89a3.5,3.5 0 0 1 -0.63,-2a3.2,3.2 0 0 1 3.26,-3.27a3.35,3.35 0 0 1 2.81,1.34l6.53,9.39l6.54,-9.34a3.34,3.34 0 0 1 2.81,-1.39a3.2,3.2 0 0 1 3.26,3.26a3.5,3.5 0 0 1 -0.63,2l-8.57,11.9l0,11.93a3.41,3.41 0 0 1 -6.81,0l0.01,-11.93z" fill="#ffffff" id="svg_5"/>
    <path class="cls-1" d="m22.33333,69.56c4.67,0 13.76,1.52 13.76,7.07a4,4 0 0 1 -4,4.23c-2.62,0 -4.42,-2.21 -9.79,-2.21c-7.94,0 -12,6.62 -12,14.32c0,7.51 4.17,13.94 12,13.94c5.37,0 7.55,-2.65 10.17,-2.65c2.88,0 4.23,2.84 4.23,4.29c0,6.06 -9.67,7.45 -14.4,7.45c-12.97,0 -21.97,-10.16 -21.97,-23.22s9,-23.22 22,-23.22z" fill="#ffffff" id="svg_6"/>
    <path class="cls-1" d="m43.79333,74.86a4.56,4.56 0 0 1 4.8,-4.92a4.56,4.56 0 0 1 4.8,4.92l0,31.68l11.39,0a4.31,4.31 0 0 1 4.61,4.54a4.45,4.45 0 0 1 -4.61,4.16l-16,0c-3.14,0 -5,-2 -5,-5.17l0.01,-35.21z" fill="#ffffff" id="svg_7"/>
    <path class="cls-1" d="m73.61333,74.86a4.8,4.8 0 1 1 9.6,0l0,35.84a4.8,4.8 0 1 1 -9.6,0l0,-35.84z" fill="#ffffff" id="svg_8"/>
    <path class="cls-1" d="m96.20333,74.8a6.42,6.42 0 0 1 6.28,-4.86a6.83,6.83 0 0 1 6.4,4.54l7.55,25l0.13,0l7.55,-25a6.82,6.82 0 0 1 6.4,-4.54a6.41,6.41 0 0 1 6.27,4.86l6,35.21a6.71,6.71 0 0 1 0.06,1.07a4.41,4.41 0 0 1 -4.61,4.54c-3.26,0 -4.54,-1.45 -5,-4.42l-3.78,-25.67l-0.12,0l-7.72,26.47a5.41,5.41 0 0 1 -10.28,0l-7.68,-26.43l-0.13,0l-3.73,25.63c-0.45,3 -1.73,4.42 -5,4.42a4.41,4.41 0 0 1 -4.61,-4.54a6.71,6.71 0 0 1 0.06,-1.07l5.96,-35.21z" fill="#ffffff" id="svg_9"/>
    <path class="cls-1" d="m6.58333,51.63l-4,-5.42a1.76,1.76 0 0 1 1.45,-2.87a2.13,2.13 0 0 1 1.63,0.91l3.09,4.32l3.09,-4.32a2.13,2.13 0 0 1 1.63,-0.91a1.76,1.76 0 0 1 1.49,2.87l-4,5.42l4.94,6.54a2.21,2.21 0 0 1 0.43,1.25a1.74,1.74 0 0 1 -1.9,1.73a1.83,1.83 0 0 1 -1.55,-0.82l-4.13,-5.61l-4.09,5.61a1.83,1.83 0 0 1 -1.55,0.82a1.74,1.74 0 0 1 -1.9,-1.73a2.21,2.21 0 0 1 0.43,-1.25l4.94,-6.54z" fill="#ffffff" id="svg_10"/>
    <path class="cls-1" d="m18.50333,45.62a1.88,1.88 0 0 1 1.95,-2.14l6.19,0a1.65,1.65 0 0 1 1.77,1.7a1.68,1.68 0 0 1 -1.77,1.7l-4.4,0l0,3.59l4.09,0a1.68,1.68 0 0 1 1.82,1.7a1.71,1.71 0 0 1 -1.82,1.69l-4.1,0l0,3.74l4.62,0a1.65,1.65 0 0 1 1.77,1.7a1.68,1.68 0 0 1 -1.76,1.7l-6.44,0a1.81,1.81 0 0 1 -1.92,-1.85l0,-13.53z" fill="#ffffff" id="svg_11"/>
    <path class="cls-1" d="m34.77333,46.88l0,12.3a1.86,1.86 0 1 1 -3.72,0l0,-13.88a1.77,1.77 0 0 1 1.9,-1.82l11.3,0a1.78,1.78 0 0 1 1.87,1.82l0,13.88a1.86,1.86 0 1 1 -3.72,0l0,-12.3l-7.63,0z" fill="#ffffff" id="svg_12"/>
    <path class="cls-1" d="m60.91333,50.12l0,0l-7.11,9.11c-1.17,1.5 -1.55,1.92 -2.54,1.92a1.75,1.75 0 0 1 -1.85,-2l0,-13.85a1.86,1.86 0 1 1 3.72,0l0,9l0,0l7.11,-9.08c1.17,-1.5 1.55,-1.91 2.54,-1.91a1.78,1.78 0 0 1 1.88,2l0,13.87a1.88,1.88 0 1 1 -3.75,0l0,-9.06z" fill="#ffffff" id="svg_13"/>
    <path class="cls-1" d="m67.89333,45.15a1.79,1.79 0 0 1 1.88,-1.81a1.74,1.74 0 0 1 1.87,1.81l0,5.32l6.14,-6.47a2,2 0 0 1 1.44,-0.68a1.8,1.8 0 0 1 1.85,1.77c0,0.64 -0.4,1.15 -1.22,2l-4.72,4.56l5.77,5.93a2.7,2.7 0 0 1 1,1.87a1.73,1.73 0 0 1 -1.94,1.7c-0.73,0 -1.2,-0.42 -1.9,-1.16l-6.42,-6.89l0,6.27a1.79,1.79 0 0 1 -1.87,1.78a1.74,1.74 0 0 1 -1.88,-1.78l0,-14.22z" fill="#ffffff" id="svg_14"/>
    <path class="cls-1" d="m89.57333,55.44c-0.47,3.76 -2.44,5.71 -4.84,5.71a1.73,1.73 0 0 1 -1.82,-1.87a1.43,1.43 0 0 1 1,-1.46c1,-0.39 1.78,-1 2.1,-3.64l1.1,-8.88a1.83,1.83 0 0 1 1.87,-1.82l8.46,0a1.78,1.78 0 0 1 1.89,1.82l0,13.88a1.86,1.86 0 1 1 -3.72,0l0,-12.3l-5,0l-1.04,8.56z" fill="#ffffff" id="svg_15"/>
    <path class="cls-1" d="m114.12333,50.12l-0.05,0l-7.11,9.11c-1.17,1.5 -1.55,1.92 -2.55,1.92a1.75,1.75 0 0 1 -1.84,-2l0,-13.85a1.86,1.86 0 1 1 3.72,0l0,9l0.04,0l7.11,-9.08c1.17,-1.5 1.55,-1.91 2.54,-1.91a1.77,1.77 0 0 1 1.87,2l0,13.87a1.87,1.87 0 1 1 -3.74,0l0.01,-9.06z" fill="#ffffff" id="svg_16"/>
    <path class="cls-1" d="m122.92333,45.23a2.5,2.5 0 0 1 2.41,-1.89a2.66,2.66 0 0 1 2.5,1.77l2.94,9.74l0.05,0l2.94,-9.74a2.66,2.66 0 0 1 2.5,-1.77a2.5,2.5 0 0 1 2.45,1.89l2.36,13.77a3,3 0 0 1 0,0.41a1.87,1.87 0 0 1 -3.74,0.05l-1.47,-10l-0.05,0l-3,10.31a2.11,2.11 0 0 1 -4,0l-3,-10.31l0,0l-1.48,10a1.87,1.87 0 0 1 -3.74,-0.05a3,3 0 0 1 0,-0.41l2.33,-13.77z" fill="#ffffff" id="svg_17"/>
   </g>
  </g>
 </g>

</svg>