<svg width="23" height="23" viewBox="0 0 23 23" fill="none" xmlns="http://www.w3.org/2000/svg">
<path d="M11.5 23C17.8513 23 23 17.8513 23 11.5C23 5.14873 17.8513 0 11.5 0C5.14873 0 0 5.14873 0 11.5C0 17.8513 5.14873 23 11.5 23Z" fill="#0067AA"/>
<path d="M3.28564 11.4999C3.28564 9.8753 3.7674 8.28715 4.67 6.93632C5.5726 5.58549 6.85549 4.53264 8.35646 3.91092C9.85742 3.2892 11.509 3.12653 13.1025 3.44348C14.6959 3.76043 16.1595 4.54277 17.3083 5.69156C18.4571 6.84035 19.2394 8.30399 19.5564 9.89741C19.8733 11.4908 19.7107 13.1424 19.0889 14.6434C18.4672 16.1444 17.4144 17.4273 16.0635 18.3299C14.7127 19.2325 13.1246 19.7142 11.4999 19.7142C9.32137 19.7142 7.23203 18.8488 5.69155 17.3083C4.15108 15.7678 3.28564 13.6785 3.28564 11.4999V11.4999Z" fill="white"/>
<path fill-rule="evenodd" clip-rule="evenodd" d="M11.3315 3.28564C11.2946 6.66582 11.0892 8.55922 9.816 9.816C8.54279 11.0728 6.66582 11.2946 3.28564 11.3315V11.8244C6.66582 11.8655 8.55922 12.0831 9.816 13.344C11.0728 14.6049 11.2864 16.4285 11.3315 19.7142H11.8244C11.8696 16.4285 12.1037 14.5803 13.344 13.344C14.5844 12.1078 16.4285 11.8696 19.7142 11.8244V11.3315C16.4285 11.2864 14.5803 11.0523 13.344 9.816C12.1078 8.57975 11.8655 6.66582 11.8244 3.28564H11.3315Z" fill="#0067AA"/>
</svg>
