<svg width="249" height="72" viewBox="0 0 249 72" fill="none" xmlns="http://www.w3.org/2000/svg">
<path d="M18.3666 62.4292C18.3397 61.9412 18.1343 61.4802 17.7896 61.1346C17.445 60.789 16.9853 60.583 16.4987 60.556C14.9778 60.556 14.2123 63.3607 10.6499 63.3607C7.08761 63.3607 4.78078 60.4741 4.78078 57.0451C4.78078 53.616 7.13865 50.8114 10.6703 50.8114C13.4977 50.8114 14.5185 52.7357 15.774 52.7357C16.2307 52.7412 16.6712 52.5659 16.9999 52.2478C17.3285 51.9297 17.5189 51.4945 17.5296 51.0366C17.5281 50.7813 17.4748 50.5289 17.3731 50.2949C17.2713 50.0608 17.1231 49.85 16.9376 49.6752C16.0974 48.8882 15.1101 48.2759 14.0326 47.8736C12.9552 47.4712 11.809 47.2869 10.6601 47.3311C9.0217 47.3187 7.40651 47.7202 5.96353 48.4986C4.52056 49.277 3.29627 50.4072 2.40358 51.785C1.51089 53.1628 0.978537 54.7439 0.855623 56.3824C0.732709 58.0208 1.02319 59.664 1.70028 61.1602C2.37736 62.6565 3.41926 63.9576 4.72986 64.9438C6.04046 65.9299 7.57758 66.5692 9.19944 66.8027C10.8213 67.0362 12.4757 66.8564 14.01 66.2799C15.5443 65.7034 16.9092 64.7487 17.9787 63.504C18.2345 63.2247 18.3765 62.8595 18.3768 62.4804" fill="#0067AA"/>
<path d="M33.4833 58.7439H25.7157C25.4821 58.7454 25.2506 58.6998 25.035 58.6099C24.8193 58.52 24.6238 58.3876 24.4601 58.2206C24.2964 58.0535 24.1678 57.8552 24.0819 57.6375C23.996 57.4197 23.9545 57.1868 23.96 56.9527C23.96 56.4838 24.1443 56.0339 24.473 55.7004C24.8016 55.367 25.2482 55.177 25.7157 55.1716H33.4425C33.133 53.9113 32.406 52.7936 31.3806 52.0015C30.3552 51.2093 29.0921 50.7896 27.7979 50.8111C24.9807 50.8111 23.96 52.7354 22.6943 52.7354C22.2385 52.7409 21.7991 52.5653 21.4721 52.2469C21.145 51.9285 20.9569 51.4933 20.9489 51.0363C20.9504 50.781 21.0037 50.5286 21.1054 50.2946C21.2072 50.0606 21.3554 49.8497 21.5409 49.6749C22.3791 48.8873 23.3643 48.2738 24.4399 47.8698C25.5156 47.4657 26.6603 47.2791 27.8081 47.3206C30.3429 47.4028 32.7463 48.4704 34.5104 50.2975C36.2744 52.1246 37.2607 54.5681 37.2607 57.1113C37.2607 59.6545 36.2744 62.098 34.5104 63.9251C32.7463 65.7523 30.3429 66.8198 27.8081 66.902C26.4154 66.905 25.039 66.6012 23.7762 66.0123C22.5133 65.4233 21.3949 64.5634 20.4998 63.4934C20.2396 63.217 20.0968 62.8499 20.1017 62.4698C20.1261 61.9827 20.3294 61.5219 20.6724 61.176C21.0154 60.8302 21.4738 60.6238 21.9594 60.5967C23.4905 60.5967 24.256 63.4013 27.8081 63.4013C29.1425 63.4118 30.439 62.9572 31.476 62.1151C32.5131 61.2731 33.2262 60.0959 33.4935 58.7849" fill="#0067AA"/>
<path d="M55.7458 64.9573C55.743 65.3547 55.6055 65.7393 55.3558 66.0479C55.1061 66.3564 54.7591 66.5706 54.3719 66.6552C53.9847 66.7397 53.5803 66.6897 53.2253 66.5132C52.8702 66.3367 52.5856 66.0443 52.4183 65.6841L47.131 53.0324L41.8436 65.6841C41.7062 65.9957 41.4795 66.2594 41.1924 66.4417C40.9052 66.6239 40.5706 66.7165 40.2309 66.7077C39.7713 66.6869 39.3369 66.491 39.0163 66.1601C38.6958 65.8291 38.5132 65.3879 38.5059 64.9266C38.5148 64.6816 38.5631 64.4397 38.6488 64.2101L45.5182 48.3853C45.6516 48.0728 45.8759 47.8079 46.1618 47.6253C46.4477 47.4426 46.7819 47.3508 47.1207 47.3617C47.4556 47.3576 47.7842 47.4526 48.0655 47.6346C48.3469 47.8166 48.5686 48.0777 48.7029 48.3853L55.5417 64.2101C55.6511 64.4438 55.7069 64.6991 55.705 64.9573" fill="#0067AA"/>
<path d="M73.8327 61.1291C73.8612 60.059 73.5306 59.0102 72.8939 58.1509C72.2573 57.2916 71.3514 56.6715 70.3215 56.3899C71.096 56.0057 71.7448 55.4075 72.1915 54.6657C72.6382 53.924 72.8641 53.0696 72.8426 52.2034C72.8426 49.4806 70.6379 47.6177 66.7183 47.6177H60.2163C59.9733 47.6177 59.7327 47.666 59.5085 47.7599C59.2842 47.8537 59.0808 47.9913 58.9099 48.1645C58.739 48.3378 58.6041 48.5433 58.513 48.7692C58.4218 48.9952 58.3763 49.2369 58.379 49.4806V64.5787C58.3736 65.0737 58.5638 65.5508 58.908 65.9056C59.2523 66.2605 59.7227 66.4642 60.2163 66.4723H66.9327C71.2809 66.4723 73.8021 64.1283 73.8021 61.1291H73.8327ZM69.0558 52.9404C69.0645 53.2052 69.0166 53.4688 68.9151 53.7135C68.8136 53.9582 68.6609 54.1781 68.4675 54.3586C68.274 54.539 68.0441 54.6758 67.7934 54.7596C67.5428 54.8433 67.2771 54.8722 67.0143 54.8443H62.1353V51.0979H67.0756C67.3326 51.0588 67.5951 51.0768 67.8445 51.1507C68.0939 51.2245 68.324 51.3523 68.5187 51.5251C68.7134 51.6979 68.8679 51.9115 68.9713 52.1507C69.0747 52.3899 69.1244 52.649 69.117 52.9097L69.0558 52.9404ZM70.1377 60.5866C70.1421 60.9214 70.0761 61.2534 69.9441 61.5609C69.812 61.8685 69.6169 62.1447 69.3714 62.3716C69.1258 62.5985 68.8354 62.771 68.519 62.8779C68.2026 62.9848 67.8673 63.0237 67.5349 62.9921H62.1353V58.2324H67.4736C67.8027 58.1963 68.1356 58.2304 68.4506 58.3324C68.7656 58.4345 69.0555 58.6021 69.3013 58.8245C69.547 59.0468 69.7432 59.3187 69.8768 59.6224C70.0104 59.9261 70.0785 60.2547 70.0765 60.5866" fill="#0067AA"/>
<path d="M93.0423 49.1225V64.9268C93.0318 65.3976 92.84 65.8461 92.5069 66.1781C92.1739 66.5102 91.7256 66.7 91.2561 66.7079C90.7904 66.6998 90.3464 66.5086 90.02 66.1755C89.6935 65.8423 89.5106 65.3939 89.5106 64.9268V53.9948C83.7129 61.4978 80.3241 66.063 80.3241 66.063C80.1684 66.2542 79.9744 66.4104 79.7546 66.5215C79.5348 66.6326 79.2941 66.6961 79.0482 66.7079C78.811 66.7119 78.5752 66.6691 78.3545 66.5818C78.1337 66.4945 77.9323 66.3644 77.7617 66.199C77.5911 66.0336 77.4546 65.8361 77.3601 65.6178C77.2656 65.3996 77.2149 65.1647 77.2109 64.9268V49.1225C77.2449 48.6748 77.4462 48.2564 77.7745 47.9512C78.1029 47.646 78.5341 47.4764 78.9819 47.4764C79.4296 47.4764 79.8609 47.646 80.1892 47.9512C80.5176 48.2564 80.7189 48.6748 80.7528 49.1225V60.0238L89.9393 47.9863C90.0971 47.7765 90.3027 47.6075 90.5388 47.4936C90.775 47.3796 91.0349 47.3239 91.2969 47.3312C91.7646 47.3337 92.2129 47.5191 92.5464 47.8479C92.88 48.1766 93.0725 48.6229 93.0832 49.0918" fill="#0067AA"/>
<path d="M116.008 64.9472V49.1429C116.001 48.673 115.811 48.2245 115.48 47.8922C115.148 47.5599 114.701 47.3697 114.232 47.3618C113.883 47.3744 113.544 47.4846 113.254 47.6799C112.963 47.8752 112.733 48.1479 112.589 48.4673L106.465 61.1292L100.218 48.4673C100.075 48.1472 99.8447 47.8738 99.5542 47.6784C99.2636 47.483 98.9242 47.3733 98.5745 47.3618C98.1124 47.3645 97.67 47.5498 97.3433 47.8774C97.0165 48.2051 96.8318 48.6488 96.8291 49.1122V64.9165C96.829 65.3845 97.0116 65.8341 97.3378 66.1689C97.664 66.5036 98.1079 66.6971 98.5745 66.7078C99.0458 66.6999 99.4956 66.5086 99.8289 66.1744C100.162 65.8401 100.353 65.3891 100.361 64.9165V56.5639L104.934 65.7763C105.051 66.0745 105.259 66.3279 105.529 66.5007C105.798 66.6734 106.115 66.7566 106.434 66.7385C106.748 66.7501 107.058 66.6664 107.324 66.4984C107.59 66.3304 107.799 66.0859 107.924 65.7968C107.924 65.7968 107.924 65.7968 112.477 56.5844V64.9677C112.479 65.4338 112.665 65.88 112.994 66.2096C113.323 66.5392 113.768 66.7256 114.232 66.7282C114.699 66.7256 115.146 66.5399 115.478 66.2109C115.81 65.8819 116 65.4356 116.008 64.9677" fill="#0067AA"/>
<path d="M151.438 37.5045C151.533 37.3567 151.618 37.2028 151.693 37.0439C151.772 36.8638 151.84 36.6792 151.898 36.4912C151.949 36.3274 152.01 36.1636 152.051 35.9999C152.091 35.814 152.122 35.626 152.142 35.4369C152.173 35.247 152.193 35.0557 152.204 34.8637C152.204 34.792 152.204 34.7306 152.204 34.659C152.204 34.5873 152.204 34.4338 152.204 34.3212C152.214 34.1234 152.214 33.9252 152.204 33.7275C152.17 33.5374 152.126 33.3494 152.071 33.1645C152.031 32.9942 151.98 32.8267 151.918 32.6629C151.836 32.4582 151.744 32.2637 151.653 32.0693C151.561 31.8748 151.581 31.8748 151.52 31.7826L151.418 31.6393C151.301 31.4588 151.175 31.2846 151.04 31.1173C150.938 30.9842 150.836 30.8512 150.724 30.7283C150.611 30.6055 150.438 30.4622 150.295 30.3291L149.897 30.0016C149.733 29.8862 149.562 29.7803 149.387 29.6843C149.244 29.6024 149.101 29.5205 148.948 29.4488C148.761 29.3666 148.57 29.2948 148.376 29.2339C148.222 29.1782 148.065 29.1304 147.906 29.0906C147.714 29.0466 147.52 29.0124 147.325 28.9882C147.142 28.961 146.958 28.944 146.773 28.937H146.569C146.447 28.937 146.335 28.937 146.212 28.937L145.64 28.9985C145.448 29.0319 145.257 29.0764 145.069 29.1315C144.899 29.1719 144.732 29.2232 144.569 29.2851C144.365 29.359 144.167 29.4479 143.977 29.5512L143.701 29.674L143.558 29.7866C143.387 29.8908 143.223 30.0071 143.068 30.1347C142.927 30.2324 142.793 30.342 142.67 30.4622C142.527 30.5953 142.405 30.7386 142.272 30.8819C142.139 31.0252 142.037 31.148 141.935 31.2913C141.833 31.4346 141.731 31.6086 141.629 31.7724C141.527 31.9362 141.456 32.0795 141.384 32.2433C141.313 32.407 141.241 32.6015 141.17 32.7858C141.123 32.896 141.082 33.0088 141.047 33.1236C140.472 35.1397 139.138 36.8527 137.326 37.9011C135.515 38.9496 133.369 39.2515 131.34 38.7431H131.167L130.911 38.6919C130.574 38.6348 130.233 38.604 129.891 38.5998V38.5998C129.549 38.6124 129.208 38.6466 128.87 38.7022L128.594 38.7636H128.421C126.394 39.269 124.25 38.9656 122.441 37.9174C120.632 36.8692 119.3 35.1579 118.724 33.144C118.665 32.9207 118.59 32.7018 118.499 32.4889L118.397 32.3866C118.278 32.1256 118.141 31.8726 117.989 31.6291L117.826 31.3937C117.652 31.1391 117.457 30.8995 117.244 30.6772C115.782 29.1696 114.965 27.15 114.965 25.0474C114.965 22.9448 115.782 20.9251 117.244 19.4176C117.458 19.1893 117.656 18.9465 117.836 18.6909L117.989 18.4554C118.134 18.2256 118.264 17.9862 118.377 17.7389L118.459 17.5854C118.556 17.3416 118.637 17.092 118.704 16.8381C119.298 14.8448 120.635 13.1572 122.436 12.1245C124.237 11.0918 126.365 10.7931 128.38 11.2903H128.503C128.705 11.3352 128.909 11.3693 129.115 11.3926L129.646 11.4438H129.829C129.962 11.4438 130.085 11.4438 130.217 11.4438L130.769 11.3824C130.968 11.3489 131.166 11.3045 131.361 11.2493L131.84 11.0958C132.032 11.021 132.219 10.9355 132.402 10.8399L132.698 10.7068L132.841 10.6045C133.017 10.4909 133.188 10.3679 133.351 10.236C133.484 10.1234 133.627 10.021 133.749 9.89817C133.872 9.77534 134.004 9.63204 134.127 9.49897C134.249 9.3659 134.372 9.21236 134.484 9.05882C134.596 8.90528 134.678 8.75174 134.77 8.5982C134.862 8.44467 134.954 8.28089 135.025 8.11711C135.104 7.94394 135.172 7.7662 135.229 7.58484C135.229 7.41083 135.341 7.23682 135.392 7.06281C135.43 6.88721 135.458 6.70946 135.474 6.53054C135.51 6.33114 135.531 6.12922 135.535 5.92662C135.535 5.85497 135.535 5.80379 135.535 5.73214C135.535 5.66048 135.535 5.52742 135.535 5.41482C135.535 5.30223 135.535 5.00538 135.474 4.79043C135.444 4.61067 135.403 4.43291 135.352 4.25816C135.352 4.07391 135.25 3.8999 135.188 3.72589C135.114 3.5303 135.028 3.33895 134.933 3.15267C134.882 3.06055 134.851 2.95819 134.8 2.86607C134.749 2.77394 134.729 2.77394 134.729 2.70229C134.729 2.63064 134.494 2.36451 134.372 2.20073C134.249 2.03696 134.147 1.91412 134.025 1.78106L133.637 1.4228C133.494 1.29197 133.344 1.16896 133.188 1.0543C133.045 0.951944 132.892 0.870056 132.749 0.777933C132.606 0.685809 132.422 0.58345 132.249 0.511798C132.082 0.438062 131.912 0.373146 131.738 0.317315C131.561 0.253379 131.38 0.198714 131.197 0.153539C131.026 0.112924 130.852 0.0821659 130.677 0.0614159L130.064 0H129.881C129.768 0 129.666 0 129.564 0C129.356 0.00982054 129.148 0.0303194 128.941 0.0614159C128.758 0.0614159 128.584 0.143303 128.4 0.184247L127.87 0.348023C127.68 0.420894 127.496 0.506385 127.319 0.603922L127.012 0.736989L126.859 0.849585C126.694 0.953863 126.533 1.06661 126.379 1.18737C126.247 1.29997 126.104 1.40233 125.981 1.52516C125.859 1.64799 125.706 1.81176 125.573 1.95507L125.257 2.34403C125.136 2.51387 125.027 2.6917 124.93 2.8763C124.845 3.00708 124.77 3.14393 124.705 3.28574C124.615 3.48554 124.537 3.69063 124.471 3.8999C124.471 3.99202 124.389 4.08415 124.358 4.18651C123.789 6.19404 122.466 7.9022 120.668 8.95204C118.869 10.0019 116.734 10.3117 114.713 9.81628L114.468 9.7651H114.253C113.917 9.70015 113.575 9.66589 113.233 9.66274V9.66274C112.465 9.66274 111.705 9.81584 110.997 10.1131C109.958 10.551 109.072 11.2869 108.449 12.2285C107.826 13.17 107.495 14.2752 107.496 15.4051C107.498 15.7865 107.536 16.1669 107.608 16.5413C107.608 16.7563 107.731 16.9507 107.802 17.1657C107.836 17.3121 107.88 17.4559 107.935 17.5956C108.042 17.8304 108.161 18.0594 108.292 18.2814C108.354 18.3838 108.394 18.4861 108.456 18.5783C108.623 18.8255 108.811 19.0583 109.017 19.2743C109.017 19.3255 109.099 19.3869 109.15 19.4381C110.583 20.93 111.388 22.9176 111.4 24.989C111.411 27.0604 110.627 29.0568 109.211 30.5646C109.215 30.5814 109.215 30.599 109.211 30.6157L109.15 30.6772C108.943 30.8951 108.752 31.1277 108.578 31.3732L108.435 31.5984L108.282 31.8134C108.231 31.9157 108.2 32.0283 108.149 32.1204C108.057 32.2999 107.976 32.4844 107.904 32.6732C107.837 32.8509 107.779 33.032 107.731 33.2157C107.731 33.3897 107.639 33.5637 107.608 33.748C107.578 33.9322 107.608 34.1676 107.547 34.3723C107.486 34.5771 107.547 34.5873 107.547 34.6897C107.547 34.792 107.547 34.8125 107.547 34.8739C107.557 35.0796 107.577 35.2845 107.608 35.4881C107.628 35.6672 107.659 35.8449 107.7 36.0203C107.745 36.1971 107.8 36.3714 107.864 36.5424C107.919 36.723 107.984 36.9006 108.057 37.0746C108.094 37.2202 108.138 37.3637 108.19 37.5045C108.277 37.6664 108.373 37.8236 108.476 37.9754C108.588 38.1289 108.711 38.2722 108.833 38.4155C108.956 38.5588 109.078 38.6919 109.211 38.8147C109.344 38.9387 109.483 39.0549 109.629 39.1628C109.783 39.2856 109.946 39.3982 110.109 39.5108C110.272 39.6234 110.211 39.5927 110.272 39.6234C110.375 39.6773 110.481 39.7251 110.589 39.7667C110.752 39.8486 110.926 39.9305 111.109 40.0021C111.28 40.066 111.454 40.1206 111.63 40.1659C111.811 40.2211 111.995 40.2655 112.181 40.299C112.375 40.3091 112.569 40.3091 112.763 40.299C112.886 40.299 113.008 40.299 113.141 40.299H113.294C113.488 40.299 113.682 40.299 113.876 40.2375L114.427 40.1454H114.57C116.579 39.6394 118.706 39.9307 120.507 40.9585C122.308 41.9864 123.644 43.6715 124.236 45.6626C124.301 45.9214 124.386 46.1746 124.491 46.4201C124.491 46.502 124.563 46.5634 124.593 46.635C124.661 46.7969 124.74 46.9541 124.828 47.1059L124.93 47.2492C125.047 47.433 125.173 47.6107 125.308 47.7814C125.405 47.9143 125.511 48.0408 125.624 48.1602C125.759 48.3012 125.903 48.4345 126.053 48.5594C126.182 48.6805 126.318 48.7933 126.461 48.8972C126.615 49.0057 126.775 49.1048 126.941 49.194C127.093 49.2872 127.25 49.3726 127.41 49.4499C127.583 49.5254 127.76 49.5903 127.941 49.6444C128.115 49.7097 128.292 49.7644 128.472 49.8082C128.635 49.8082 128.809 49.8696 128.982 49.9003C129.189 49.9314 129.396 49.9519 129.605 49.9617H129.789H130.095C130.307 49.9536 130.519 49.9296 130.728 49.8901C130.904 49.8645 131.078 49.8268 131.248 49.7775C131.435 49.7288 131.619 49.6707 131.799 49.6034C131.984 49.5321 132.165 49.45 132.34 49.3578L132.657 49.2247L132.82 49.1019L133.259 48.7846C133.412 48.672 133.555 48.5491 133.698 48.4263C133.841 48.3035 133.943 48.1602 134.065 48.0271C134.19 47.8945 134.306 47.7543 134.413 47.6074C134.524 47.4498 134.626 47.2858 134.719 47.1161C134.811 46.9626 134.892 46.8193 134.974 46.6555C135.056 46.4917 135.117 46.287 135.188 46.1028C135.26 45.9185 135.28 45.8878 135.311 45.7752C135.882 43.7584 137.214 42.0439 139.024 40.9949C140.834 39.9459 142.98 39.6449 145.008 40.1557H145.151L145.692 40.2478C145.888 40.275 146.085 40.2921 146.284 40.299H146.457C146.58 40.299 146.702 40.299 146.835 40.299C147.025 40.3086 147.216 40.3086 147.406 40.299C147.596 40.2655 147.783 40.221 147.968 40.1659C148.138 40.1221 148.305 40.0674 148.468 40.0021C148.653 39.9361 148.834 39.8574 149.009 39.7667C149.114 39.7251 149.216 39.6773 149.315 39.6234C149.376 39.6234 149.417 39.5415 149.468 39.5108C149.641 39.4007 149.808 39.2811 149.968 39.1525C150.111 39.0399 150.244 38.9376 150.377 38.8147C150.509 38.6919 150.632 38.5486 150.754 38.4053C150.877 38.262 150.999 38.1289 151.101 37.9856C151.203 37.8423 151.346 37.699 151.438 37.5045Z" fill="#0067AA"/>
<path d="M146.488 21.1268C147.621 21.1268 148.728 20.7901 149.669 20.1591C150.611 19.5281 151.345 18.6313 151.778 17.582C152.212 16.5327 152.325 15.3781 152.104 14.2642C151.883 13.1503 151.338 12.1271 150.537 11.324C149.736 10.5209 148.716 9.974 147.605 9.75243C146.494 9.53086 145.343 9.64458 144.297 10.0792C143.25 10.5138 142.356 11.2498 141.727 12.1942C141.098 13.1385 140.762 14.2487 140.762 15.3845C140.762 16.9074 141.365 18.368 142.439 19.4449C143.513 20.5218 144.969 21.1268 146.488 21.1268V21.1268Z" fill="#8CC63F"/>
<path d="M172.165 26.1027V72H176.469V26.1027H172.165Z" fill="#8CC63F"/>
<path d="M192.227 38.9731C191.669 38.9833 191.114 38.8836 190.594 38.6799C190.12 38.4896 189.699 38.1879 189.367 37.8002C189.018 37.3777 188.767 36.8838 188.629 36.3531L189.799 36.0535C189.951 36.5586 190.255 37.0041 190.67 37.3285C191.093 37.6603 191.621 37.8298 192.157 37.8066C192.546 37.8025 192.93 37.7246 193.289 37.5771C193.634 37.4486 193.937 37.2282 194.166 36.9396C194.357 36.7021 194.5 36.4292 194.586 36.1364C194.675 35.8526 194.733 35.5597 194.757 35.2631H191.801V34.1029H194.764C194.72 33.6276 194.582 33.1659 194.357 32.7451C194.149 32.3713 193.846 32.0591 193.48 31.8399C193.032 31.6003 192.527 31.4918 192.021 31.5268C191.515 31.5617 191.029 31.7387 190.619 32.0375C190.208 32.3839 189.922 32.8567 189.805 33.3826L188.598 33.2105C188.759 32.3818 189.21 31.6381 189.869 31.1132C190.517 30.6637 191.278 30.4062 192.065 30.3701C192.852 30.334 193.633 30.5209 194.319 30.9092C194.89 31.2775 195.344 31.8017 195.628 32.42C195.942 33.1279 196.101 33.8954 196.092 34.6702C196.109 35.4206 195.96 36.1654 195.654 36.8504C195.368 37.5051 194.891 38.058 194.287 38.4367C193.682 38.8154 192.978 39.0024 192.265 38.9731H192.227Z" fill="#0067AA"/>
<path d="M197.191 38.8011V32.605H198.406V35.5883L200.827 32.605H202.353L199.81 35.703L202.633 38.8011H201.012L198.425 35.8178V38.8011H197.191Z" fill="#0067AA"/>
<path d="M205.697 38.9733C205.13 38.9911 204.569 38.8451 204.083 38.5526C203.642 38.2676 203.292 37.8631 203.072 37.386C202.831 36.8557 202.706 36.2796 202.706 35.6968C202.706 35.1139 202.831 34.5379 203.072 34.0075C203.3 33.5332 203.657 33.1332 204.102 32.8537C204.587 32.5621 205.145 32.4161 205.71 32.433C206.325 32.4162 206.93 32.5946 207.439 32.9429C207.913 33.2716 208.251 33.764 208.386 34.3262L207.197 34.6705C207.096 34.3421 206.89 34.0558 206.613 33.8545C206.344 33.6622 206.021 33.5616 205.691 33.5676C205.357 33.5458 205.026 33.6361 204.75 33.8243C204.474 34.0125 204.268 34.2879 204.165 34.6067C204.036 34.9576 203.971 35.3291 203.974 35.7031C203.953 36.2531 204.107 36.7955 204.413 37.2522C204.559 37.449 204.752 37.6063 204.974 37.7098C205.196 37.8133 205.44 37.8598 205.684 37.845C206.017 37.8617 206.345 37.7676 206.619 37.5773C206.871 37.3809 207.061 37.1151 207.166 36.8123L208.38 37.0992C208.21 37.6623 207.856 38.1518 207.375 38.4888C206.879 38.8206 206.293 38.9899 205.697 38.9733V38.9733Z" fill="#0067AA"/>
<path d="M209.581 38.8011V32.605H214.794V38.8011H213.592V33.7524H210.782V38.8139L209.581 38.8011Z" fill="#0067AA"/>
<path d="M219.135 38.9732C218.569 38.9866 218.009 38.848 217.514 38.5716C217.055 38.3062 216.68 37.9148 216.434 37.4433C216.171 36.9222 216.04 36.3443 216.052 35.7604C216.035 35.1503 216.164 34.5448 216.427 33.9947C216.665 33.5172 217.033 33.1171 217.489 32.8409C217.972 32.564 218.521 32.4231 219.078 32.4329C219.646 32.4161 220.206 32.5692 220.686 32.8727C221.14 33.1851 221.486 33.6304 221.678 34.1477C221.905 34.758 221.994 35.4111 221.939 36.06H220.744V35.6266C220.777 35.0649 220.632 34.5071 220.33 34.0329C220.185 33.8564 219.999 33.7174 219.789 33.6275C219.579 33.5377 219.35 33.4997 219.123 33.5166C218.869 33.4997 218.614 33.5422 218.379 33.6406C218.144 33.739 217.935 33.8908 217.769 34.0839C217.439 34.5635 217.28 35.1407 217.317 35.7222C217.283 36.2855 217.442 36.8436 217.769 37.3031C217.928 37.4927 218.13 37.6422 218.357 37.7396C218.584 37.837 218.831 37.8796 219.078 37.8641C219.418 37.8733 219.753 37.7848 220.044 37.6091C220.322 37.4307 220.542 37.1763 220.68 36.876L221.85 37.2521C221.625 37.7799 221.243 38.2251 220.756 38.527C220.269 38.8273 219.707 38.9821 219.135 38.9732V38.9732ZM216.93 36.0409V35.1102H221.341V36.0409H216.93Z" fill="#0067AA"/>
<path d="M223.21 41.5549V32.6304H224.278V37.0927H224.411V41.5549H223.21ZM226.121 39.0051C225.59 39.0254 225.066 38.8734 224.628 38.5716C224.222 38.2727 223.907 37.8666 223.719 37.3987C223.507 36.8677 223.404 36.3 223.413 35.7285C223.404 35.1591 223.508 34.5936 223.719 34.0647C223.901 33.5948 224.214 33.1875 224.621 32.8918C225.057 32.6005 225.572 32.4513 226.096 32.4647C226.627 32.453 227.15 32.6018 227.596 32.8918C228.02 33.1744 228.361 33.5664 228.581 34.0265C228.817 34.5511 228.934 35.1214 228.925 35.6966C228.934 36.2739 228.817 36.8463 228.581 37.3732C228.374 37.8463 228.039 38.2523 227.615 38.5461C227.174 38.8412 226.652 38.9906 226.121 38.9732V39.0051ZM225.95 37.9214C226.29 37.9361 226.624 37.8325 226.897 37.6281C227.157 37.4267 227.353 37.1545 227.463 36.8441C227.589 36.486 227.651 36.1083 227.647 35.7285C227.651 35.3549 227.589 34.9836 227.463 34.6321C227.349 34.3204 227.151 34.0466 226.891 33.8416C226.605 33.6393 226.261 33.5364 225.912 33.5484C225.582 33.5358 225.257 33.6346 224.99 33.8289C224.737 34.0235 224.549 34.2901 224.45 34.5938C224.33 34.9598 224.271 35.3433 224.278 35.7285C224.271 36.1158 224.329 36.5015 224.45 36.8696C224.548 37.1754 224.736 37.4443 224.99 37.6409C225.274 37.8277 225.611 37.9151 225.95 37.8895V37.9214Z" fill="#0067AA"/>
<path d="M231.76 38.8011V33.7014H229.662V32.605H235.078V33.6887H232.968V38.7884L231.76 38.8011Z" fill="#0067AA"/>
<path d="M236.158 38.8011V32.605H237.36V34.7596H238.173C238.345 34.7596 238.536 34.7596 238.739 34.7596C238.912 34.7625 239.084 34.7817 239.254 34.817C239.562 34.8722 239.856 34.9893 240.118 35.1612C240.36 35.3175 240.554 35.5383 240.678 35.7987C240.818 36.104 240.886 36.4379 240.875 36.774C240.895 37.235 240.748 37.6878 240.462 38.0489C240.161 38.3757 239.765 38.5988 239.33 38.6864C239.152 38.7231 238.971 38.7444 238.79 38.7501C238.58 38.7501 238.389 38.7501 238.211 38.7501L236.158 38.8011ZM237.36 37.8385H238.281C238.391 37.8445 238.502 37.8445 238.612 37.8385C238.726 37.8324 238.838 37.8153 238.949 37.7875C239.14 37.7288 239.31 37.6159 239.438 37.4624C239.582 37.2819 239.659 37.0563 239.654 36.825C239.671 36.5944 239.604 36.3656 239.465 36.1813C239.325 35.9971 239.124 35.8701 238.898 35.8242C238.796 35.7974 238.692 35.7803 238.586 35.7732H238.281H237.36V37.8385ZM241.561 38.8011V32.605H242.756V38.8011H241.561Z" fill="#0067AA"/>
<path d="M191.674 52.742C191.106 52.7605 190.546 52.6144 190.059 52.3213C189.617 52.0365 189.265 51.632 189.042 51.1547C188.798 50.6282 188.676 50.0526 188.686 49.4718C188.679 48.8865 188.802 48.307 189.048 47.7762C189.276 47.3019 189.633 46.9019 190.078 46.6224C190.591 46.3324 191.174 46.1876 191.762 46.2033C192.351 46.219 192.925 46.3947 193.422 46.7116C193.895 47.041 194.229 47.5335 194.363 48.0949L193.174 48.4136C193.074 48.086 192.871 47.7997 192.596 47.5977C192.326 47.4066 192.004 47.3062 191.674 47.3108C191.331 47.2946 190.991 47.3908 190.708 47.5849C190.448 47.7789 190.252 48.0449 190.142 48.3499C190.015 48.7012 189.952 49.0727 189.957 49.4463C189.931 49.9959 190.083 50.5393 190.39 50.9954C190.537 51.191 190.73 51.3473 190.952 51.4507C191.173 51.554 191.417 51.6013 191.661 51.5882C191.993 51.6026 192.321 51.5086 192.596 51.3205C192.846 51.1223 193.036 50.8571 193.142 50.5555L194.35 50.8424C194.187 51.4056 193.84 51.8974 193.365 52.2384C192.867 52.5795 192.276 52.7557 191.674 52.742V52.742Z" fill="#0067AA"/>
<path d="M198.273 52.7425C197.708 52.7547 197.151 52.6161 196.658 52.3409C196.197 52.0771 195.822 51.6853 195.577 51.2125C195.309 50.6931 195.176 50.1143 195.19 49.5296C195.174 48.919 195.305 48.3135 195.571 47.7639C195.807 47.2852 196.176 46.8847 196.633 46.6101C197.113 46.3323 197.661 46.1912 198.215 46.2021C198.783 46.1842 199.344 46.3374 199.824 46.6419C200.281 46.9505 200.628 47.397 200.815 47.9169C201.045 48.5265 201.134 49.1802 201.076 49.8293H199.881V49.3958C199.916 48.8348 199.774 48.277 199.474 47.8021C199.328 47.6251 199.141 47.4858 198.93 47.396C198.718 47.3062 198.489 47.2684 198.26 47.2858C198.007 47.2679 197.753 47.3099 197.519 47.4085C197.285 47.507 197.077 47.6593 196.912 47.8531C196.582 48.3327 196.423 48.9099 196.461 49.4914C196.426 50.0547 196.586 50.6128 196.912 51.0723C197.067 51.2573 197.262 51.4042 197.483 51.5014C197.703 51.5987 197.943 51.6438 198.184 51.6333C198.526 51.643 198.863 51.5546 199.156 51.3783C199.434 51.2008 199.655 50.9461 199.792 50.6452L200.968 51.0213C200.743 51.5491 200.361 51.9943 199.875 52.2962C199.393 52.5921 198.838 52.7466 198.273 52.7425V52.7425ZM196.073 49.8101V48.8794H200.485V49.8101H196.073Z" fill="#0067AA"/>
<path d="M202.182 52.5702V46.374H203.154L205.436 50.9191L207.718 46.374H208.723V52.5702H207.604V48.8346L205.748 52.5702H205.201L203.345 48.8346V52.5702H202.182Z" fill="#0067AA"/>
<path d="M213.09 52.7423C212.526 52.7545 211.969 52.6159 211.475 52.3407C211.014 52.077 210.639 51.6851 210.395 51.2124C210.127 50.6929 209.994 50.1142 210.007 49.5295C209.992 48.9188 210.123 48.3133 210.388 47.7637C210.626 47.2862 210.995 46.8862 211.45 46.6099C211.931 46.3321 212.478 46.1911 213.033 46.2019C213.601 46.1852 214.16 46.3383 214.641 46.6418C215.098 46.9503 215.446 47.3969 215.633 47.9167C215.862 48.5263 215.951 49.1801 215.893 49.8291H214.698V49.3956C214.734 48.8347 214.591 48.2768 214.292 47.802C214.145 47.6249 213.958 47.4856 213.747 47.3958C213.536 47.306 213.306 47.2682 213.077 47.2856C212.824 47.2677 212.57 47.3098 212.336 47.4083C212.102 47.5069 211.894 47.6592 211.73 47.853C211.4 48.3325 211.241 48.9098 211.278 49.4912C211.244 50.0545 211.403 50.6127 211.73 51.0721C211.885 51.2572 212.08 51.404 212.3 51.5013C212.521 51.5985 212.76 51.6436 213.001 51.6331C213.343 51.6429 213.68 51.5544 213.974 51.3781C214.252 51.2006 214.473 50.9459 214.609 50.645L215.785 51.0211C215.558 51.5476 215.177 51.9923 214.692 52.2961C214.21 52.5919 213.655 52.7465 213.09 52.7423V52.7423ZM210.891 49.81V48.8793H215.302V49.81H210.891Z" fill="#0067AA"/>
<path d="M222.383 46.3742V52.5704H221.233V48.2675L218.143 52.5704H217.171V46.3742H218.321V50.6006L221.417 46.3742H222.383ZM219.936 45.6667C219.644 45.6684 219.356 45.5913 219.103 45.4435C218.859 45.2944 218.655 45.089 218.506 44.8443C218.358 44.5936 218.281 44.307 218.283 44.0156H219.237C219.236 44.1069 219.254 44.1974 219.289 44.2817C219.324 44.3661 219.375 44.4425 219.44 44.5065C219.503 44.5746 219.58 44.6282 219.666 44.6634C219.751 44.6987 219.844 44.7147 219.936 44.7105C220.027 44.7138 220.119 44.6973 220.203 44.6621C220.287 44.6269 220.363 44.5738 220.426 44.5065C220.493 44.4442 220.546 44.368 220.581 44.2833C220.616 44.1986 220.632 44.1073 220.629 44.0156H221.589C221.591 44.307 221.514 44.5936 221.366 44.8443C221.218 45.089 221.013 45.2944 220.769 45.4435C220.516 45.5916 220.229 45.6687 219.936 45.6667V45.6667Z" fill="#0067AA"/>
<path d="M223.979 52.5702V46.374H225.175V48.9239H228.188V46.374H229.383V52.5702H228.188V50.0203H225.175V52.5702H223.979Z" fill="#0067AA"/>
<path d="M233.667 52.7421C233.105 52.7556 232.551 52.6121 232.065 52.3278C231.611 52.0489 231.245 51.6466 231.01 51.1676C230.758 50.6362 230.632 50.0538 230.641 49.4656C230.629 48.8756 230.76 48.2915 231.023 47.7635C231.259 47.2882 231.625 46.8902 232.078 46.6161C232.56 46.3343 233.11 46.191 233.667 46.2018C234.232 46.1866 234.79 46.3325 235.275 46.6225C235.729 46.8988 236.095 47.299 236.331 47.7763C236.576 48.3089 236.703 48.8885 236.703 49.4751C236.703 50.0617 236.576 50.6413 236.331 51.174C236.097 51.6524 235.731 52.0531 235.275 52.3278C234.789 52.6161 234.232 52.7599 233.667 52.7421V52.7421ZM233.667 51.6011C233.921 51.619 234.175 51.5737 234.407 51.4691C234.639 51.3646 234.841 51.204 234.996 51.0018C235.305 50.5466 235.459 50.0031 235.434 49.4528C235.46 48.9015 235.303 48.3571 234.989 47.9038C234.832 47.7077 234.629 47.5526 234.399 47.4516C234.169 47.3506 233.918 47.3068 233.667 47.3237C233.319 47.3094 232.975 47.4029 232.682 47.5914C232.419 47.7794 232.218 48.0411 232.103 48.3436C231.971 48.6979 231.906 49.0743 231.913 49.4528C231.887 50.0081 232.044 50.5566 232.358 51.0146C232.513 51.2104 232.713 51.3659 232.941 51.468C233.169 51.57 233.418 51.6157 233.667 51.6011V51.6011Z" fill="#0067AA"/>
<path d="M237.958 52.5702V46.374H242.306V47.5087H239.159V52.5702H237.958Z" fill="#0067AA"/>
<path d="M245.967 52.7425C245.403 52.7568 244.846 52.6133 244.359 52.3281C243.905 52.0508 243.541 51.6479 243.31 51.168C243.055 50.6379 242.928 50.0546 242.942 49.4659C242.927 48.8765 243.056 48.2924 243.317 47.7639C243.554 47.29 243.92 46.8925 244.372 46.6165C244.856 46.3339 245.408 46.1905 245.967 46.2021C246.53 46.1879 247.086 46.3337 247.569 46.6228C248.023 46.8992 248.389 47.2994 248.624 47.7767C248.881 48.3019 249.01 48.881 248.999 49.4659C249.011 50.0572 248.883 50.6427 248.624 51.1743C248.387 51.6502 248.021 52.0499 247.569 52.3281C247.084 52.6137 246.529 52.7573 245.967 52.7425V52.7425ZM245.967 51.6142C246.22 51.6322 246.473 51.5869 246.704 51.4823C246.935 51.3777 247.136 51.2171 247.29 51.015C247.599 50.5597 247.753 50.0162 247.728 49.4659C247.756 48.9142 247.6 48.3689 247.283 47.9169C247.127 47.7209 246.925 47.5658 246.696 47.4648C246.467 47.3638 246.217 47.3199 245.967 47.3368C245.617 47.3229 245.271 47.4163 244.976 47.6045C244.713 47.7925 244.512 48.0542 244.397 48.3567C244.264 48.7111 244.2 49.0874 244.206 49.4659C244.181 50.0212 244.337 50.5697 244.651 51.0277C244.809 51.2217 245.011 51.375 245.24 51.4748C245.469 51.5747 245.718 51.6181 245.967 51.6014V51.6142Z" fill="#0067AA"/>
<path d="M191.229 66.5112C190.67 66.5202 190.117 66.3887 189.621 66.1288C189.158 65.8842 188.769 65.5185 188.496 65.0706L189.443 64.4331C189.65 64.7149 189.915 64.9496 190.219 65.1216C190.519 65.2908 190.859 65.3766 191.204 65.3702C191.526 65.387 191.844 65.2949 192.107 65.1088C192.216 65.0285 192.304 64.9226 192.362 64.8004C192.421 64.6781 192.449 64.5432 192.444 64.4076C192.453 64.3117 192.441 64.2148 192.408 64.1243C192.375 64.0337 192.322 63.9519 192.253 63.8849C192.092 63.778 191.905 63.7183 191.713 63.7128C191.462 63.6748 191.209 63.6577 190.956 63.6618H190.441V62.661H190.994C191.309 62.6714 191.622 62.6194 191.916 62.508C192.031 62.4589 192.129 62.3746 192.194 62.267C192.259 62.1595 192.288 62.0341 192.278 61.9088C192.291 61.784 192.268 61.6583 192.213 61.5457C192.158 61.4331 192.073 61.3381 191.967 61.2713C191.742 61.1438 191.487 61.0799 191.229 61.0864C190.907 61.0847 190.588 61.1543 190.295 61.2904C190.009 61.4151 189.743 61.5828 189.507 61.7876L188.808 60.9717C189.134 60.6558 189.515 60.403 189.933 60.2259C190.364 60.0456 190.826 59.9546 191.293 59.9581C191.67 59.9546 192.044 60.0261 192.393 60.1685C192.717 60.3019 192.999 60.5225 193.206 60.806C193.415 61.0967 193.523 61.4486 193.512 61.8068C193.515 62.1048 193.443 62.3989 193.302 62.661C193.143 62.9383 192.926 63.1775 192.666 63.3622L192.628 62.9542C192.851 63.0155 193.053 63.1368 193.213 63.3048C193.37 63.4626 193.49 63.6545 193.562 63.8658C193.645 64.0859 193.685 64.3193 193.683 64.5542C193.692 64.9358 193.576 65.3097 193.353 65.6188C193.117 65.9102 192.807 66.1326 192.456 66.2626C192.068 66.4262 191.651 66.5107 191.229 66.5112V66.5112Z" fill="#0067AA"/>
<path d="M194.471 67.7161V65.3766C194.61 65.3889 194.751 65.3641 194.878 65.3048C195.005 65.2455 195.115 65.1538 195.195 65.0388C195.389 64.6769 195.51 64.2806 195.551 63.8722C195.602 63.5407 195.647 63.1901 195.685 62.814C195.723 62.4379 195.755 62.03 195.78 61.5965C195.806 61.163 195.831 60.6722 195.856 60.1431H200.306V65.3766H200.91V67.7161H199.779V66.3392H195.628V67.7161H194.471ZM196.162 65.3766H199.067V61.112H196.905C196.905 61.3606 196.905 61.622 196.854 61.8897L196.797 62.6865C196.797 62.9543 196.753 63.2029 196.727 63.4451C196.702 63.6874 196.67 63.9041 196.632 64.0826C196.599 64.3393 196.546 64.593 196.473 64.8412C196.415 65.0426 196.308 65.2266 196.162 65.3766V65.3766Z" fill="#0067AA"/>
<path d="M204.489 66.5116C203.928 66.5251 203.373 66.3816 202.888 66.0973C202.434 65.8184 202.068 65.4161 201.832 64.9371C201.581 64.4058 201.454 63.8233 201.464 63.2351C201.451 62.6451 201.582 62.061 201.845 61.5331C202.081 61.0578 202.447 60.6597 202.9 60.3856C203.382 60.1039 203.932 59.9605 204.489 59.9713C205.054 59.9562 205.612 60.102 206.098 60.392C206.552 60.6684 206.918 61.0686 207.153 61.5458C207.41 62.0711 207.538 62.6501 207.528 63.2351C207.54 63.8263 207.411 64.4119 207.153 64.9435C206.916 65.4194 206.55 65.819 206.098 66.0973C205.611 66.3837 205.054 66.5273 204.489 66.5116V66.5116ZM204.489 65.3833C204.743 65.4019 204.997 65.3568 205.229 65.2522C205.461 65.1476 205.664 64.9867 205.818 64.7841C206.127 64.3288 206.281 63.7854 206.257 63.2351C206.282 62.6837 206.126 62.1393 205.812 61.6861C205.654 61.49 205.451 61.3349 205.221 61.2339C204.991 61.1329 204.74 61.089 204.489 61.106C204.142 61.0929 203.798 61.1863 203.504 61.3737C203.242 61.5616 203.04 61.8234 202.926 62.1259C202.793 62.4802 202.728 62.8566 202.735 63.2351C202.71 63.7904 202.866 64.3388 203.18 64.7969C203.335 64.9927 203.536 65.1482 203.763 65.2503C203.991 65.3523 204.24 65.398 204.489 65.3833V65.3833Z" fill="#0067AA"/>
<path d="M208.78 69.0934V60.1689H209.842V64.6311H209.982V69.0934H208.78ZM211.685 66.5435C211.156 66.5639 210.634 66.4118 210.198 66.11C209.789 65.8147 209.473 65.4075 209.289 64.9371C209.072 64.4075 208.966 63.8392 208.977 63.267C208.968 62.6976 209.072 62.1321 209.282 61.6032C209.467 61.1328 209.782 60.7256 210.191 60.4303C210.624 60.1363 211.138 59.9868 211.66 60.0032C212.193 59.9921 212.718 60.1408 213.166 60.4303C213.591 60.7229 213.927 61.1263 214.139 61.5968C214.365 62.1255 214.482 62.6948 214.482 63.2702C214.482 63.8455 214.365 64.4149 214.139 64.9435C213.933 65.4179 213.599 65.8244 213.173 66.1164C212.73 66.3991 212.21 66.5371 211.685 66.5116V66.5435ZM211.52 65.4598C211.86 65.4736 212.194 65.3701 212.467 65.1666C212.723 64.9628 212.917 64.6912 213.027 64.3825C213.153 64.0245 213.215 63.6468 213.211 63.267C213.215 62.8934 213.153 62.5221 213.027 62.1705C212.915 61.8575 212.717 61.5831 212.454 61.3801C212.169 61.1765 211.825 61.0734 211.476 61.0868C211.146 61.0752 210.822 61.1739 210.554 61.3673C210.304 61.5649 210.116 61.8305 210.013 62.1323C209.783 62.8733 209.783 63.667 210.013 64.408C210.112 64.7156 210.303 64.9851 210.56 65.1794C210.844 65.3671 211.181 65.4546 211.52 65.428V65.4598Z" fill="#0067AA"/>
<path d="M218.411 66.5115C217.847 66.5241 217.29 66.3808 216.802 66.0971C216.351 65.8162 215.988 65.4143 215.753 64.937C215.509 64.4031 215.382 63.8225 215.382 63.2349C215.382 62.6474 215.509 62.0667 215.753 61.5329C215.992 61.0572 216.36 60.6592 216.815 60.3855C217.301 60.1154 217.848 59.9736 218.404 59.9736C218.96 59.9736 219.507 60.1154 219.993 60.3855C220.446 60.6637 220.811 61.0634 221.049 61.5393C221.301 62.066 221.427 62.6444 221.417 63.2286C221.429 63.8198 221.301 64.4054 221.042 64.937C220.807 65.4142 220.441 65.8144 219.987 66.0908C219.511 66.3756 218.965 66.5213 218.411 66.5115ZM218.411 65.3832C218.663 65.4012 218.916 65.3559 219.147 65.2513C219.378 65.1467 219.579 64.9861 219.733 64.784C220.042 64.3287 220.196 63.7852 220.171 63.2349C220.2 62.6832 220.043 62.1379 219.726 61.6859C219.571 61.4891 219.369 61.3334 219.14 61.2323C218.911 61.1312 218.66 61.0878 218.411 61.1058C218.061 61.0919 217.715 61.1853 217.419 61.3735C217.158 61.5631 216.957 61.8243 216.84 62.1257C216.713 62.4813 216.65 62.8571 216.656 63.2349C216.627 63.7907 216.783 64.3403 217.101 64.7967C217.256 64.9929 217.456 65.1487 217.684 65.2508C217.912 65.3529 218.161 65.3983 218.411 65.3832V65.3832Z" fill="#0067AA"/>
<path d="M222.708 66.3392V60.1431H225.403C225.582 60.1442 225.76 60.1548 225.937 60.1749C226.098 60.195 226.257 60.2248 226.414 60.2642C226.728 60.3559 227.007 60.5402 227.215 60.7933C227.448 61.0899 227.566 61.4615 227.545 61.8387C227.554 62.057 227.515 62.2746 227.431 62.4762C227.36 62.6434 227.254 62.7934 227.12 62.916C227.058 62.9704 226.992 63.0195 226.923 63.0626C226.858 63.1011 226.79 63.1331 226.719 63.1583C226.864 63.1854 227.004 63.2371 227.132 63.3113C227.344 63.4228 227.524 63.5875 227.654 63.7894C227.801 64.0421 227.871 64.3322 227.857 64.6244C227.87 64.9967 227.763 65.3633 227.552 65.6699C227.341 65.9552 227.037 66.158 226.694 66.2436C226.534 66.289 226.37 66.3189 226.204 66.3328C226.026 66.3328 225.842 66.3328 225.664 66.3328L222.708 66.3392ZM223.922 62.7694H225.263H225.6C225.701 62.7569 225.799 62.7312 225.893 62.6929C226.036 62.6408 226.155 62.539 226.23 62.4061C226.301 62.2682 226.338 62.1151 226.338 61.9598C226.338 61.7949 226.296 61.6327 226.217 61.4881C226.133 61.3531 226.005 61.2516 225.855 61.2013C225.731 61.1615 225.603 61.14 225.473 61.1375H223.922V62.7694ZM223.922 65.3958H225.613C225.704 65.4044 225.795 65.4044 225.886 65.3958C225.982 65.3865 226.076 65.3651 226.166 65.332C226.245 65.3118 226.318 65.2752 226.381 65.2247C226.445 65.1742 226.497 65.1108 226.535 65.0388C226.606 64.8987 226.643 64.7435 226.643 64.5862C226.652 64.3967 226.591 64.2106 226.471 64.0635C226.36 63.9316 226.208 63.8417 226.039 63.8085C225.957 63.7797 225.871 63.7646 225.785 63.7639H223.922V65.3958Z" fill="#0067AA"/>
<path d="M229.02 66.3392V60.1431H230.221V62.2977H231.441H232.001C232.176 62.301 232.35 62.3202 232.522 62.3551C232.828 62.4119 233.12 62.5289 233.38 62.6993C233.622 62.857 233.818 63.0772 233.946 63.3368C234.086 63.6421 234.154 63.976 234.143 64.3121C234.161 64.7739 234.012 65.2268 233.724 65.587C233.42 65.9139 233.022 66.1369 232.586 66.2245C232.408 66.2617 232.227 66.283 232.045 66.2882C231.842 66.2882 231.651 66.2882 231.48 66.2882L229.02 66.3392ZM230.221 65.3766H231.55C231.657 65.3825 231.766 65.3825 231.874 65.3766C231.988 65.3736 232.101 65.3565 232.211 65.3256C232.403 65.27 232.574 65.1566 232.7 65.0005C232.849 64.8223 232.928 64.5956 232.923 64.3631C232.932 64.1193 232.856 63.8799 232.706 63.6874C232.565 63.524 232.376 63.4101 232.166 63.3623C232.062 63.3355 231.956 63.3184 231.848 63.3113H231.55H230.221V65.3766Z" fill="#0067AA"/>
<path d="M235.059 66.3395L236.622 63.8917H237.894L236.343 66.3395H235.059ZM239.165 66.3395V64.1913H237.938H237.423C237.234 64.1813 237.045 64.16 236.858 64.1276C236.417 64.055 236.012 63.8428 235.701 63.522C235.54 63.3441 235.416 63.1357 235.336 62.9091C235.256 62.6826 235.222 62.4423 235.237 62.2024C235.214 61.7251 235.371 61.2567 235.675 60.8892C235.965 60.5592 236.357 60.335 236.788 60.2518C236.984 60.2071 237.184 60.1815 237.385 60.1753H237.906H240.36V66.3714L239.165 66.3395ZM237.836 63.2287H239.165V61.1124H237.525C237.405 61.1237 237.286 61.1451 237.169 61.1761C237.046 61.2161 236.932 61.2788 236.832 61.361C236.72 61.4531 236.629 61.5683 236.565 61.6988C236.494 61.8435 236.459 62.0031 236.463 62.1642C236.454 62.3973 236.534 62.6252 236.686 62.8016C236.825 62.9669 237.011 63.0849 237.22 63.1395C237.327 63.1714 237.438 63.1907 237.55 63.1969L237.836 63.2287Z" fill="#0067AA"/>
</svg>
