<svg width="223.72" height="115.66" xmlns="http://www.w3.org/2000/svg">
 <g>
  <title>Layer 1</title>
  <g data-name="Layer 2" id="Layer_2">
   <g data-name="Layer 1" id="Layer_1-2">
    <g data-name="Layer 1-2" id="Layer_1-2-2">
     <path id="svg_1" fill="#ffffff" d="m4.55,113.87l0,0.13a0.2,0.2 0 0 1 -0.15,0l-0.86,0a0.2,0.2 0 0 1 -0.15,0l0,-0.51a3.56,3.56 0 0 1 -2.21,-0.91a3.06,3.06 0 0 1 -0.56,-3.18a2.54,2.54 0 0 1 0.6,-0.91a3.19,3.19 0 0 1 1,-0.63a4.46,4.46 0 0 1 1.24,-0.33l0,-0.37a0.38,0.38 0 0 1 0.15,0l0.79,0a0.38,0.38 0 0 1 0.15,0l0,0.37a3.68,3.68 0 0 1 2.3,0.91a2.8,2.8 0 0 1 0.79,2.09a2.72,2.72 0 0 1 -0.22,1.16a2.61,2.61 0 0 1 -0.63,0.91a3.36,3.36 0 0 1 -1,0.63a4.87,4.87 0 0 1 -1.26,0.26l0.02,0.38zm1.93,-3.4a2.27,2.27 0 0 0 -0.11,-0.73a1.49,1.49 0 0 0 -0.33,-0.62a2,2 0 0 0 -0.59,-0.45a2.73,2.73 0 0 0 -0.88,-0.23l0,4.06a2.44,2.44 0 0 0 0.87,-0.23a1.85,1.85 0 0 0 0.59,-0.45a1.78,1.78 0 0 0 0.35,-0.63a2,2 0 0 0 0.11,-0.73m-3.15,-2a2.34,2.34 0 0 0 -0.79,0.24a2.19,2.19 0 0 0 -0.59,0.46a1.89,1.89 0 0 0 -0.35,0.6a2.22,2.22 0 0 0 -0.12,0.72a2.33,2.33 0 0 0 0.11,0.74a1.64,1.64 0 0 0 0.34,0.62a2,2 0 0 0 0.57,0.44a2.76,2.76 0 0 0 0.84,0.23l-0.01,-4.05zm9.18,4.07l-2.52,0l-0.44,1.35a0.26,0.26 0 0 1 -0.08,0.13a0.25,0.25 0 0 1 -0.17,0l-0.92,0a0.13,0.13 0 0 1 -0.14,-0.07a0.17,0.17 0 0 1 0,-0.14l2.14,-6.29a1.22,1.22 0 0 1 0.1,-0.24a0.37,0.37 0 0 1 0.12,-0.13a0.53,0.53 0 0 1 0.17,-0.08l0.68,0a0.77,0.77 0 0 1 0.44,0.1a0.85,0.85 0 0 1 0.22,0.38l2.2,6.28a0.17,0.17 0 0 1 0,0.14a0.21,0.21 0 0 1 -0.13,0.07l-0.91,0a0.54,0.54 0 0 1 -0.18,0a0.21,0.21 0 0 1 -0.1,-0.13l-0.48,-1.37zm-2.21,-1l1.91,0l-0.52,-1.66l-0.42,-1.41l0,0l-0.41,1.38l-0.56,1.69zm6.26,2.34l0,0.13a0.28,0.28 0 0 1 -0.18,0l-0.81,0a0.43,0.43 0 0 1 -0.16,0a0.32,0.32 0 0 1 -0.06,-0.17l0,-6.18a0.68,0.68 0 0 1 0.11,-0.42a0.56,0.56 0 0 1 0.44,-0.15l2.36,0a2.57,2.57 0 0 1 0.91,0.16a1.85,1.85 0 0 1 0.7,0.44a2.08,2.08 0 0 1 0.47,0.67a2.33,2.33 0 0 1 0.15,0.86a2.74,2.74 0 0 1 -0.08,0.64a2,2 0 0 1 -0.34,0.72a2,2 0 0 1 -0.71,0.59a2.59,2.59 0 0 1 -1.2,0.25l-1.61,0l0.01,2.46zm2.71,-4.55a2.41,2.41 0 0 0 0,-0.38a1,1 0 0 0 -0.19,-0.36a1.08,1.08 0 0 0 -0.38,-0.28a1.56,1.56 0 0 0 -0.6,-0.11l-1.54,0l0,2.21l1.49,0a1.23,1.23 0 0 0 0.94,-0.4a1.1,1.1 0 0 0 0.28,-0.78m8.16,0l-0.05,0l-0.53,1.34l-0.86,2.25a1.24,1.24 0 0 1 -0.22,0.34a0.56,0.56 0 0 1 -0.35,0.09l-0.43,0a0.56,0.56 0 0 1 -0.35,-0.09a1.08,1.08 0 0 1 -0.21,-0.34l-0.87,-2.1l-0.57,-1.33l0,0l0,4.62a0.28,0.28 0 0 1 -0.18,0l-0.82,0a0.28,0.28 0 0 1 -0.18,0a0.3,0.3 0 0 1 -0.05,-0.16l0,-6.1a0.66,0.66 0 0 1 0.12,-0.45a0.52,0.52 0 0 1 0.46,-0.14l0.41,0a0.71,0.71 0 0 1 0.38,0.08a0.91,0.91 0 0 1 0.24,0.37l1.19,2.9l0.61,1.54l0,0l0.62,-1.54l1.2,-2.94a0.57,0.57 0 0 1 0.65,-0.45l0.35,0a0.61,0.61 0 0 1 0.45,0.13a0.72,0.72 0 0 1 0.13,0.45l0,6.31a0.28,0.28 0 0 1 -0.18,0l-0.7,0a0.25,0.25 0 0 1 -0.17,0a0.35,0.35 0 0 1 -0.05,-0.16l-0.04,-4.62zm6.51,3.3l-2.54,0l-0.41,1.35a0.38,0.38 0 0 1 -0.09,0.13a0.28,0.28 0 0 1 -0.18,0l-0.94,0a0.13,0.13 0 0 1 -0.14,-0.07a0.17,0.17 0 0 1 0,-0.14l2.14,-6.29a2.44,2.44 0 0 1 0.1,-0.24a0.4,0.4 0 0 1 0.13,-0.13a0.71,0.71 0 0 1 0.18,-0.08l0.67,0a0.59,0.59 0 0 1 0.68,0.48l2.15,6.28a0.17,0.17 0 0 1 0,0.14a0.21,0.21 0 0 1 -0.14,0.07l-0.91,0a0.54,0.54 0 0 1 -0.18,0a0.19,0.19 0 0 1 -0.1,-0.13l-0.42,-1.37zm-2.2,-1l1.9,0l-0.52,-1.67l-0.41,-1.41l0,0l-0.41,1.38l-0.56,1.7zm10.55,1.48l0.39,0l0.22,0.07a0.35,0.35 0 0 1 0.11,0.1l0,0.25l-0.12,2.11l0,0.14a0.11,0.11 0 0 1 -0.11,0l-0.74,0c-0.1,0 -0.16,-0.05 -0.16,-0.17l-0.06,-1.5l-4.41,0a0.62,0.62 0 0 1 -0.47,-0.17a0.68,0.68 0 0 1 -0.16,-0.51l0,-6.21a0.17,0.17 0 0 1 0.14,0l0.84,0a0.2,0.2 0 0 1 0.15,0a0.15,0.15 0 0 1 0,0.13l0,5.76l3.08,0l0,-5.86a0.17,0.17 0 0 1 0.14,0l0.91,0a0.19,0.19 0 0 1 0.15,0l0,0.13l0.1,5.73zm6.74,0.86a0.48,0.48 0 0 1 0,0.17a0.24,0.24 0 0 1 -0.18,0.07l-2.86,0a2.34,2.34 0 0 1 -0.86,-0.16a1.41,1.41 0 0 1 -0.54,-0.4a1.29,1.29 0 0 1 -0.28,-0.56a2.44,2.44 0 0 1 -0.08,-0.66l0,-3.43a2.18,2.18 0 0 1 0.1,-0.67a1.63,1.63 0 0 1 0.31,-0.58a1.53,1.53 0 0 1 0.55,-0.39a2.08,2.08 0 0 1 0.81,-0.15l2.94,0a0.48,0.48 0 0 1 0,0.17l0,0.73a0.43,0.43 0 0 1 0,0.16l-2.85,0a0.59,0.59 0 0 0 -0.68,0.65l0,1l3.17,0a0.61,0.61 0 0 1 0,0.19l0,0.54a0.54,0.54 0 0 1 0,0.18l-3.17,0l0,1.44a0.66,0.66 0 0 0 0.17,0.48a0.68,0.68 0 0 0 0.51,0.16l2.9,0a0.31,0.31 0 0 1 0,0.19l0.04,0.87zm5.51,-3.58a1.86,1.86 0 0 1 0.49,0.29a1.7,1.7 0 0 1 0.33,0.42a1.64,1.64 0 0 1 0.18,0.48a1.88,1.88 0 0 1 0.07,0.53a2,2 0 0 1 -0.19,0.85a1.87,1.87 0 0 1 -0.49,0.66a2.21,2.21 0 0 1 -0.74,0.43a2.81,2.81 0 0 1 -0.91,0.16l-2.42,0a0.55,0.55 0 0 1 -0.44,-0.14a0.59,0.59 0 0 1 -0.12,-0.43l0,-5.86a0.59,0.59 0 0 1 0.12,-0.43a0.55,0.55 0 0 1 0.44,-0.14l2.3,0a3.47,3.47 0 0 1 0.85,0.1a2.39,2.39 0 0 1 0.69,0.31a1.65,1.65 0 0 1 0.45,0.53a1.82,1.82 0 0 1 0.16,0.8a1.42,1.42 0 0 1 -0.22,0.8a1.48,1.48 0 0 1 -0.56,0.55l0.01,0.09zm-0.16,1.64a1.12,1.12 0 0 0 -0.3,-0.78a1.19,1.19 0 0 0 -0.88,-0.31l-1.66,0l0,2.17l1.63,0a1.7,1.7 0 0 0 0.59,-0.1a1,1 0 0 0 0.55,-0.63a1.09,1.09 0 0 0 0,-0.36m-2.83,-2.09l1.9,0a0.85,0.85 0 0 0 0.31,-0.13a0.75,0.75 0 0 0 0.22,-0.25a0.84,0.84 0 0 0 0.08,-0.44a0.72,0.72 0 0 0 -0.23,-0.57a1,1 0 0 0 -0.63,-0.21l-1.6,0l-0.05,1.6zm10.32,-1.82a0.29,0.29 0 0 1 0,0.13l-2.07,0l0,5.87a0.28,0.28 0 0 1 -0.18,0l-1,0a0.27,0.27 0 0 1 -0.06,-0.17l0,-5.67l-2,0a0.15,0.15 0 0 1 0,-0.13l0,-0.68a0.22,0.22 0 0 1 0,-0.16l5.24,0a0.22,0.22 0 0 1 0,0.16l0.07,0.65zm5.51,0.86l-0.87,1.5l-2,3.31a1.44,1.44 0 0 1 -0.27,0.34a0.63,0.63 0 0 1 -0.38,0.09l-0.41,0a0.56,0.56 0 0 1 -0.46,-0.16a0.62,0.62 0 0 1 -0.11,-0.44l0,-6.37a0.17,0.17 0 0 1 0.14,0l0.83,0a0.2,0.2 0 0 1 0.15,0a0.15,0.15 0 0 1 0,0.13l0,5l0,0l0.83,-1.39l2,-3.37a1.27,1.27 0 0 1 0.27,-0.34a0.6,0.6 0 0 1 0.37,-0.09l0.36,0a0.58,0.58 0 0 1 0.45,0.15a0.64,0.64 0 0 1 0.13,0.46l0,6.18a0.17,0.17 0 0 1 0,0.14l-1.06,0l0,-5.18l0.03,0.04zm7.83,5l0,0.14a0.33,0.33 0 0 1 -0.14,0l-0.83,0a0.2,0.2 0 0 1 -0.15,0l0,-2.59c-0.2,0 -0.4,0.06 -0.6,0.07l-0.65,0a3.22,3.22 0 0 1 -2.15,-0.6a2.2,2.2 0 0 1 -0.7,-1.76l0,-2a0.22,0.22 0 0 1 0.16,0l0.83,0a0.17,0.17 0 0 1 0.14,0a0.15,0.15 0 0 1 0,0.13l0,1.75a1.32,1.32 0 0 0 0.43,1.1a2.22,2.22 0 0 0 1.33,0.33a5.81,5.81 0 0 0 0.59,0a4.85,4.85 0 0 0 0.53,-0.08l0,-3.27a0.19,0.19 0 0 1 0.15,0l0.83,0a0.17,0.17 0 0 1 0.14,0l0,0.13l0.09,6.65zm6.48,-0.06a0.25,0.25 0 0 1 0,0.17a0.27,0.27 0 0 1 -0.16,0.06l-2.91,0a2.08,2.08 0 0 1 -0.86,-0.15a1.4,1.4 0 0 1 -0.83,-1a3,3 0 0 1 -0.08,-0.66l0,-3.41a2.52,2.52 0 0 1 0.09,-0.67a1.63,1.63 0 0 1 0.31,-0.58a1.53,1.53 0 0 1 0.55,-0.39a1.93,1.93 0 0 1 0.82,-0.15l2.92,0a0.48,0.48 0 0 1 0,0.17l0,0.81a0.22,0.22 0 0 1 0,0.16l-2.8,0a0.7,0.7 0 0 0 -0.53,0.17a0.77,0.77 0 0 0 -0.16,0.48l0,1l3.17,0a0.31,0.31 0 0 1 0,0.19l0,0.54a0.28,0.28 0 0 1 0,0.18l-3.16,0l0,1.44a0.78,0.78 0 0 0 0.17,0.48a0.73,0.73 0 0 0 0.53,0.16l2.87,0a0.61,0.61 0 0 1 0,0.19l0.06,0.81zm4.35,-0.78a3.32,3.32 0 0 0 0.83,-0.11a6.35,6.35 0 0 0 0.7,-0.23l0.2,0a0.2,0.2 0 0 1 0.08,0.12l0.26,0.56a0.34,0.34 0 0 1 0,0.2a0.24,0.24 0 0 1 -0.1,0.1a3.31,3.31 0 0 1 -1.1,0.4a8,8 0 0 1 -1.1,0.1a2.85,2.85 0 0 1 -2.27,-0.88a3.91,3.91 0 0 1 -0.78,-2.62a4.76,4.76 0 0 1 0.24,-1.5a3.35,3.35 0 0 1 0.63,-1.1a2.77,2.77 0 0 1 1,-0.74a3.09,3.09 0 0 1 1.28,-0.27a7,7 0 0 1 0.91,0.08a3.54,3.54 0 0 1 1,0.34a0.22,0.22 0 0 1 0.11,0.1a0.31,0.31 0 0 1 0,0.19l-0.28,0.57a0.37,0.37 0 0 1 -0.07,0.14l-0.15,0a4,4 0 0 0 -0.67,-0.21a3.38,3.38 0 0 0 -0.72,-0.08a1.64,1.64 0 0 0 -0.86,0.21a1.76,1.76 0 0 0 -0.59,0.56a2.71,2.71 0 0 0 -0.35,0.82a3.41,3.41 0 0 0 -0.11,1a4.7,4.7 0 0 0 0.09,0.92a2.27,2.27 0 0 0 0.32,0.75a1.58,1.58 0 0 0 0.61,0.51a2.07,2.07 0 0 0 0.95,0.19m7.06,-2.7a1.82,1.82 0 0 1 0.43,0.19a1.38,1.38 0 0 1 0.27,0.27a1.11,1.11 0 0 1 0.18,0.34a2.23,2.23 0 0 0 0.12,0.41l0.62,2.3a0.24,0.24 0 0 1 0,0.12a0.21,0.21 0 0 1 -0.15,0.08l-1,0a0.19,0.19 0 0 1 -0.09,-0.12l-0.59,-2.2a1.14,1.14 0 0 0 -0.44,-0.72a1.64,1.64 0 0 0 -0.82,-0.18l-1.13,0l0,3.17l-1.17,0l0,-6.88a0.15,0.15 0 0 1 0.13,0l0.85,0a0.19,0.19 0 0 1 0.15,0l0,2.71l1.42,0a1.09,1.09 0 0 0 0.34,-0.13a1.18,1.18 0 0 0 0.3,-0.29a1.55,1.55 0 0 0 0.22,-0.51l0.44,-1.67c0,-0.07 0,-0.11 0.08,-0.13l0.92,0c0.08,0 0.13,0 0.15,0.08a0.24,0.24 0 0 1 0,0.12l-0.51,1.7a2.34,2.34 0 0 1 -0.3,0.73a1.66,1.66 0 0 1 -0.52,0.5l0.1,0.11zm6.5,2.2l-2.6,0l-0.47,1.36a0.26,0.26 0 0 1 -0.08,0.13a0.25,0.25 0 0 1 -0.17,0l-0.91,0c-0.07,0 -0.12,0 -0.14,-0.07a0.17,0.17 0 0 1 0,-0.14l2.14,-6.29a2.44,2.44 0 0 1 0.1,-0.24a0.4,0.4 0 0 1 0.13,-0.13a0.37,0.37 0 0 1 0.18,-0.08l0.66,0a0.75,0.75 0 0 1 0.44,0.1a0.78,0.78 0 0 1 0.23,0.38l2.15,6.28a0.17,0.17 0 0 1 0,0.14a0.21,0.21 0 0 1 -0.13,0.07l-0.9,0a0.54,0.54 0 0 1 -0.18,0a0.24,0.24 0 0 1 -0.11,-0.13l-0.34,-1.38zm-2.2,-1l1.91,0l-0.52,-1.66l-0.46,-1.52l0,0l-0.4,1.38l-0.53,1.8zm8.82,-0.34l-1.32,0a1.53,1.53 0 0 0 -0.78,0.19a1.11,1.11 0 0 0 -0.45,0.72l-0.49,1.83a0.18,0.18 0 0 1 -0.11,0.14l-1,0c-0.09,0 -0.15,0 -0.16,-0.07a0.33,0.33 0 0 1 0,-0.14l0.53,-2a1.83,1.83 0 0 1 0.3,-0.63a1.28,1.28 0 0 1 0.6,-0.4l0,0a1.59,1.59 0 0 1 -0.82,-0.67a2,2 0 0 1 -0.25,-1.17a2,2 0 0 1 0.16,-0.81a1.79,1.79 0 0 1 0.44,-0.64a2,2 0 0 1 0.69,-0.41a2.8,2.8 0 0 1 0.91,-0.15l2.33,0a0.56,0.56 0 0 1 0.44,0.14a0.64,0.64 0 0 1 0.12,0.43l0,6.34l-1.15,0l0,-0.13l0.01,-2.57zm-2.61,-2a1,1 0 0 0 0.26,0.69a1.16,1.16 0 0 0 0.87,0.29l1.47,0l0,-2.06l-1.6,0a1.11,1.11 0 0 0 -0.54,0.1a0.78,0.78 0 0 0 -0.33,0.24a0.76,0.76 0 0 0 -0.17,0.32a1.71,1.71 0 0 0 0,0.32m14.85,1.17a1.69,1.69 0 0 1 0.41,0.19a1.44,1.44 0 0 1 0.28,0.27a2.21,2.21 0 0 1 0.18,0.34a1.65,1.65 0 0 0 0.12,0.41l0.62,2.3a0.29,0.29 0 0 1 0,0.13a0.22,0.22 0 0 1 -0.15,0.07l-1,0a0.16,0.16 0 0 1 -0.09,-0.12l-0.59,-2.2a1.14,1.14 0 0 0 -0.44,-0.72a1.63,1.63 0 0 0 -0.81,-0.18l-1.1,0l0,3.14a0.38,0.38 0 0 1 -0.15,0l-0.84,0a0.33,0.33 0 0 1 -0.14,0l0,-6.88a0.17,0.17 0 0 1 0.14,0l0.86,0a0.15,0.15 0 0 1 0.13,0l0,2.71l1.42,0a1,1 0 0 0 0.33,-0.13a1.18,1.18 0 0 0 0.3,-0.29a1.55,1.55 0 0 0 0.22,-0.51l0.43,-1.67c0,-0.07 0,-0.11 0.09,-0.12l0.92,0c0.09,0 0.14,0 0.15,0.07a0.24,0.24 0 0 1 0,0.12l-0.53,1.8a2.45,2.45 0 0 1 -0.3,0.73a1.66,1.66 0 0 1 -0.52,0.5l0.06,0.04zm8.66,0.21a4.13,4.13 0 0 1 -0.76,2.66a3.22,3.22 0 0 1 -4.53,0a4.06,4.06 0 0 1 -0.75,-2.66a5,5 0 0 1 0.22,-1.53a3.46,3.46 0 0 1 0.63,-1.1a2.64,2.64 0 0 1 1,-0.7a3,3 0 0 1 1.11,-0.25a3.09,3.09 0 0 1 1.31,0.25a2.36,2.36 0 0 1 1,0.7a3.32,3.32 0 0 1 0.58,1.1a5.31,5.31 0 0 1 0.18,1.48m-1.24,0a7.61,7.61 0 0 0 -0.08,-0.95a2.49,2.49 0 0 0 -0.28,-0.79a1.34,1.34 0 0 0 -0.53,-0.55a1.69,1.69 0 0 0 -0.94,-0.24a1.51,1.51 0 0 0 -1.34,0.73a2.12,2.12 0 0 0 -0.33,0.77a3.41,3.41 0 0 0 -0.11,1a6,6 0 0 0 0.07,1a2.28,2.28 0 0 0 0.3,0.8a1.58,1.58 0 0 0 0.55,0.51a1.93,1.93 0 0 0 0.85,0.17a1.58,1.58 0 0 0 0.85,-0.21a1.45,1.45 0 0 0 0.55,-0.55a2.21,2.21 0 0 0 0.29,-0.79a4.88,4.88 0 0 0 0.09,-0.93m8.4,-1.32l-0.07,0l-0.52,1.34l-0.88,2.21a0.81,0.81 0 0 1 -0.21,0.34a0.54,0.54 0 0 1 -0.35,0.09l-0.45,0a0.53,0.53 0 0 1 -0.35,-0.09a1,1 0 0 1 -0.2,-0.34l-0.87,-2.1l-0.54,-1.33l-0.06,0l0,4.58a0.54,0.54 0 0 1 -0.18,0l-0.71,0a0.49,0.49 0 0 1 -0.17,0a0.36,0.36 0 0 1 0,-0.17l0,-6a0.66,0.66 0 0 1 0.12,-0.45a0.54,0.54 0 0 1 0.45,-0.14l0.41,0a0.71,0.71 0 0 1 0.38,0.08a0.84,0.84 0 0 1 0.25,0.37l1.18,2.9l0.6,1.53l0,0l0.62,-1.54l1.17,-2.89a0.72,0.72 0 0 1 0.25,-0.37a0.78,0.78 0 0 1 0.4,-0.08l0.25,0a0.63,0.63 0 0 1 0.46,0.13a0.72,0.72 0 0 1 0.13,0.45l0,6.17c0,0.08 0,0.15 -0.06,0.16a0.25,0.25 0 0 1 -0.17,0l-0.71,0a0.22,0.22 0 0 1 -0.16,0l0,-0.16l-0.01,-4.69zm8.34,4.62a0.17,0.17 0 0 1 0,0.14a0.43,0.43 0 0 1 -0.16,0l-0.83,0a0.33,0.33 0 0 1 -0.14,0l0,-5.77l-3.08,0l0,5.83l-1.13,0l0,-6.25a0.67,0.67 0 0 1 0.16,-0.51a0.73,0.73 0 0 1 0.47,-0.17l4.23,0c0.42,0 0.64,0.22 0.64,0.68l-0.16,6.05zm5.34,-1.35l-2.52,0l-0.43,1.35a0.2,0.2 0 0 1 -0.09,0.13a0.25,0.25 0 0 1 -0.17,0l-0.9,0c-0.08,0 -0.12,0 -0.14,-0.07a0.17,0.17 0 0 1 0,-0.14l2.08,-6.15a1.86,1.86 0 0 1 0.1,-0.25a0.49,0.49 0 0 1 0.12,-0.13a0.67,0.67 0 0 1 0.18,-0.07l0.7,0a0.78,0.78 0 0 1 0.45,0.09a0.89,0.89 0 0 1 0.23,0.38l2.2,6.29a0.17,0.17 0 0 1 0,0.14a0.21,0.21 0 0 1 -0.13,0.06l-0.92,0a0.25,0.25 0 0 1 -0.17,0a0.17,0.17 0 0 1 -0.1,-0.13l-0.49,-1.5zm-2.2,-1l1.91,0l-0.52,-1.67l-0.42,-1.41l0,0l-0.41,1.38l-0.56,1.7zm10.58,2.33l0,0.17a0.28,0.28 0 0 1 -0.18,0l-0.75,0a0.28,0.28 0 0 1 -0.18,0a0.25,0.25 0 0 1 0,-0.17l0,-2.91l-3.09,0l0,3.08a0.28,0.28 0 0 1 -0.18,0l-0.93,0a0.3,0.3 0 0 1 -0.07,-0.17l0,-6.48c0,-0.08 0,-0.14 0.07,-0.16a0.22,0.22 0 0 1 0.16,0l0.77,0a0.28,0.28 0 0 1 0.18,0l0,2.72l3.09,0l0,-2.56a0.22,0.22 0 0 1 0,-0.16a0.28,0.28 0 0 1 0.18,0l0.75,0a0.28,0.28 0 0 1 0.18,0l0,6.59l0,0.05zm6,-4.9l-0.88,1.5l-2,3.3a1.35,1.35 0 0 1 -0.28,0.35a0.56,0.56 0 0 1 -0.38,0.08l-0.35,0a0.52,0.52 0 0 1 -0.46,-0.15a0.68,0.68 0 0 1 -0.12,-0.44l0,-6.35a0.17,0.17 0 0 1 0.14,0l1,0a0.19,0.19 0 0 1 0.15,0a0.15,0.15 0 0 1 0,0.13l0,5l0,0l0.81,-1.39l2,-3.37a1.7,1.7 0 0 1 0.26,-0.34a0.73,0.73 0 0 1 0.38,-0.09l0.36,0a0.6,0.6 0 0 1 0.46,0.15a0.74,0.74 0 0 1 0.12,0.46l0,6.18a0.17,0.17 0 0 1 0,0.14l-1.12,0a0.17,0.17 0 0 1 0,-0.14l0,-5l-0.09,-0.02z" class="cls-1"/>
     <path id="svg_2" fill="#ffffff" d="m169,111.15l-1.19,0a1.58,1.58 0 0 0 -0.8,0.19a1.11,1.11 0 0 0 -0.45,0.72l-0.49,1.82a0.15,0.15 0 0 1 -0.11,0.14l-1,0c-0.08,0 -0.13,0 -0.14,-0.07a0.33,0.33 0 0 1 0,-0.14l0.52,-2a2,2 0 0 1 0.29,-0.63a1.26,1.26 0 0 1 0.61,-0.4l0,0a1.64,1.64 0 0 1 -0.84,-0.67a2.12,2.12 0 0 1 -0.12,-1.86a1.7,1.7 0 0 1 0.44,-0.64a2.11,2.11 0 0 1 0.69,-0.41a2.55,2.55 0 0 1 0.91,-0.14l2.33,0a0.53,0.53 0 0 1 0.44,0.13a0.64,0.64 0 0 1 0.12,0.43l0,6.38a0.38,0.38 0 0 1 -0.15,0l-0.83,0a0.43,0.43 0 0 1 -0.16,0l0,-0.13l-0.07,-2.72zm-2.63,-2a1,1 0 0 0 0.27,0.69a1.16,1.16 0 0 0 0.87,0.29l1.46,0l0,-2l-1.57,0a1.13,1.13 0 0 0 -0.54,0.1a0.85,0.85 0 0 0 -0.33,0.24a0.74,0.74 0 0 0 -0.16,0.32a0.86,0.86 0 0 0 0,0.32" class="cls-1"/>
     <path id="svg_3" fill="#ffffff" d="m25.83,92a3,3 0 0 0 -2.75,-2.73c-2.21,0 -3.39,4.14 -8.65,4.14s-8.67,-4.26 -8.67,-9.32s3.41,-9.27 8.67,-9.27c4.18,0 5.68,2.83 7.57,2.83a2.56,2.56 0 0 0 2.59,-2.5a2.83,2.83 0 0 0 -0.88,-2c-2.34,-2.46 -6,-3.46 -9.28,-3.46a14.44,14.44 0 0 0 0,28.87a14.08,14.08 0 0 0 10.82,-5a2.21,2.21 0 0 0 0.59,-1.5" class="cls-1"/>
     <path id="svg_4" fill="#ffffff" d="m48.14,86.54l-11.47,0a2.58,2.58 0 0 1 -2.6,-2.54l0,0a2.63,2.63 0 0 1 2.6,-2.64l11.42,0a8.45,8.45 0 0 0 -8.34,-6.55c-4.18,0 -5.68,2.84 -7.56,2.84a2.55,2.55 0 0 1 -2.59,-2.51a2.77,2.77 0 0 1 0.87,-2a12.82,12.82 0 0 1 9.27,-3.46a14.43,14.43 0 1 1 0,28.86a14.07,14.07 0 0 1 -10.82,-5a2.25,2.25 0 0 1 -0.58,-1.5a2.94,2.94 0 0 1 2.76,-2.76c2.26,0 3.38,4.14 8.64,4.14a8.49,8.49 0 0 0 8.39,-6.82" class="cls-1"/>
     <path id="svg_5" fill="#ffffff" d="m81.07,95.69a2.58,2.58 0 0 1 -4.93,1.11l-7.8,-18.68l-7.72,18.65a2.5,2.5 0 0 1 -2.39,1.51a2.66,2.66 0 0 1 -2.54,-2.63a2.92,2.92 0 0 1 0.2,-1.05l10.11,-23.34a2.6,2.6 0 0 1 4.72,0l10.14,23.34a2.47,2.47 0 0 1 0.26,1.1" class="cls-1"/>
     <path id="svg_6" fill="#ffffff" d="m107.81,90.05a7,7 0 0 0 -5.18,-7a6.74,6.74 0 0 0 3.72,-6.18c0,-4 -3.31,-6.77 -9,-6.77l-9.63,0a2.73,2.73 0 0 0 -2.72,2.71l0,22.33a2.78,2.78 0 0 0 2.74,2.8l10,0c6.42,0 10.14,-3.46 10.14,-7.89m-7,-12.13a2.73,2.73 0 0 1 -2.64,2.81l-7.67,0l0,-5.53l7.3,0a2.63,2.63 0 0 1 2.94,2.29a2.42,2.42 0 0 1 0,0.38m1.42,11.37a3.51,3.51 0 0 1 -3.46,3.57a2.36,2.36 0 0 1 -0.38,0l-7.82,0l0,-7l7.89,0a3.47,3.47 0 0 1 3.78,3.12c0,0.11 0,0.22 0,0.33" class="cls-1"/>
     <path id="svg_7" fill="#ffffff" d="m136.22,72.35l0,23.3a2.68,2.68 0 0 1 -2.65,2.63a2.62,2.62 0 0 1 -2.57,-2.63l0,-16.12c-8.57,11 -13.65,17.8 -13.65,17.8a2.57,2.57 0 0 1 -1.89,1a2.66,2.66 0 0 1 -2.71,-2.62l0,0l0,-23.36a2.62,2.62 0 0 1 5.23,0l0,16.12l13.62,-17.75a2.4,2.4 0 0 1 2,-1a2.65,2.65 0 0 1 2.64,2.6" class="cls-1"/>
     <path id="svg_8" fill="#ffffff" d="m170.18,95.68l0,-23.3a2.67,2.67 0 0 0 -2.63,-2.62a2.77,2.77 0 0 0 -2.43,1.63l-9.12,18.67l-9.2,-18.68a2.75,2.75 0 0 0 -2.42,-1.63a2.59,2.59 0 0 0 -2.58,2.59l0,23.31a2.64,2.64 0 0 0 2.58,2.63a2.67,2.67 0 0 0 2.62,-2.63l0,-12.33l6.76,13.53a2.2,2.2 0 0 0 2.24,1.42a2.32,2.32 0 0 0 2.2,-1.39l6.73,-13.57l0,12.37a2.59,2.59 0 0 0 2.59,2.6a2.65,2.65 0 0 0 2.64,-2.6" class="cls-1"/>
     <circle id="svg_9" fill="#ffffff" r="8.47" cy="22.62" cx="215.25" class="cls-1"/>
     <path id="svg_10" fill="#ffffff" d="m221.65,56.61l0.23,-0.27l0.25,-0.34l0.23,-0.35l0.19,-0.3l0.23,-0.43l0.13,-0.27a4.4,4.4 0 0 0 0.21,-0.5l0.09,-0.23c0.07,-0.17 0.12,-0.36 0.18,-0.55l0.06,-0.24a3.61,3.61 0 0 1 0.12,-0.55a0.72,0.72 0 0 0 0,-0.3a1.73,1.73 0 0 1 0.06,-0.51c0.06,-0.17 0,-0.25 0,-0.37l0,-1.28a0.82,0.82 0 0 0 -0.06,-0.38c0,-0.12 0,-0.31 -0.07,-0.46s0,-0.2 -0.08,-0.3a2,2 0 0 1 -0.14,-0.53l-0.08,-0.22c-0.07,-0.2 -0.14,-0.38 -0.22,-0.57l-0.09,-0.19a6.19,6.19 0 0 0 -0.3,-0.57l0,-0.06l-0.1,-0.14c-0.09,-0.17 -0.21,-0.33 -0.32,-0.5l-0.17,-0.2l-0.31,-0.39l-0.26,-0.27l-0.3,-0.31l-0.3,-0.27l-0.33,-0.27l-0.3,-0.22l-0.4,-0.27l-0.26,-0.15l-0.48,-0.26l-0.21,-0.1l-0.55,-0.25l-0.17,-0.06l-0.6,-0.19l-0.19,0l-0.6,-0.13l-0.23,0l-0.57,-0.07l-2,0l-0.51,0.09l-0.25,0.07l-0.56,0.15l-0.19,0.07l-0.61,0.23l-0.16,0.07l-0.6,0.3l0,0l-0.15,0.1l-0.47,0.3l-0.26,0.19l-0.37,0.29l-0.27,0.25l-0.33,0.31l-0.24,0.27l-0.29,0.34l-0.22,0.29l-0.26,0.38l-0.18,0.29c-0.07,0.14 -0.15,0.28 -0.23,0.41l-0.14,0.31c-0.07,0.14 -0.13,0.3 -0.2,0.44l-0.12,0.32a1.68,1.68 0 0 1 -0.16,0.46l0,0.11a11.91,11.91 0 0 1 -14.33,8.29l-0.11,0a6.66,6.66 0 0 0 -0.8,-0.16l-0.25,0a7.52,7.52 0 0 0 -2,0l-0.18,0a7.34,7.34 0 0 0 -0.84,0.17l-0.1,0a11.93,11.93 0 0 1 -14.34,-8.28l0,0a8.12,8.12 0 0 0 -0.79,-1.9l-0.08,-0.13q-0.23,-0.37 -0.48,-0.72l-0.11,-0.16a9.29,9.29 0 0 0 -0.65,-0.74l0,0a11.93,11.93 0 0 1 0,-16.55a9.28,9.28 0 0 0 0.71,-0.82l0.12,-0.17a7.29,7.29 0 0 0 0.49,-0.74l0.08,-0.13a8,8 0 0 0 0.45,-0.93l0,-0.09c0.11,-0.29 0.21,-0.57 0.29,-0.86l0,-0.12a11.92,11.92 0 0 1 14.33,-8.17l0.07,0l0.65,0.14l0.22,0l0.57,0.06l1.9,0l0.56,-0.1l0.21,0l0.58,-0.16l0.19,-0.07l0.59,-0.23l0.19,-0.09l0.53,-0.27l0.07,0l0.15,-0.1l0.47,-0.3l0.3,-0.22l0.33,-0.27l0.34,-0.3l0.24,-0.25l0.33,-0.36l0.21,-0.26l0.29,-0.38l0.2,-0.3l0.22,-0.36l0.2,-0.37l0.16,-0.33c0.07,-0.14 0.13,-0.28 0.19,-0.43l0.11,-0.31a2.53,2.53 0 0 1 0.15,-0.47c0.05,-0.17 0.06,-0.22 0.09,-0.33a4,4 0 0 0 0.1,-0.46a1.25,1.25 0 0 1 0.06,-0.4a1.13,1.13 0 0 0 0,-0.41l0,-1.73a1.32,1.32 0 0 0 -0.08,-0.51c-0.08,-0.18 0,-0.22 -0.06,-0.33a3.83,3.83 0 0 1 -0.11,-0.43a2.34,2.34 0 0 0 -0.11,-0.4a2.53,2.53 0 0 0 -0.12,-0.33c0,-0.11 -0.11,-0.31 -0.18,-0.47l-0.13,-0.26c-0.07,-0.17 -0.16,-0.33 -0.25,-0.5l0,-0.07l-0.12,-0.19c-0.09,-0.14 -0.18,-0.29 -0.28,-0.43l-0.24,-0.33l-0.24,-0.3l-0.33,-0.36l-0.21,-0.22l-0.4,-0.37l-0.22,-0.17l-0.42,-0.31l-0.25,-0.18l-0.48,-0.4l-0.32,-0.15l-0.38,-0.16l-0.4,-0.16l-0.35,-0.13l-0.43,-0.15l-0.36,-0.08l-0.43,-0.1l-0.41,-0.07l-2.06,0l-0.51,0.08l-0.33,0.05l-0.43,0.11l-0.4,0.11l-0.35,0.14l-0.44,0.17l-0.3,0.14l-0.42,0.2l-0.09,0l-0.22,0.14l-0.38,0.24l-0.29,0.22l-0.36,0.29l-0.26,0.23l-0.35,0.34l-0.2,0.22l-0.35,0.41l-0.14,0.2a5.34,5.34 0 0 0 -0.35,0.48l-0.1,0.16c-0.11,0.19 -0.22,0.37 -0.32,0.56l-0.06,0.13c-0.1,0.21 -0.2,0.42 -0.28,0.63l0,0.11a7,7 0 0 0 -0.22,0.69l0,0a11.83,11.83 0 0 1 -5.51,7a11.84,11.84 0 0 1 -8.77,1.26l-0.25,0l-0.65,-0.13l-0.3,0a8.46,8.46 0 0 0 -9.44,7.34a9.42,9.42 0 0 0 -0.06,1.06a6,6 0 0 0 0,0.85l0,0.27a1.6,1.6 0 0 0 0.07,0.53a5.43,5.43 0 0 1 0.16,0.61c0,0.2 0,0.12 0,0.19a5.49,5.49 0 0 0 0.24,0.68l0,0.08c0.1,0.23 0.21,0.46 0.32,0.68l0,0.06c0.12,0.22 0.24,0.43 0.38,0.64l0,0.06c0.14,0.21 0.28,0.41 0.44,0.61l0,0.16a5.6,5.6 0 0 0 0.56,0.63a11.93,11.93 0 0 1 0.13,16.37l-0.06,0.07c-0.22,0.22 -0.44,0.46 -0.64,0.7l-0.21,0.28c-0.15,0.21 -0.3,0.43 -0.44,0.65l-0.1,0.15l0,0.15c-0.07,0.14 -0.14,0.27 -0.2,0.41a2.76,2.76 0 0 0 -0.17,0.35c0,0.13 -0.1,0.26 -0.14,0.39l-0.16,0.41c0,0.13 0,0.22 -0.09,0.32s-0.08,0.33 -0.13,0.49a0.59,0.59 0 0 0 0,0.27c0,0.09 -0.06,0.37 -0.09,0.57a1,1 0 0 0 0,0.26l0,1.79a0.87,0.87 0 0 0 0.07,0.41a1.73,1.73 0 0 1 0.1,0.45c0,0.15 0,0.22 0.09,0.33a1.59,1.59 0 0 1 0.15,0.48l0.11,0.31c0.06,0.15 0.12,0.3 0.19,0.44l0.15,0.32l0.21,0.37l0.21,0.36l0.21,0.3l0.28,0.38l0.21,0.25l0.33,0.37l0.23,0.23l0.35,0.33l0.29,0.23l0.4,0.18l0.38,0.24l0.23,0.15l0.1,0l0.39,0.2l0.34,0.17l0.44,0.17l0.32,0.12l0.47,0.14l0.32,0.07l0.49,0.09l2.84,0l0.5,-0.1l0.16,0a11.91,11.91 0 0 1 14.34,8.14l0,0.12a6.46,6.46 0 0 0 0.31,0.94l0,0a7.71,7.71 0 0 0 0.49,1l0,0l0.08,0.11c0.11,0.19 0.23,0.37 0.35,0.54l0.17,0.22l0.34,0.42l0.23,0.26l0.32,0.33l0.29,0.26l0.32,0.28l0.32,0.24l0.35,0.24l0.32,0.2l0.4,0.22l0.32,0.16l0.44,0.18l0.32,0.13l0.45,0.14l0.36,0.09l0.42,0.09l0.44,0.06l2,0l0.59,-0.09l0.25,0l0.51,-0.13l0.32,-0.09l0.42,-0.15l0.37,-0.15l0.36,-0.17l0.4,-0.2l0.11,0l0.28,-0.18l0.31,-0.2l0.38,-0.28l0.27,-0.21l0.35,-0.32l0.24,-0.24l0.3,-0.33l0.25,-0.3l0.24,-0.31l0.25,-0.36l0.18,-0.29l0.24,-0.44l0.13,-0.27c0.08,-0.16 0.15,-0.32 0.22,-0.49l0.1,-0.27a4,4 0 0 0 0.17,-0.52l0,-0.1a11.91,11.91 0 0 1 14.33,-8.28l0.2,0l0.44,0.09l0.39,0.06l2.44,0l0.54,-0.1l0.25,-0.07l0.55,-0.15l0.26,-0.08l0.52,-0.2l0.28,-0.13l0.44,-0.22l0.08,0l0.22,-0.15l0.4,-0.25l0.33,-0.25l0.31,-0.25l0.34,-0.31l0.26,-0.25l0.47,-0.38z" class="cls-1"/>
    </g>
   </g>
  </g>
 </g>

</svg>