<svg width="249" height="72" xmlns="http://www.w3.org/2000/svg" fill="none">

 <g>
  <title>Layer 1</title>
  <path id="svg_1" fill="#ffffff" d="m18.3666,62.4292c-0.0269,-0.488 -0.2323,-0.949 -0.577,-1.2946c-0.3446,-0.3456 -0.8043,-0.5516 -1.2909,-0.5786c-1.5209,0 -2.2864,2.8047 -5.8488,2.8047c-3.56229,0 -5.86912,-2.8866 -5.86912,-6.3156c0,-3.4291 2.35787,-6.2337 5.88952,-6.2337c2.8274,0 3.8482,1.9243 5.1037,1.9243c0.4567,0.0055 0.8972,-0.1698 1.2259,-0.4879c0.3286,-0.3181 0.519,-0.7533 0.5297,-1.2112c-0.0015,-0.2553 -0.0548,-0.5077 -0.1565,-0.7417c-0.1018,-0.2341 -0.25,-0.4449 -0.4355,-0.6197c-0.8402,-0.787 -1.8275,-1.3993 -2.905,-1.8016c-1.0774,-0.4024 -2.2236,-0.5867 -3.3725,-0.5425c-1.6384,-0.0124 -3.25359,0.3891 -4.69657,1.1675c-1.44297,0.7784 -2.66726,1.9086 -3.55995,3.2864c-0.89269,1.3778 -1.42504,2.9589 -1.54796,4.5974c-0.12291,1.6384 0.16757,3.2816 0.84466,4.7778c0.67708,1.4963 1.71898,2.7974 3.02958,3.7836c1.3106,0.9861 2.84772,1.6254 4.46958,1.8589c1.62186,0.2335 3.27626,0.0537 4.81056,-0.5228c1.5343,-0.5765 2.8992,-1.5312 3.9687,-2.7759c0.2558,-0.2793 0.3978,-0.6445 0.3981,-1.0236"/>
  <path id="svg_2" fill="#ffffff" d="m33.4833,58.7439l-7.7676,0c-0.2336,0.0015 -0.4651,-0.0441 -0.6807,-0.134c-0.2157,-0.0899 -0.4112,-0.2223 -0.5749,-0.3893c-0.1637,-0.1671 -0.2923,-0.3654 -0.3782,-0.5831c-0.0859,-0.2178 -0.1274,-0.4507 -0.1219,-0.6848c0,-0.4689 0.1843,-0.9188 0.513,-1.2523c0.3286,-0.3334 0.7752,-0.5234 1.2427,-0.5288l7.7268,0c-0.3095,-1.2603 -1.0365,-2.378 -2.0619,-3.1701c-1.0254,-0.7922 -2.2885,-1.2119 -3.5827,-1.1904c-2.8172,0 -3.8379,1.9243 -5.1036,1.9243c-0.4558,0.0055 -0.8952,-0.1701 -1.2222,-0.4885c-0.3271,-0.3184 -0.5152,-0.7536 -0.5232,-1.2106c0.0015,-0.2553 0.0548,-0.5077 0.1565,-0.7417c0.1018,-0.234 0.25,-0.4449 0.4355,-0.6197c0.8382,-0.7876 1.8234,-1.4011 2.899,-1.8051c1.0757,-0.4041 2.2204,-0.5907 3.3682,-0.5492c2.5348,0.0822 4.9382,1.1498 6.7023,2.9769c1.764,1.8271 2.7503,4.2706 2.7503,6.8138c0,2.5432 -0.9863,4.9867 -2.7503,6.8138c-1.7641,1.8272 -4.1675,2.8947 -6.7023,2.9769c-1.3927,0.003 -2.7691,-0.3008 -4.0319,-0.8897c-1.2629,-0.589 -2.3813,-1.4489 -3.2764,-2.5189c-0.2602,-0.2764 -0.403,-0.6435 -0.3981,-1.0236c0.0244,-0.4871 0.2277,-0.9479 0.5707,-1.2938c0.343,-0.3458 0.8014,-0.5522 1.287,-0.5793c1.5311,0 2.2966,2.8046 5.8487,2.8046c1.3344,0.0105 2.6309,-0.4441 3.6679,-1.2862c1.0371,-0.842 1.7502,-2.0192 2.0175,-3.3302"/>
  <path id="svg_3" fill="#ffffff" d="m55.7458,64.9573c-0.0028,0.3974 -0.1403,0.782 -0.39,1.0906c-0.2497,0.3085 -0.5967,0.5227 -0.9839,0.6073c-0.3872,0.0845 -0.7916,0.0345 -1.1466,-0.142c-0.3551,-0.1765 -0.6397,-0.4689 -0.807,-0.8291l-5.2873,-12.6517l-5.2874,12.6517c-0.1374,0.3116 -0.3641,0.5753 -0.6512,0.7576c-0.2872,0.1822 -0.6218,0.2748 -0.9615,0.266c-0.4596,-0.0208 -0.894,-0.2167 -1.2146,-0.5476c-0.3205,-0.331 -0.5031,-0.7722 -0.5104,-1.2335c0.0089,-0.245 0.0572,-0.4869 0.1429,-0.7165l6.8694,-15.8248c0.1334,-0.3125 0.3577,-0.5774 0.6436,-0.76c0.2859,-0.1827 0.6201,-0.2745 0.9589,-0.2636c0.3349,-0.0041 0.6635,0.0909 0.9448,0.2729c0.2814,0.182 0.5031,0.4431 0.6374,0.7507l6.8388,15.8248c0.1094,0.2337 0.1652,0.489 0.1633,0.7472"/>
  <path id="svg_4" fill="#ffffff" d="m73.8327,61.1291c0.0285,-1.0701 -0.3021,-2.1189 -0.9388,-2.9782c-0.6366,-0.8593 -1.5425,-1.4794 -2.5724,-1.761c0.7745,-0.3842 1.4233,-0.9824 1.87,-1.7242c0.4467,-0.7417 0.6726,-1.5961 0.6511,-2.4623c0,-2.7228 -2.2047,-4.5857 -6.1243,-4.5857l-6.502,0c-0.243,0 -0.4836,0.0483 -0.7078,0.1422c-0.2243,0.0938 -0.4277,0.2314 -0.5986,0.4046c-0.1709,0.1733 -0.3058,0.3788 -0.3969,0.6047c-0.0912,0.226 -0.1367,0.4677 -0.134,0.7114l0,15.0981c-0.0054,0.495 0.1848,0.9721 0.529,1.3269c0.3443,0.3549 0.8147,0.5586 1.3083,0.5667l6.7164,0c4.3482,0 6.8694,-2.344 6.8694,-5.3432l0.0306,0zm-4.7769,-8.1887c0.0087,0.2648 -0.0392,0.5284 -0.1407,0.7731c-0.1015,0.2447 -0.2542,0.4646 -0.4476,0.6451c-0.1935,0.1804 -0.4234,0.3172 -0.6741,0.401c-0.2506,0.0837 -0.5163,0.1126 -0.7791,0.0847l-4.879,0l0,-3.7464l4.9403,0c0.257,-0.0391 0.5195,-0.0211 0.7689,0.0528c0.2494,0.0738 0.4795,0.2016 0.6742,0.3744c0.1947,0.1728 0.3492,0.3864 0.4526,0.6256c0.1034,0.2392 0.1531,0.4983 0.1457,0.759l-0.0612,0.0307zm1.0819,7.6462c0.0044,0.3348 -0.0616,0.6668 -0.1936,0.9743c-0.1321,0.3076 -0.3272,0.5838 -0.5727,0.8107c-0.2456,0.2269 -0.536,0.3994 -0.8524,0.5063c-0.3164,0.1069 -0.6517,0.1458 -0.9841,0.1142l-5.3996,0l0,-4.7597l5.3383,0c0.3291,-0.0361 0.662,-0.002 0.977,0.1c0.315,0.1021 0.6049,0.2697 0.8507,0.4921c0.2457,0.2223 0.4419,0.4942 0.5755,0.7979c0.1336,0.3037 0.2017,0.6323 0.1997,0.9642"/>
  <path id="svg_5" fill="#ffffff" d="m93.0423,49.1225l0,15.8043c-0.0105,0.4708 -0.2023,0.9193 -0.5354,1.2513c-0.333,0.3321 -0.7813,0.5219 -1.2508,0.5298c-0.4657,-0.0081 -0.9097,-0.1993 -1.2361,-0.5324c-0.3265,-0.3332 -0.5094,-0.7816 -0.5094,-1.2487l0,-10.932c-5.7977,7.503 -9.1865,12.0682 -9.1865,12.0682c-0.1557,0.1912 -0.3497,0.3474 -0.5695,0.4585c-0.2198,0.1111 -0.4605,0.1746 -0.7064,0.1864c-0.2372,0.004 -0.473,-0.0388 -0.6937,-0.1261c-0.2208,-0.0873 -0.4222,-0.2174 -0.5928,-0.3828c-0.1706,-0.1654 -0.3071,-0.3629 -0.4016,-0.5812c-0.0945,-0.2182 -0.1452,-0.4531 -0.1492,-0.691l0,-15.8043c0.034,-0.4477 0.2353,-0.8661 0.5636,-1.1713c0.3284,-0.3052 0.7596,-0.4748 1.2074,-0.4748c0.4477,0 0.879,0.1696 1.2073,0.4748c0.3284,0.3052 0.5297,0.7236 0.5636,1.1713l0,10.9013l9.1865,-12.0375c0.1578,-0.2098 0.3634,-0.3788 0.5995,-0.4927c0.2362,-0.114 0.4961,-0.1697 0.7581,-0.1624c0.4677,0.0025 0.916,0.1879 1.2495,0.5167c0.3336,0.3287 0.5261,0.775 0.5368,1.2439"/>
  <path id="svg_6" fill="#ffffff" d="m116.008,64.9472l0,-15.8043c-0.007,-0.4699 -0.197,-0.9184 -0.528,-1.2507c-0.332,-0.3323 -0.779,-0.5225 -1.248,-0.5304c-0.349,0.0126 -0.688,0.1228 -0.978,0.3181c-0.291,0.1953 -0.521,0.468 -0.665,0.7874l-6.124,12.6619l-6.247,-12.6619c-0.143,-0.3201 -0.3733,-0.5935 -0.6638,-0.7889c-0.2906,-0.1954 -0.63,-0.3051 -0.9797,-0.3166c-0.4621,0.0027 -0.9045,0.188 -1.2312,0.5156c-0.3268,0.3277 -0.5115,0.7714 -0.5142,1.2348l0,15.8043c-0.0001,0.468 0.1825,0.9176 0.5087,1.2524c0.3262,0.3347 0.7701,0.5282 1.2367,0.5389c0.4713,-0.0079 0.9211,-0.1992 1.2544,-0.5334c0.3331,-0.3343 0.5241,-0.7853 0.5321,-1.2579l0,-8.3526l4.573,9.2124c0.117,0.2982 0.325,0.5516 0.595,0.7244c0.269,0.1727 0.586,0.2559 0.905,0.2378c0.314,0.0116 0.624,-0.0721 0.89,-0.2401c0.266,-0.168 0.475,-0.4125 0.6,-0.7016c0,0 0,0 4.553,-9.2124l0,8.3833c0.002,0.4661 0.188,0.9123 0.517,1.2419c0.329,0.3296 0.774,0.516 1.238,0.5186c0.467,-0.0026 0.914,-0.1883 1.246,-0.5173c0.332,-0.329 0.522,-0.7753 0.53,-1.2432"/>
  <path id="svg_7" fill="#ffffff" d="m151.438,37.5045c0.095,-0.1478 0.18,-0.3017 0.255,-0.4606c0.079,-0.1801 0.147,-0.3647 0.205,-0.5527c0.051,-0.1638 0.112,-0.3276 0.153,-0.4913c0.04,-0.1859 0.071,-0.3739 0.091,-0.563c0.031,-0.1899 0.051,-0.3812 0.062,-0.5732c0,-0.0717 0,-0.1331 0,-0.2047c0,-0.0717 0,-0.2252 0,-0.3378c0.01,-0.1978 0.01,-0.396 0,-0.5937c-0.034,-0.1901 -0.078,-0.3781 -0.133,-0.563c-0.04,-0.1703 -0.091,-0.3378 -0.153,-0.5016c-0.082,-0.2047 -0.174,-0.3992 -0.265,-0.5936c-0.092,-0.1945 -0.072,-0.1945 -0.133,-0.2867l-0.102,-0.1433c-0.117,-0.1805 -0.243,-0.3547 -0.378,-0.522c-0.102,-0.1331 -0.204,-0.2661 -0.316,-0.389c-0.113,-0.1228 -0.286,-0.2661 -0.429,-0.3992l-0.398,-0.3275c-0.164,-0.1154 -0.335,-0.2213 -0.51,-0.3173c-0.143,-0.0819 -0.286,-0.1638 -0.439,-0.2355c-0.187,-0.0822 -0.378,-0.154 -0.572,-0.2149c-0.154,-0.0557 -0.311,-0.1035 -0.47,-0.1433c-0.192,-0.044 -0.386,-0.0782 -0.581,-0.1024c-0.183,-0.0272 -0.367,-0.0442 -0.552,-0.0512l-0.204,0c-0.122,0 -0.234,0 -0.357,0l-0.572,0.0615c-0.192,0.0334 -0.383,0.0779 -0.571,0.133c-0.17,0.0404 -0.337,0.0917 -0.5,0.1536c-0.204,0.0739 -0.402,0.1628 -0.592,0.2661l-0.276,0.1228l-0.143,0.1126c-0.171,0.1042 -0.335,0.2205 -0.49,0.3481c-0.141,0.0977 -0.275,0.2073 -0.398,0.3275c-0.143,0.1331 -0.265,0.2764 -0.398,0.4197c-0.133,0.1433 -0.235,0.2661 -0.337,0.4094c-0.102,0.1433 -0.204,0.3173 -0.306,0.4811c-0.102,0.1638 -0.173,0.3071 -0.245,0.4709c-0.071,0.1637 -0.143,0.3582 -0.214,0.5425c-0.047,0.1102 -0.088,0.223 -0.123,0.3378c-0.575,2.0161 -1.909,3.7291 -3.721,4.7775c-1.811,1.0485 -3.957,1.3504 -5.986,0.842l-0.173,0l-0.256,-0.0512c-0.337,-0.0571 -0.678,-0.0879 -1.02,-0.0921l0,0c-0.342,0.0126 -0.683,0.0468 -1.021,0.1024l-0.276,0.0614l-0.173,0c-2.027,0.5054 -4.171,0.202 -5.98,-0.8462c-1.809,-1.0482 -3.141,-2.7595 -3.717,-4.7734c-0.059,-0.2233 -0.134,-0.4422 -0.225,-0.6551l-0.102,-0.1023c-0.119,-0.261 -0.256,-0.514 -0.408,-0.7575l-0.163,-0.2354c-0.174,-0.2546 -0.369,-0.4942 -0.582,-0.7165c-1.462,-1.5076 -2.279,-3.5272 -2.279,-5.6298c0,-2.1026 0.817,-4.1223 2.279,-5.6298c0.214,-0.2283 0.412,-0.4711 0.592,-0.7267l0.153,-0.2355c0.145,-0.2298 0.275,-0.4692 0.388,-0.7165l0.082,-0.1535c0.097,-0.2438 0.178,-0.4934 0.245,-0.7473c0.594,-1.9933 1.931,-3.6809 3.732,-4.7136c1.801,-1.0327 3.929,-1.3314 5.944,-0.8342l0.123,0c0.202,0.0449 0.406,0.079 0.612,0.1023l0.531,0.0512l0.183,0c0.133,0 0.256,0 0.388,0l0.552,-0.0614c0.199,-0.0335 0.397,-0.0779 0.592,-0.1331l0.479,-0.1535c0.192,-0.0748 0.379,-0.1603 0.562,-0.2559l0.296,-0.1331l0.143,-0.1023c0.176,-0.1136 0.347,-0.2366 0.51,-0.3685c0.133,-0.1126 0.276,-0.215 0.398,-0.33783c0.123,-0.12283 0.255,-0.26613 0.378,-0.3992c0.122,-0.13307 0.245,-0.28661 0.357,-0.44015c0.112,-0.15354 0.194,-0.30708 0.286,-0.46062c0.092,-0.15353 0.184,-0.31731 0.255,-0.48109c0.079,-0.17317 0.147,-0.35091 0.204,-0.53227c0,-0.17401 0.112,-0.34802 0.163,-0.52203c0.038,-0.1756 0.066,-0.35335 0.082,-0.53227c0.036,-0.1994 0.057,-0.40132 0.061,-0.60392c0,-0.07165 0,-0.12283 0,-0.19448c0,-0.07166 0,-0.20472 0,-0.31732c0,-0.11259 0,-0.40944 -0.061,-0.62439c-0.03,-0.17976 -0.071,-0.35752 -0.122,-0.53227c0,-0.18425 -0.102,-0.35826 -0.164,-0.53227c-0.074,-0.19559 -0.16,-0.38694 -0.255,-0.57322c-0.051,-0.09212 -0.082,-0.19448 -0.133,-0.2866c-0.051,-0.09213 -0.071,-0.09213 -0.071,-0.16378c0,-0.07165 -0.235,-0.33778 -0.357,-0.50156c-0.123,-0.16377 -0.225,-0.28661 -0.347,-0.41967l-0.388,-0.35826c-0.143,-0.13083 -0.293,-0.25384 -0.449,-0.3685c-0.143,-0.10236 -0.296,-0.18424 -0.439,-0.27637c-0.143,-0.09212 -0.327,-0.19448 -0.5,-0.26613c-0.167,-0.07374 -0.337,-0.13865 -0.511,-0.19448c-0.177,-0.06394 -0.358,-0.11861 -0.541,-0.16378c-0.171,-0.04062 -0.345,-0.07137 -0.52,-0.09212l-0.613,-0.06142l-0.183,0c-0.113,0 -0.215,0 -0.317,0c-0.208,0.00982 -0.416,0.03032 -0.623,0.06142c-0.183,0 -0.357,0.08188 -0.541,0.12283l-0.53,0.16377c-0.19,0.07287 -0.374,0.15836 -0.551,0.2559l-0.307,0.13307l-0.153,0.1126c-0.165,0.10427 -0.326,0.21702 -0.48,0.33778c-0.132,0.1126 -0.275,0.21496 -0.398,0.33779c-0.122,0.12283 -0.275,0.2866 -0.408,0.42991l-0.316,0.38896c-0.121,0.16984 -0.23,0.34767 -0.327,0.53227c-0.085,0.13078 -0.16,0.26763 -0.225,0.40944c-0.09,0.1998 -0.168,0.40489 -0.234,0.61416c0,0.09212 -0.082,0.18425 -0.113,0.28661c-0.569,2.00753 -1.892,3.71569 -3.69,4.76553c-1.799,1.04986 -3.934,1.35966 -5.955,0.86424l-0.245,-0.05118l-0.215,0c-0.336,-0.06495 -0.678,-0.09921 -1.02,-0.10236l0,0c-0.768,0 -1.528,0.1531 -2.236,0.45036c-1.039,0.4379 -1.925,1.1738 -2.548,2.1154c-0.623,0.9415 -0.954,2.0467 -0.953,3.1766c0.002,0.3814 0.04,0.7618 0.112,1.1362c0,0.215 0.123,0.4094 0.194,0.6244c0.034,0.1464 0.078,0.2902 0.133,0.4299c0.107,0.2348 0.226,0.4638 0.357,0.6858c0.062,0.1024 0.102,0.2047 0.164,0.2969c0.167,0.2472 0.355,0.48 0.561,0.696c0,0.0512 0.082,0.1126 0.133,0.1638c1.433,1.4919 2.238,3.4795 2.25,5.5509c0.011,2.0714 -0.773,4.0678 -2.189,5.5756c0.004,0.0168 0.004,0.0344 0,0.0511l-0.061,0.0615c-0.207,0.2179 -0.398,0.4505 -0.572,0.696l-0.143,0.2252l-0.153,0.215c-0.051,0.1023 -0.082,0.2149 -0.133,0.307c-0.092,0.1795 -0.173,0.364 -0.245,0.5528c-0.067,0.1777 -0.125,0.3588 -0.173,0.5425c0,0.174 -0.092,0.348 -0.123,0.5323c-0.03,0.1842 0,0.4196 -0.061,0.6243c-0.061,0.2048 0,0.215 0,0.3174c0,0.1023 0,0.1228 0,0.1842c0.01,0.2057 0.03,0.4106 0.061,0.6142c0.02,0.1791 0.051,0.3568 0.092,0.5322c0.045,0.1768 0.1,0.3511 0.164,0.5221c0.055,0.1806 0.12,0.3582 0.193,0.5322c0.037,0.1456 0.081,0.2891 0.133,0.4299c0.087,0.1619 0.183,0.3191 0.286,0.4709c0.112,0.1535 0.235,0.2968 0.357,0.4401c0.123,0.1433 0.245,0.2764 0.378,0.3992c0.133,0.124 0.272,0.2402 0.418,0.3481c0.154,0.1228 0.317,0.2354 0.48,0.348c0.163,0.1126 0.102,0.0819 0.163,0.1126c0.103,0.0539 0.209,0.1017 0.317,0.1433c0.163,0.0819 0.337,0.1638 0.52,0.2354c0.171,0.0639 0.345,0.1185 0.521,0.1638c0.181,0.0552 0.365,0.0996 0.551,0.1331c0.194,0.0101 0.388,0.0101 0.582,0c0.123,0 0.245,0 0.378,0l0.153,0c0.194,0 0.388,0 0.582,-0.0615l0.551,-0.0921l0.143,0c2.009,-0.506 4.136,-0.2147 5.937,0.8131c1.801,1.0279 3.137,2.713 3.729,4.7041c0.065,0.2588 0.15,0.512 0.255,0.7575c0,0.0819 0.072,0.1433 0.102,0.2149c0.068,0.1619 0.147,0.3191 0.235,0.4709l0.102,0.1433c0.117,0.1838 0.243,0.3615 0.378,0.5322c0.097,0.1329 0.203,0.2594 0.316,0.3788c0.135,0.141 0.279,0.2743 0.429,0.3992c0.129,0.1211 0.265,0.2339 0.408,0.3378c0.154,0.1085 0.314,0.2076 0.48,0.2968c0.152,0.0932 0.309,0.1786 0.469,0.2559c0.173,0.0755 0.35,0.1404 0.531,0.1945c0.174,0.0653 0.351,0.12 0.531,0.1638c0.163,0 0.337,0.0614 0.51,0.0921c0.207,0.0311 0.414,0.0516 0.623,0.0614l0.184,0l0.306,0c0.212,-0.0081 0.424,-0.0321 0.633,-0.0716c0.176,-0.0256 0.35,-0.0633 0.52,-0.1126c0.187,-0.0487 0.371,-0.1068 0.551,-0.1741c0.185,-0.0713 0.366,-0.1534 0.541,-0.2456l0.317,-0.1331l0.163,-0.1228l0.439,-0.3173c0.153,-0.1126 0.296,-0.2355 0.439,-0.3583c0.143,-0.1228 0.245,-0.2661 0.367,-0.3992c0.125,-0.1326 0.241,-0.2728 0.348,-0.4197c0.111,-0.1576 0.213,-0.3216 0.306,-0.4913c0.092,-0.1535 0.173,-0.2968 0.255,-0.4606c0.082,-0.1638 0.143,-0.3685 0.214,-0.5527c0.072,-0.1843 0.092,-0.215 0.123,-0.3276c0.571,-2.0168 1.903,-3.7313 3.713,-4.7803c1.81,-1.049 3.956,-1.35 5.984,-0.8392l0.143,0l0.541,0.0921c0.196,0.0272 0.393,0.0443 0.592,0.0512l0.173,0c0.123,0 0.245,0 0.378,0c0.19,0.0096 0.381,0.0096 0.571,0c0.19,-0.0335 0.377,-0.078 0.562,-0.1331c0.17,-0.0438 0.337,-0.0985 0.5,-0.1638c0.185,-0.066 0.366,-0.1447 0.541,-0.2354c0.105,-0.0416 0.207,-0.0894 0.306,-0.1433c0.061,0 0.102,-0.0819 0.153,-0.1126c0.173,-0.1101 0.34,-0.2297 0.5,-0.3583c0.143,-0.1126 0.276,-0.2149 0.409,-0.3378c0.132,-0.1228 0.255,-0.2661 0.377,-0.4094c0.123,-0.1433 0.245,-0.2764 0.347,-0.4197c0.102,-0.1433 0.245,-0.2866 0.337,-0.4811z"/>
  <path id="svg_8" fill="#ffffff" d="m146.488,21.1268c1.133,0 2.24,-0.3367 3.181,-0.9677c0.942,-0.631 1.676,-1.5278 2.109,-2.5771c0.434,-1.0493 0.547,-2.2039 0.326,-3.3178c-0.221,-1.1139 -0.766,-2.1371 -1.567,-2.9402c-0.801,-0.8031 -1.821,-1.35 -2.932,-1.57157c-1.111,-0.22157 -2.262,-0.10785 -3.308,0.32677c-1.047,0.4346 -1.941,1.1706 -2.57,2.115c-0.629,0.9443 -0.965,2.0545 -0.965,3.1903c0,1.5229 0.603,2.9835 1.677,4.0604c1.074,1.0769 2.53,1.6819 4.049,1.6819l0,0z"/>
  <path id="svg_9" fill="#ffffff" d="m172.165,26.1027l0,45.8973l4.304,0l0,-45.8973l-4.304,0z"/>
  <path id="svg_10" fill="#ffffff" d="m192.227,38.9731c-0.558,0.0102 -1.113,-0.0895 -1.633,-0.2932c-0.474,-0.1903 -0.895,-0.492 -1.227,-0.8797c-0.349,-0.4225 -0.6,-0.9164 -0.738,-1.4471l1.17,-0.2996c0.152,0.5051 0.456,0.9506 0.871,1.275c0.423,0.3318 0.951,0.5013 1.487,0.4781c0.389,-0.0041 0.773,-0.082 1.132,-0.2295c0.345,-0.1285 0.648,-0.3489 0.877,-0.6375c0.191,-0.2375 0.334,-0.5104 0.42,-0.8032c0.089,-0.2838 0.147,-0.5767 0.171,-0.8733l-2.956,0l0,-1.1602l2.963,0c-0.044,-0.4753 -0.182,-0.937 -0.407,-1.3578c-0.208,-0.3738 -0.511,-0.686 -0.877,-0.9052c-0.448,-0.2396 -0.953,-0.3481 -1.459,-0.3131c-0.506,0.0349 -0.992,0.2119 -1.402,0.5107c-0.411,0.3464 -0.697,0.8192 -0.814,1.3451l-1.207,-0.1721c0.161,-0.8287 0.612,-1.5724 1.271,-2.0973c0.648,-0.4495 1.409,-0.707 2.196,-0.7431c0.787,-0.0361 1.568,0.1508 2.254,0.5391c0.571,0.3683 1.025,0.8925 1.309,1.5108c0.314,0.7079 0.473,1.4754 0.464,2.2502c0.017,0.7504 -0.132,1.4952 -0.438,2.1802c-0.286,0.6547 -0.763,1.2076 -1.367,1.5863c-0.605,0.3787 -1.309,0.5657 -2.022,0.5364l-0.038,0z"/>
  <path id="svg_11" fill="#ffffff" d="m197.191,38.8011l0,-6.1961l1.215,0l0,2.9833l2.421,-2.9833l1.526,0l-2.543,3.098l2.823,3.0981l-1.621,0l-2.587,-2.9833l0,2.9833l-1.234,0z"/>
  <path id="svg_12" fill="#ffffff" d="m205.697,38.9733c-0.567,0.0178 -1.128,-0.1282 -1.614,-0.4207c-0.441,-0.285 -0.791,-0.6895 -1.011,-1.1666c-0.241,-0.5303 -0.366,-1.1064 -0.366,-1.6892c0,-0.5829 0.125,-1.1589 0.366,-1.6893c0.228,-0.4743 0.585,-0.8743 1.03,-1.1538c0.485,-0.2916 1.043,-0.4376 1.608,-0.4207c0.615,-0.0168 1.22,0.1616 1.729,0.5099c0.474,0.3287 0.812,0.8211 0.947,1.3833l-1.189,0.3443c-0.101,-0.3284 -0.307,-0.6147 -0.584,-0.816c-0.269,-0.1923 -0.592,-0.2929 -0.922,-0.2869c-0.334,-0.0218 -0.665,0.0685 -0.941,0.2567c-0.276,0.1882 -0.482,0.4636 -0.585,0.7824c-0.129,0.3509 -0.194,0.7224 -0.191,1.0964c-0.021,0.55 0.133,1.0924 0.439,1.5491c0.146,0.1968 0.339,0.3541 0.561,0.4576c0.222,0.1035 0.466,0.15 0.71,0.1352c0.333,0.0167 0.661,-0.0774 0.935,-0.2677c0.252,-0.1964 0.442,-0.4622 0.547,-0.765l1.214,0.2869c-0.17,0.5631 -0.524,1.0526 -1.005,1.3896c-0.496,0.3318 -1.082,0.5011 -1.678,0.4845l0,0z"/>
  <path id="svg_13" fill="#ffffff" d="m209.581,38.8011l0,-6.1961l5.213,0l0,6.1961l-1.202,0l0,-5.0487l-2.81,0l0,5.0615l-1.201,-0.0128z"/>
  <path id="svg_14" fill="#ffffff" d="m219.135,38.9732c-0.566,0.0134 -1.126,-0.1252 -1.621,-0.4016c-0.459,-0.2654 -0.834,-0.6568 -1.08,-1.1283c-0.263,-0.5211 -0.394,-1.099 -0.382,-1.6829c-0.017,-0.6101 0.112,-1.2156 0.375,-1.7657c0.238,-0.4775 0.606,-0.8776 1.062,-1.1538c0.483,-0.2769 1.032,-0.4178 1.589,-0.408c0.568,-0.0168 1.128,0.1363 1.608,0.4398c0.454,0.3124 0.8,0.7577 0.992,1.275c0.227,0.6103 0.316,1.2634 0.261,1.9123l-1.195,0l0,-0.4334c0.033,-0.5617 -0.112,-1.1195 -0.414,-1.5937c-0.145,-0.1765 -0.331,-0.3155 -0.541,-0.4054c-0.21,-0.0898 -0.439,-0.1278 -0.666,-0.1109c-0.254,-0.0169 -0.509,0.0256 -0.744,0.124c-0.235,0.0984 -0.444,0.2502 -0.61,0.4433c-0.33,0.4796 -0.489,1.0568 -0.452,1.6383c-0.034,0.5633 0.125,1.1214 0.452,1.5809c0.159,0.1896 0.361,0.3391 0.588,0.4365c0.227,0.0974 0.474,0.14 0.721,0.1245c0.34,0.0092 0.675,-0.0793 0.966,-0.255c0.278,-0.1784 0.498,-0.4328 0.636,-0.7331l1.17,0.3761c-0.225,0.5278 -0.607,0.973 -1.094,1.2749c-0.487,0.3003 -1.049,0.4551 -1.621,0.4462l0,0zm-2.205,-2.9323l0,-0.9307l4.411,0l0,0.9307l-4.411,0z"/>
  <path id="svg_15" fill="#ffffff" d="m223.21,41.5549l0,-8.9245l1.068,0l0,4.4623l0.133,0l0,4.4622l-1.201,0zm2.911,-2.5498c-0.531,0.0203 -1.055,-0.1317 -1.493,-0.4335c-0.406,-0.2989 -0.721,-0.705 -0.909,-1.1729c-0.212,-0.531 -0.315,-1.0987 -0.306,-1.6702c-0.009,-0.5694 0.095,-1.1349 0.306,-1.6638c0.182,-0.4699 0.495,-0.8772 0.902,-1.1729c0.436,-0.2913 0.951,-0.4405 1.475,-0.4271c0.531,-0.0117 1.054,0.1371 1.5,0.4271c0.424,0.2826 0.765,0.6746 0.985,1.1347c0.236,0.5246 0.353,1.0949 0.344,1.6701c0.009,0.5773 -0.108,1.1497 -0.344,1.6766c-0.207,0.4731 -0.542,0.8791 -0.966,1.1729c-0.441,0.2951 -0.963,0.4445 -1.494,0.4271l0,0.0319zm-0.171,-1.0837c0.34,0.0147 0.674,-0.0889 0.947,-0.2933c0.26,-0.2014 0.456,-0.4736 0.566,-0.784c0.126,-0.3581 0.188,-0.7358 0.184,-1.1156c0.004,-0.3736 -0.058,-0.7449 -0.184,-1.0964c-0.114,-0.3117 -0.312,-0.5855 -0.572,-0.7905c-0.286,-0.2023 -0.63,-0.3052 -0.979,-0.2932c-0.33,-0.0126 -0.655,0.0862 -0.922,0.2805c-0.253,0.1946 -0.441,0.4612 -0.54,0.7649c-0.12,0.366 -0.179,0.7495 -0.172,1.1347c-0.007,0.3873 0.051,0.773 0.172,1.1411c0.098,0.3058 0.286,0.5747 0.54,0.7713c0.284,0.1868 0.621,0.2742 0.96,0.2486l0,0.0319z"/>
  <path id="svg_16" fill="#ffffff" d="m231.76,38.8011l0,-5.0997l-2.098,0l0,-1.0964l5.416,0l0,1.0837l-2.11,0l0,5.0997l-1.208,0.0127z"/>
  <path id="svg_17" fill="#ffffff" d="m236.158,38.8011l0,-6.1961l1.202,0l0,2.1546l0.813,0c0.172,0 0.363,0 0.566,0c0.173,0.0029 0.345,0.0221 0.515,0.0574c0.308,0.0552 0.602,0.1723 0.864,0.3442c0.242,0.1563 0.436,0.3771 0.56,0.6375c0.14,0.3053 0.208,0.6392 0.197,0.9753c0.02,0.461 -0.127,0.9138 -0.413,1.2749c-0.301,0.3268 -0.697,0.5499 -1.132,0.6375c-0.178,0.0367 -0.359,0.058 -0.54,0.0637c-0.21,0 -0.401,0 -0.579,0l-2.053,0.051zm1.202,-0.9626l0.921,0c0.11,0.006 0.221,0.006 0.331,0c0.114,-0.0061 0.226,-0.0232 0.337,-0.051c0.191,-0.0587 0.361,-0.1716 0.489,-0.3251c0.144,-0.1805 0.221,-0.4061 0.216,-0.6374c0.017,-0.2306 -0.05,-0.4594 -0.189,-0.6437c-0.14,-0.1842 -0.341,-0.3112 -0.567,-0.3571c-0.102,-0.0268 -0.206,-0.0439 -0.312,-0.051l-0.305,0l-0.921,0l0,2.0653zm4.201,0.9626l0,-6.1961l1.195,0l0,6.1961l-1.195,0z"/>
  <path id="svg_18" fill="#ffffff" d="m191.674,52.742c-0.568,0.0185 -1.128,-0.1276 -1.615,-0.4207c-0.442,-0.2848 -0.794,-0.6893 -1.017,-1.1666c-0.244,-0.5265 -0.366,-1.1021 -0.356,-1.6829c-0.007,-0.5853 0.116,-1.1648 0.362,-1.6956c0.228,-0.4743 0.585,-0.8743 1.03,-1.1538c0.513,-0.29 1.096,-0.4348 1.684,-0.4191c0.589,0.0157 1.163,0.1914 1.66,0.5083c0.473,0.3294 0.807,0.8219 0.941,1.3833l-1.189,0.3187c-0.1,-0.3276 -0.303,-0.6139 -0.578,-0.8159c-0.27,-0.1911 -0.592,-0.2915 -0.922,-0.2869c-0.343,-0.0162 -0.683,0.08 -0.966,0.2741c-0.26,0.194 -0.456,0.46 -0.566,0.765c-0.127,0.3513 -0.19,0.7228 -0.185,1.0964c-0.026,0.5496 0.126,1.093 0.433,1.5491c0.147,0.1956 0.34,0.3519 0.562,0.4553c0.221,0.1033 0.465,0.1506 0.709,0.1375c0.332,0.0144 0.66,-0.0796 0.935,-0.2677c0.25,-0.1982 0.44,-0.4634 0.546,-0.765l1.208,0.2869c-0.163,0.5632 -0.51,1.055 -0.985,1.396c-0.498,0.3411 -1.089,0.5173 -1.691,0.5036l0,0z"/>
  <path id="svg_19" fill="#ffffff" d="m198.273,52.7425c-0.565,0.0122 -1.122,-0.1264 -1.615,-0.4016c-0.461,-0.2638 -0.836,-0.6556 -1.081,-1.1284c-0.268,-0.5194 -0.401,-1.0982 -0.387,-1.6829c-0.016,-0.6106 0.115,-1.2161 0.381,-1.7657c0.236,-0.4787 0.605,-0.8792 1.062,-1.1538c0.48,-0.2778 1.028,-0.4189 1.582,-0.408c0.568,-0.0179 1.129,0.1353 1.609,0.4398c0.457,0.3086 0.804,0.7551 0.991,1.275c0.23,0.6096 0.319,1.2633 0.261,1.9124l-1.195,0l0,-0.4335c0.035,-0.561 -0.107,-1.1188 -0.407,-1.5937c-0.146,-0.177 -0.333,-0.3163 -0.544,-0.4061c-0.212,-0.0898 -0.441,-0.1276 -0.67,-0.1102c-0.253,-0.0179 -0.507,0.0241 -0.741,0.1227c-0.234,0.0985 -0.442,0.2508 -0.607,0.4446c-0.33,0.4796 -0.489,1.0568 -0.451,1.6383c-0.035,0.5633 0.125,1.1214 0.451,1.5809c0.155,0.185 0.35,0.3319 0.571,0.4291c0.22,0.0973 0.46,0.1424 0.701,0.1319c0.342,0.0097 0.679,-0.0787 0.972,-0.255c0.278,-0.1775 0.499,-0.4322 0.636,-0.7331l1.176,0.3761c-0.225,0.5278 -0.607,0.973 -1.093,1.2749c-0.482,0.2959 -1.037,0.4504 -1.602,0.4463l0,0zm-2.2,-2.9324l0,-0.9307l4.412,0l0,0.9307l-4.412,0z"/>
  <path id="svg_20" fill="#ffffff" d="m202.182,52.5702l0,-6.1962l0.972,0l2.282,4.5451l2.282,-4.5451l1.005,0l0,6.1962l-1.119,0l0,-3.7356l-1.856,3.7356l-0.547,0l-1.856,-3.7356l0,3.7356l-1.163,0z"/>
  <path id="svg_21" fill="#ffffff" d="m213.09,52.7423c-0.564,0.0122 -1.121,-0.1264 -1.615,-0.4016c-0.461,-0.2637 -0.836,-0.6556 -1.08,-1.1283c-0.268,-0.5195 -0.401,-1.0982 -0.388,-1.6829c-0.015,-0.6107 0.116,-1.2162 0.381,-1.7658c0.238,-0.4775 0.607,-0.8775 1.062,-1.1538c0.481,-0.2778 1.028,-0.4188 1.583,-0.408c0.568,-0.0167 1.127,0.1364 1.608,0.4399c0.457,0.3085 0.805,0.7551 0.992,1.2749c0.229,0.6096 0.318,1.2634 0.26,1.9124l-1.195,0l0,-0.4335c0.036,-0.5609 -0.107,-1.1188 -0.406,-1.5936c-0.147,-0.1771 -0.334,-0.3164 -0.545,-0.4062c-0.211,-0.0898 -0.441,-0.1276 -0.67,-0.1102c-0.253,-0.0179 -0.507,0.0242 -0.741,0.1227c-0.234,0.0986 -0.442,0.2509 -0.606,0.4447c-0.33,0.4795 -0.489,1.0568 -0.452,1.6382c-0.034,0.5633 0.125,1.1215 0.452,1.5809c0.155,0.1851 0.35,0.3319 0.57,0.4292c0.221,0.0972 0.46,0.1423 0.701,0.1318c0.342,0.0098 0.679,-0.0787 0.973,-0.255c0.278,-0.1775 0.499,-0.4322 0.635,-0.7331l1.176,0.3761c-0.227,0.5265 -0.608,0.9712 -1.093,1.275c-0.482,0.2958 -1.037,0.4504 -1.602,0.4462l0,0zm-2.199,-2.9323l0,-0.9307l4.411,0l0,0.9307l-4.411,0z"/>
  <path id="svg_22" fill="#ffffff" d="m222.383,46.3742l0,6.1962l-1.15,0l0,-4.3029l-3.09,4.3029l-0.972,0l0,-6.1962l1.15,0l0,4.2264l3.096,-4.2264l0.966,0zm-2.447,-0.7075c-0.292,0.0017 -0.58,-0.0754 -0.833,-0.2232c-0.244,-0.1491 -0.448,-0.3545 -0.597,-0.5992c-0.148,-0.2507 -0.225,-0.5373 -0.223,-0.8287l0.954,0c-0.001,0.0913 0.017,0.1818 0.052,0.2661c0.035,0.0844 0.086,0.1608 0.151,0.2248c0.063,0.0681 0.14,0.1217 0.226,0.1569c0.085,0.0353 0.178,0.0513 0.27,0.0471c0.091,0.0033 0.183,-0.0132 0.267,-0.0484c0.084,-0.0352 0.16,-0.0883 0.223,-0.1556c0.067,-0.0623 0.12,-0.1385 0.155,-0.2232c0.035,-0.0847 0.051,-0.176 0.048,-0.2677l0.96,0c0.002,0.2914 -0.075,0.578 -0.223,0.8287c-0.148,0.2447 -0.353,0.4501 -0.597,0.5992c-0.253,0.1481 -0.54,0.2252 -0.833,0.2232l0,0z"/>
  <path id="svg_23" fill="#ffffff" d="m223.979,52.5702l0,-6.1962l1.196,0l0,2.5499l3.013,0l0,-2.5499l1.195,0l0,6.1962l-1.195,0l0,-2.5499l-3.013,0l0,2.5499l-1.196,0z"/>
  <path id="svg_24" fill="#ffffff" d="m233.667,52.7421c-0.562,0.0135 -1.116,-0.13 -1.602,-0.4143c-0.454,-0.2789 -0.82,-0.6812 -1.055,-1.1602c-0.252,-0.5314 -0.378,-1.1138 -0.369,-1.702c-0.012,-0.59 0.119,-1.1741 0.382,-1.7021c0.236,-0.4753 0.602,-0.8733 1.055,-1.1474c0.482,-0.2818 1.032,-0.4251 1.589,-0.4143c0.565,-0.0152 1.123,0.1307 1.608,0.4207c0.454,0.2763 0.82,0.6765 1.056,1.1538c0.245,0.5326 0.372,1.1122 0.372,1.6988c0,0.5866 -0.127,1.1662 -0.372,1.6989c-0.234,0.4784 -0.6,0.8791 -1.056,1.1538c-0.486,0.2883 -1.043,0.4321 -1.608,0.4143l0,0zm0,-1.141c0.254,0.0179 0.508,-0.0274 0.74,-0.132c0.232,-0.1045 0.434,-0.2651 0.589,-0.4673c0.309,-0.4552 0.463,-0.9987 0.438,-1.549c0.026,-0.5513 -0.131,-1.0957 -0.445,-1.549c-0.157,-0.1961 -0.36,-0.3512 -0.59,-0.4522c-0.23,-0.101 -0.481,-0.1448 -0.732,-0.1279c-0.348,-0.0143 -0.692,0.0792 -0.985,0.2677c-0.263,0.188 -0.464,0.4497 -0.579,0.7522c-0.132,0.3543 -0.197,0.7307 -0.19,1.1092c-0.026,0.5553 0.131,1.1038 0.445,1.5618c0.155,0.1958 0.355,0.3513 0.583,0.4534c0.228,0.102 0.477,0.1477 0.726,0.1331l0,0z"/>
  <path id="svg_25" fill="#ffffff" d="m237.958,52.5702l0,-6.1962l4.348,0l0,1.1347l-3.147,0l0,5.0615l-1.201,0z"/>
  <path id="svg_26" fill="#ffffff" d="m245.967,52.7425c-0.564,0.0143 -1.121,-0.1292 -1.608,-0.4144c-0.454,-0.2773 -0.818,-0.6802 -1.049,-1.1601c-0.255,-0.5301 -0.382,-1.1134 -0.368,-1.7021c-0.015,-0.5894 0.114,-1.1735 0.375,-1.702c0.237,-0.4739 0.603,-0.8714 1.055,-1.1474c0.484,-0.2826 1.036,-0.426 1.595,-0.4144c0.563,-0.0142 1.119,0.1316 1.602,0.4207c0.454,0.2764 0.82,0.6766 1.055,1.1539c0.257,0.5252 0.386,1.1043 0.375,1.6892c0.012,0.5913 -0.116,1.1768 -0.375,1.7084c-0.237,0.4759 -0.603,0.8756 -1.055,1.1538c-0.485,0.2856 -1.04,0.4292 -1.602,0.4144l0,0zm0,-1.1283c0.253,0.018 0.506,-0.0273 0.737,-0.1319c0.231,-0.1046 0.432,-0.2652 0.586,-0.4673c0.309,-0.4553 0.463,-0.9988 0.438,-1.5491c0.028,-0.5517 -0.128,-1.097 -0.445,-1.549c-0.156,-0.196 -0.358,-0.3511 -0.587,-0.4521c-0.229,-0.101 -0.479,-0.1449 -0.729,-0.128c-0.35,-0.0139 -0.696,0.0795 -0.991,0.2677c-0.263,0.188 -0.464,0.4497 -0.579,0.7522c-0.133,0.3544 -0.197,0.7307 -0.191,1.1092c-0.025,0.5553 0.131,1.1038 0.445,1.5618c0.158,0.194 0.36,0.3473 0.589,0.4471c0.229,0.0999 0.478,0.1433 0.727,0.1266l0,0.0128z"/>
  <path id="svg_27" fill="#ffffff" d="m191.229,66.5112c-0.559,0.009 -1.112,-0.1225 -1.608,-0.3824c-0.463,-0.2446 -0.852,-0.6103 -1.125,-1.0582l0.947,-0.6375c0.207,0.2818 0.472,0.5165 0.776,0.6885c0.3,0.1692 0.64,0.255 0.985,0.2486c0.322,0.0168 0.64,-0.0753 0.903,-0.2614c0.109,-0.0803 0.197,-0.1862 0.255,-0.3084c0.059,-0.1223 0.087,-0.2572 0.082,-0.3928c0.009,-0.0959 -0.003,-0.1928 -0.036,-0.2833c-0.033,-0.0906 -0.086,-0.1724 -0.155,-0.2394c-0.161,-0.1069 -0.348,-0.1666 -0.54,-0.1721c-0.251,-0.038 -0.504,-0.0551 -0.757,-0.051l-0.515,0l0,-1.0008l0.553,0c0.315,0.0104 0.628,-0.0416 0.922,-0.153c0.115,-0.0491 0.213,-0.1334 0.278,-0.241c0.065,-0.1075 0.094,-0.2329 0.084,-0.3582c0.013,-0.1248 -0.01,-0.2505 -0.065,-0.3631c-0.055,-0.1126 -0.14,-0.2076 -0.246,-0.2744c-0.225,-0.1275 -0.48,-0.1914 -0.738,-0.1849c-0.322,-0.0017 -0.641,0.0679 -0.934,0.204c-0.286,0.1247 -0.552,0.2924 -0.788,0.4972l-0.699,-0.8159c0.326,-0.3159 0.707,-0.5687 1.125,-0.7458c0.431,-0.1803 0.893,-0.2713 1.36,-0.2678c0.377,-0.0035 0.751,0.068 1.1,0.2104c0.324,0.1334 0.606,0.354 0.813,0.6375c0.209,0.2907 0.317,0.6426 0.306,1.0008c0.003,0.298 -0.069,0.5921 -0.21,0.8542c-0.159,0.2773 -0.376,0.5165 -0.636,0.7012l-0.038,-0.408c0.223,0.0613 0.425,0.1826 0.585,0.3506c0.157,0.1578 0.277,0.3497 0.349,0.561c0.083,0.2201 0.123,0.4535 0.121,0.6884c0.009,0.3816 -0.107,0.7555 -0.33,1.0646c-0.236,0.2914 -0.546,0.5138 -0.897,0.6438c-0.388,0.1636 -0.805,0.2481 -1.227,0.2486l0,0z"/>
  <path id="svg_28" fill="#ffffff" d="m194.471,67.7161l0,-2.3395c0.139,0.0123 0.28,-0.0125 0.407,-0.0718c0.127,-0.0593 0.237,-0.151 0.317,-0.266c0.194,-0.3619 0.315,-0.7582 0.356,-1.1666c0.051,-0.3315 0.096,-0.6821 0.134,-1.0582c0.038,-0.3761 0.07,-0.784 0.095,-1.2175c0.026,-0.4335 0.051,-0.9243 0.076,-1.4534l4.45,0l0,5.2335l0.604,0l0,2.3395l-1.131,0l0,-1.3769l-4.151,0l0,1.3769l-1.157,0zm1.691,-2.3395l2.905,0l0,-4.2646l-2.162,0c0,0.2486 0,0.51 -0.051,0.7777l-0.057,0.7968c0,0.2678 -0.044,0.5164 -0.07,0.7586c-0.025,0.2423 -0.057,0.459 -0.095,0.6375c-0.033,0.2567 -0.086,0.5104 -0.159,0.7586c-0.058,0.2014 -0.165,0.3854 -0.311,0.5354l0,0z"/>
  <path id="svg_29" fill="#ffffff" d="m204.489,66.5116c-0.561,0.0135 -1.116,-0.13 -1.601,-0.4143c-0.454,-0.2789 -0.82,-0.6812 -1.056,-1.1602c-0.251,-0.5313 -0.378,-1.1138 -0.368,-1.702c-0.013,-0.59 0.118,-1.1741 0.381,-1.702c0.236,-0.4753 0.602,-0.8734 1.055,-1.1475c0.482,-0.2817 1.032,-0.4251 1.589,-0.4143c0.565,-0.0151 1.123,0.1307 1.609,0.4207c0.454,0.2764 0.82,0.6766 1.055,1.1538c0.257,0.5253 0.385,1.1043 0.375,1.6893c0.012,0.5912 -0.117,1.1768 -0.375,1.7084c-0.237,0.4759 -0.603,0.8755 -1.055,1.1538c-0.487,0.2864 -1.044,0.43 -1.609,0.4143l0,0zm0,-1.1283c0.254,0.0186 0.508,-0.0265 0.74,-0.1311c0.232,-0.1046 0.435,-0.2655 0.589,-0.4681c0.309,-0.4553 0.463,-0.9987 0.439,-1.549c0.025,-0.5514 -0.131,-1.0958 -0.445,-1.549c-0.158,-0.1961 -0.361,-0.3512 -0.591,-0.4522c-0.23,-0.101 -0.481,-0.1449 -0.732,-0.1279c-0.347,-0.0131 -0.691,0.0803 -0.985,0.2677c-0.262,0.1879 -0.464,0.4497 -0.578,0.7522c-0.133,0.3543 -0.198,0.7307 -0.191,1.1092c-0.025,0.5553 0.131,1.1037 0.445,1.5618c0.155,0.1958 0.356,0.3513 0.583,0.4534c0.228,0.102 0.477,0.1477 0.726,0.133l0,0z"/>
  <path id="svg_30" fill="#ffffff" d="m208.78,69.0934l0,-8.9245l1.062,0l0,4.4622l0.14,0l0,4.4623l-1.202,0zm2.905,-2.5499c-0.529,0.0204 -1.051,-0.1317 -1.487,-0.4335c-0.409,-0.2953 -0.725,-0.7025 -0.909,-1.1729c-0.217,-0.5296 -0.323,-1.0979 -0.312,-1.6701c-0.009,-0.5694 0.095,-1.1349 0.305,-1.6638c0.185,-0.4704 0.5,-0.8776 0.909,-1.1729c0.433,-0.294 0.947,-0.4435 1.469,-0.4271c0.533,-0.0111 1.058,0.1376 1.506,0.4271c0.425,0.2926 0.761,0.696 0.973,1.1665c0.226,0.5287 0.343,1.098 0.343,1.6734c0,0.5753 -0.117,1.1447 -0.343,1.6733c-0.206,0.4744 -0.54,0.8809 -0.966,1.1729c-0.443,0.2827 -0.963,0.4207 -1.488,0.3952l0,0.0319zm-0.165,-1.0837c0.34,0.0138 0.674,-0.0897 0.947,-0.2932c0.256,-0.2038 0.45,-0.4754 0.56,-0.7841c0.126,-0.358 0.188,-0.7357 0.184,-1.1155c0.004,-0.3736 -0.058,-0.7449 -0.184,-1.0965c-0.112,-0.313 -0.31,-0.5874 -0.573,-0.7904c-0.285,-0.2036 -0.629,-0.3067 -0.978,-0.2933c-0.33,-0.0116 -0.654,0.0871 -0.922,0.2805c-0.25,0.1976 -0.438,0.4632 -0.541,0.765c-0.23,0.741 -0.23,1.5347 0,2.2757c0.099,0.3076 0.29,0.5771 0.547,0.7714c0.284,0.1877 0.621,0.2752 0.96,0.2486l0,0.0318z"/>
  <path id="svg_31" fill="#ffffff" d="m218.411,66.5115c-0.564,0.0126 -1.121,-0.1307 -1.609,-0.4144c-0.451,-0.2809 -0.814,-0.6828 -1.049,-1.1601c-0.244,-0.5339 -0.371,-1.1145 -0.371,-1.7021c0,-0.5875 0.127,-1.1682 0.371,-1.702c0.239,-0.4757 0.607,-0.8737 1.062,-1.1474c0.486,-0.2701 1.033,-0.4119 1.589,-0.4119c0.556,0 1.103,0.1418 1.589,0.4119c0.453,0.2782 0.818,0.6779 1.056,1.1538c0.252,0.5267 0.378,1.1051 0.368,1.6893c0.012,0.5912 -0.116,1.1768 -0.375,1.7084c-0.235,0.4772 -0.601,0.8774 -1.055,1.1538c-0.476,0.2848 -1.022,0.4305 -1.576,0.4207zm0,-1.1283c0.252,0.018 0.505,-0.0273 0.736,-0.1319c0.231,-0.1046 0.432,-0.2652 0.586,-0.4673c0.309,-0.4553 0.463,-0.9988 0.438,-1.5491c0.029,-0.5517 -0.128,-1.097 -0.445,-1.549c-0.155,-0.1968 -0.357,-0.3525 -0.586,-0.4536c-0.229,-0.1011 -0.48,-0.1445 -0.729,-0.1265c-0.35,-0.0139 -0.696,0.0795 -0.992,0.2677c-0.261,0.1896 -0.462,0.4508 -0.579,0.7522c-0.127,0.3556 -0.19,0.7314 -0.184,1.1092c-0.029,0.5558 0.127,1.1054 0.445,1.5618c0.155,0.1962 0.355,0.352 0.583,0.4541c0.228,0.1021 0.477,0.1475 0.727,0.1324l0,0z"/>
  <path id="svg_32" fill="#ffffff" d="m222.708,66.3392l0,-6.1961l2.695,0c0.179,0.0011 0.357,0.0117 0.534,0.0318c0.161,0.0201 0.32,0.0499 0.477,0.0893c0.314,0.0917 0.593,0.276 0.801,0.5291c0.233,0.2966 0.351,0.6682 0.33,1.0454c0.009,0.2183 -0.03,0.4359 -0.114,0.6375c-0.071,0.1672 -0.177,0.3172 -0.311,0.4398c-0.062,0.0544 -0.128,0.1035 -0.197,0.1466c-0.065,0.0385 -0.133,0.0705 -0.204,0.0957c0.145,0.0271 0.285,0.0788 0.413,0.153c0.212,0.1115 0.392,0.2762 0.522,0.4781c0.147,0.2527 0.217,0.5428 0.203,0.835c0.013,0.3723 -0.094,0.7389 -0.305,1.0455c-0.211,0.2853 -0.515,0.4881 -0.858,0.5737c-0.16,0.0454 -0.324,0.0753 -0.49,0.0892c-0.178,0 -0.362,0 -0.54,0l-2.956,0.0064zm1.214,-3.5698l1.341,0l0.337,0c0.101,-0.0125 0.199,-0.0382 0.293,-0.0765c0.143,-0.0521 0.262,-0.1539 0.337,-0.2868c0.071,-0.1379 0.108,-0.291 0.108,-0.4463c0,-0.1649 -0.042,-0.3271 -0.121,-0.4717c-0.084,-0.135 -0.212,-0.2365 -0.362,-0.2868c-0.124,-0.0398 -0.252,-0.0613 -0.382,-0.0638l-1.551,0l0,1.6319zm0,2.6264l1.691,0c0.091,0.0086 0.182,0.0086 0.273,0c0.096,-0.0093 0.19,-0.0307 0.28,-0.0638c0.079,-0.0202 0.152,-0.0568 0.215,-0.1073c0.064,-0.0505 0.116,-0.1139 0.154,-0.1859c0.071,-0.1401 0.108,-0.2953 0.108,-0.4526c0.009,-0.1895 -0.052,-0.3756 -0.172,-0.5227c-0.111,-0.1319 -0.263,-0.2218 -0.432,-0.255c-0.082,-0.0288 -0.168,-0.0439 -0.254,-0.0446l-1.863,0l0,1.6319z"/>
  <path id="svg_33" fill="#ffffff" d="m229.02,66.3392l0,-6.1961l1.201,0l0,2.1546l1.22,0l0.56,0c0.175,0.0033 0.349,0.0225 0.521,0.0574c0.306,0.0568 0.598,0.1738 0.858,0.3442c0.242,0.1577 0.438,0.3779 0.566,0.6375c0.14,0.3053 0.208,0.6392 0.197,0.9753c0.018,0.4618 -0.131,0.9147 -0.419,1.2749c-0.304,0.3269 -0.702,0.5499 -1.138,0.6375c-0.178,0.0372 -0.359,0.0585 -0.541,0.0637c-0.203,0 -0.394,0 -0.565,0l-2.46,0.051zm1.201,-0.9626l1.329,0c0.107,0.0059 0.216,0.0059 0.324,0c0.114,-0.003 0.227,-0.0201 0.337,-0.051c0.192,-0.0556 0.363,-0.169 0.489,-0.3251c0.149,-0.1782 0.228,-0.4049 0.223,-0.6374c0.009,-0.2438 -0.067,-0.4832 -0.217,-0.6757c-0.141,-0.1634 -0.33,-0.2773 -0.54,-0.3251c-0.104,-0.0268 -0.21,-0.0439 -0.318,-0.051l-0.298,0l-1.329,0l0,2.0653z"/>
  <path id="svg_34" fill="#ffffff" d="m235.059,66.3395l1.563,-2.4478l1.272,0l-1.551,2.4478l-1.284,0zm4.106,0l0,-2.1482l-1.227,0l-0.515,0c-0.189,-0.01 -0.378,-0.0313 -0.565,-0.0637c-0.441,-0.0726 -0.846,-0.2848 -1.157,-0.6056c-0.161,-0.1779 -0.285,-0.3863 -0.365,-0.6129c-0.08,-0.2265 -0.114,-0.4668 -0.099,-0.7067c-0.023,-0.4773 0.134,-0.9457 0.438,-1.3132c0.29,-0.33 0.682,-0.5542 1.113,-0.6374c0.196,-0.0447 0.396,-0.0703 0.597,-0.0765l0.521,0l2.454,0l0,6.1961l-1.195,-0.0319zm-1.329,-3.1108l1.329,0l0,-2.1163l-1.64,0c-0.12,0.0113 -0.239,0.0327 -0.356,0.0637c-0.123,0.04 -0.237,0.1027 -0.337,0.1849c-0.112,0.0921 -0.203,0.2073 -0.267,0.3378c-0.071,0.1447 -0.106,0.3043 -0.102,0.4654c-0.009,0.2331 0.071,0.461 0.223,0.6374c0.139,0.1653 0.325,0.2833 0.534,0.3379c0.107,0.0319 0.218,0.0512 0.33,0.0574l0.286,0.0318z"/>
 </g>
</svg>