<svg width="23" height="23" viewBox="0 0 23 23" fill="none" xmlns="http://www.w3.org/2000/svg">
<path d="M11.5 23C17.8513 23 23 17.8513 23 11.5C23 5.14873 17.8513 0 11.5 0C5.14873 0 0 5.14873 0 11.5C0 17.8513 5.14873 23 11.5 23Z" fill="#0067AA"/>
<path d="M11.4999 11.722C12.17 11.7179 12.8239 11.5155 13.3791 11.1403C13.9343 10.765 14.3659 10.2338 14.6195 9.61354C14.8732 8.99329 14.9374 8.31183 14.8042 7.65511C14.671 6.99839 14.3463 6.39582 13.871 5.92343C13.3958 5.45103 12.7913 5.12996 12.1337 5.00071C11.4762 4.87147 10.7952 4.93984 10.1765 5.1972C9.55776 5.45456 9.02913 5.88939 8.65726 6.44683C8.28539 7.00427 8.08693 7.65935 8.08691 8.32945C8.08745 8.77654 8.17625 9.21912 8.34821 9.63182C8.52017 10.0445 8.77192 10.4192 9.08901 10.7344C9.4061 11.0496 9.7823 11.299 10.196 11.4685C10.6098 11.638 11.0529 11.7241 11.4999 11.722V11.722ZM11.4999 6.92892C11.7769 6.92892 12.0477 7.01105 12.278 7.16495C12.5084 7.31884 12.6879 7.53757 12.7939 7.79349C12.8999 8.0494 12.9276 8.331 12.8736 8.60268C12.8195 8.87436 12.6861 9.12391 12.4903 9.31978C12.2944 9.51565 12.0449 9.64903 11.7732 9.70307C11.5015 9.75711 11.2199 9.72938 10.964 9.62338C10.7081 9.51737 10.4893 9.33786 10.3354 9.10755C10.1816 8.87723 10.0994 8.60645 10.0994 8.32945C10.0961 8.14461 10.13 7.96099 10.1992 7.78956C10.2684 7.61813 10.3715 7.4624 10.5022 7.33168C10.6329 7.20096 10.7886 7.09792 10.9601 7.02872C11.1315 6.95952 11.3151 6.92557 11.4999 6.92892Z" fill="white"/>
<path d="M12.8759 14.5023C13.5727 14.3397 14.2376 14.0621 14.8432 13.6808C14.9537 13.6105 15.0494 13.519 15.1246 13.4116C15.1998 13.3043 15.2531 13.1832 15.2816 13.0552C15.31 12.9273 15.3129 12.795 15.2902 12.6659C15.2675 12.5368 15.2195 12.4135 15.1492 12.3029C15.0788 12.1923 14.9873 12.0967 14.88 12.0215C14.7726 11.9463 14.6515 11.8929 14.5236 11.8645C14.3956 11.8361 14.2633 11.8332 14.1342 11.8559C14.0051 11.8786 13.8818 11.9265 13.7712 11.9969C13.086 12.4257 12.2939 12.6532 11.4856 12.6532C10.6772 12.6532 9.88519 12.4257 9.19996 11.9969C9.0908 11.9188 8.96677 11.8638 8.83553 11.8355C8.7043 11.8072 8.56865 11.8062 8.43698 11.8324C8.30531 11.8586 8.18042 11.9115 8.07002 11.9879C7.95962 12.0643 7.86607 12.1625 7.79514 12.2765C7.72421 12.3905 7.67742 12.5178 7.65766 12.6506C7.6379 12.7834 7.64559 12.9188 7.68025 13.0485C7.71492 13.1782 7.77582 13.2994 7.85919 13.4047C7.94256 13.5099 8.04663 13.5969 8.16496 13.6603C8.77233 14.0409 9.43846 14.3185 10.1364 14.4817L8.24711 16.371C8.15508 16.4629 8.08208 16.5721 8.03228 16.6923C7.98247 16.8124 7.95683 16.9412 7.95683 17.0713C7.95683 17.2014 7.98247 17.3302 8.03228 17.4503C8.08208 17.5705 8.15508 17.6796 8.24711 17.7716C8.34012 17.8645 8.45108 17.9376 8.57323 17.9863C8.69539 18.035 8.82618 18.0584 8.95764 18.0549C9.22151 18.0523 9.47488 17.9512 9.66818 17.7716L11.5369 15.9028L13.4057 17.7716C13.5914 17.9573 13.8433 18.0616 14.1059 18.0616C14.3686 18.0616 14.6205 17.9573 14.8062 17.7716C14.9919 17.5858 15.0963 17.3339 15.0963 17.0713C15.0963 16.8086 14.9919 16.5567 14.8062 16.371L12.8759 14.5023Z" fill="white"/>
</svg>
