<svg xmlns="http://www.w3.org/2000/svg" xmlns:xlink="http://www.w3.org/1999/xlink" enable-background="new 0 0 32 32" version="1.1" xml:space="preserve" width="24" height="24" style=""><rect id="backgroundrect" width="100%" height="100%" x="0" y="0" fill="none" stroke="none"/><g class="currentLayer" style=""><title>Layer 1</title><path d="M23.414,20.586 l-5.077,-5.077 C19.386,13.928 20,12.035 20,10 c0,-5.514 -4.486,-10 -10,-10 S0,4.486000000000001 0,10 s4.486,10 10,10 c2.035,0 3.928,-0.6140000000000001 5.509,-1.6630000000000003 l5.077,5.077 c0.78,0.781 2.048,0.781 2.8280000000000003,0 C24.195,22.633 24.195,21.367 23.414,20.586 zM3,10 c0,-3.8600000000000003 3.14,-7 7,-7 s7,3.14 7,7 s-3.14,7 -7,7 S3,13.86 3,10 z" id="XMLID_223_" class="" fill-opacity="1" fill="#0067aa"/></g></svg>