<svg width="23" height="23" viewBox="0 0 23 23" fill="none" xmlns="http://www.w3.org/2000/svg">
<path d="M11.5 23C17.8513 23 23 17.8513 23 11.5C23 5.14873 17.8513 0 11.5 0C5.14873 0 0 5.14873 0 11.5C0 17.8513 5.14873 23 11.5 23Z" fill="#0067AA"/>
<path d="M17.1596 7.36831L15.1595 16.8147C15.0075 17.4801 14.6173 17.6362 14.0546 17.3322L11.0071 15.0733L9.53679 16.4862C9.46562 16.5808 9.37309 16.6573 9.26674 16.7094C9.16039 16.7615 9.04324 16.7878 8.92483 16.786L9.14661 13.681L14.7857 8.57992C15.0321 8.35814 14.7323 8.23903 14.4038 8.45671L7.42161 12.8555L4.4234 11.9108C3.76626 11.7055 3.75804 11.2537 4.55893 10.9415L16.3177 6.42367C16.8598 6.2101 17.3363 6.53457 17.1596 7.36831Z" fill="white"/>
</svg>
