<svg width="23" height="23" viewBox="0 0 23 23" fill="none" xmlns="http://www.w3.org/2000/svg">
<path d="M11.5 23C17.8513 23 23 17.8513 23 11.5C23 5.14873 17.8513 0 11.5 0C5.14873 0 0 5.14873 0 11.5C0 17.8513 5.14873 23 11.5 23Z" fill="#0067AA"/>
<path d="M16.301 10.6253C15.3156 10.628 14.3543 10.3205 13.5534 9.74641V13.5044C13.5534 14.1821 13.3524 14.8445 12.9758 15.4079C12.5992 15.9713 12.064 16.4103 11.4379 16.6695C10.8117 16.9286 10.1228 16.9962 9.45823 16.8637C8.79366 16.7312 8.18333 16.4045 7.70445 15.9251C7.22557 15.4456 6.89966 14.8349 6.76796 14.1702C6.63625 13.5055 6.70467 12.8166 6.96456 12.1908C7.22445 11.5649 7.66412 11.0303 8.22796 10.6544C8.7918 10.2785 9.45446 10.0783 10.1321 10.0791C10.2832 10.0784 10.4341 10.088 10.5839 10.1078V11.956C10.2769 11.8651 9.94983 11.8672 9.64405 11.9621C9.33827 12.0571 9.06754 12.2407 8.86612 12.4895C8.6647 12.7384 8.54163 13.0415 8.51251 13.3603C8.48339 13.6792 8.54951 13.9995 8.7025 14.2808C8.8555 14.5621 9.0885 14.7916 9.37201 14.9404C9.65552 15.0892 9.9768 15.1505 10.2952 15.1167C10.6136 15.0828 10.9148 14.9552 11.1606 14.7501C11.4065 14.545 11.586 14.2716 11.6764 13.9644C11.7209 13.8152 11.743 13.6602 11.7421 13.5044V6.06641H13.6437C13.6437 6.77117 13.9237 7.44707 14.422 7.94542C14.9204 8.44376 15.5963 8.72373 16.301 8.72373V8.72373V10.6253Z" fill="white"/>
</svg>
