<svg width="23" height="23" viewBox="0 0 23 23" fill="none" xmlns="http://www.w3.org/2000/svg">
<path d="M11.5 23C17.8513 23 23 17.8513 23 11.5C23 5.14873 17.8513 0 11.5 0C5.14873 0 0 5.14873 0 11.5C0 17.8513 5.14873 23 11.5 23Z" fill="#0067AA"/>
<path d="M4.99815 7.29838H6.64101C6.73885 7.30028 6.83368 7.33251 6.91241 7.39064C6.99113 7.44876 7.04986 7.5299 7.08047 7.62285C7.39887 8.60115 7.80294 9.54947 8.28797 10.4568C9.00672 11.6396 9.47083 12.0791 9.77476 12.0339C10.0787 11.9887 9.98422 11.1755 9.98422 10.5471C9.98422 9.91874 10.054 8.85499 9.75012 8.36624L9.28601 7.69267C9.25986 7.65845 9.24384 7.61758 9.23978 7.5747C9.23572 7.53183 9.24378 7.48868 9.26304 7.45016C9.2823 7.41164 9.31199 7.3793 9.34872 7.35682C9.38546 7.33435 9.42777 7.32264 9.47083 7.32302H12.1199C12.1828 7.32245 12.2452 7.33455 12.3033 7.3586C12.3614 7.38265 12.414 7.41816 12.4581 7.46301C12.5022 7.50786 12.5368 7.56113 12.5598 7.61964C12.5829 7.67815 12.5939 7.7407 12.5923 7.80356V11.1673C12.5923 11.1673 12.7073 11.7711 13.3562 11.1673C14.1468 10.2807 14.7965 9.27776 15.2824 8.19374L15.5165 7.63928C15.5502 7.55769 15.6071 7.48776 15.6801 7.43813C15.7531 7.3885 15.839 7.36133 15.9273 7.35999H17.6605C17.7355 7.35936 17.8096 7.37695 17.8764 7.41125C17.9432 7.44556 18.0006 7.49554 18.0439 7.55693C18.0871 7.61831 18.1148 7.68927 18.1245 7.7637C18.1343 7.83813 18.1258 7.91382 18.0999 7.98428L17.9151 8.47302C17.5397 9.21388 17.1129 9.92753 16.6378 10.6087C15.9889 11.5123 15.8492 11.7218 15.9396 11.9559C16.0299 12.19 17.7057 13.7425 18.1246 14.4859C18.2396 14.6953 18.334 14.8966 18.4244 15.0403C18.461 15.1123 18.4789 15.1923 18.4765 15.273C18.474 15.3536 18.4513 15.4324 18.4104 15.502C18.3694 15.5716 18.3116 15.6297 18.2423 15.6711C18.173 15.7124 18.0944 15.7356 18.0137 15.7386H16.0505C15.967 15.7418 15.8843 15.7215 15.8117 15.6801C15.7391 15.6388 15.6796 15.5779 15.6398 15.5045L15.4508 15.2046C14.8883 14.5132 14.252 13.8852 13.5533 13.3318C12.8099 12.9211 12.8346 13.5207 12.8346 13.5207V14.7528C12.8335 14.9976 12.7358 15.232 12.5627 15.4051C12.3897 15.5782 12.1552 15.6759 11.9105 15.677H11.4546C11.4546 15.677 8.89994 15.677 6.85869 12.6377C5.2569 10.2678 4.72297 8.73588 4.51762 7.85695C4.5062 7.78764 4.51012 7.71666 4.52911 7.64903C4.54809 7.58139 4.58167 7.51874 4.62748 7.46549C4.6733 7.41223 4.73023 7.36967 4.79427 7.3408C4.85832 7.31193 4.92791 7.29745 4.99815 7.29838V7.29838Z" fill="white"/>
</svg>
