<svg xmlns="http://www.w3.org/2000/svg" width="55" height="54" xml:space="preserve" version="1.1"><rect id="backgroundrect" width="100%" height="100%" x="0" y="0" fill="none" stroke="none"/>

 <g style="" class="currentLayer">
  <title>Layer 1</title>
  <polygon id="svg_1" fill="#ffffff" points="16,0 0,0 0,35.209 16,29.483 " class="" fill-opacity="1"/>
  <polygon id="svg_2" fill="#ffffff" points="0,54 16,54 16,33.015 0,38.74 " class="" fill-opacity="1"/>
  <polygon id="svg_3" fill="#ffffff" points="19,54 35,54 35,26.385 19,32.111 " class="" fill-opacity="1"/>
  <polygon id="svg_4" fill="#ffffff" points="35,0 19,0 19,28.579 35,22.854 " class="" fill-opacity="1"/><polygon fill="#ffffff" points="35,0 19,0 19,28.57900047302246 35,22.854000091552734 " class="" id="svg_7" fill-opacity="1"/>
  <polygon id="svg_5" fill="#ffffff" points="38,25.481 38,54 55,54 55,19.756 " class="" fill-opacity="1"/>
  <polygon id="svg_6" fill="#ffffff" points="55,0 38,0 38,21.95 55,16.224 " class="" fill-opacity="1"/>
 </g>
</svg>