<svg width="23" height="23" viewBox="0 0 23 23" fill="none" xmlns="http://www.w3.org/2000/svg">
<path d="M11.5 23C17.8513 23 23 17.8513 23 11.5C23 5.14873 17.8513 0 11.5 0C5.14873 0 0 5.14873 0 11.5C0 17.8513 5.14873 23 11.5 23Z" fill="#0067AA"/>
<path fill-rule="evenodd" clip-rule="evenodd" d="M17.9071 8.42768C17.8337 8.15724 17.6909 7.9107 17.4927 7.71256C17.2946 7.51442 17.048 7.37157 16.7776 7.29821C15.7796 7.03125 11.7915 7.03125 11.7915 7.03125C11.7915 7.03125 7.79939 7.03125 6.80546 7.29821C6.53484 7.3712 6.2881 7.51392 6.0899 7.71212C5.8917 7.91031 5.74898 8.15705 5.676 8.42768C5.49179 9.44121 5.40242 10.4697 5.40903 11.4998C5.40242 12.5299 5.49179 13.5584 5.676 14.572C5.74898 14.8426 5.8917 15.0893 6.0899 15.2875C6.2881 15.4857 6.53484 15.6284 6.80546 15.7014C7.79939 15.9684 11.7915 15.9684 11.7915 15.9684C11.7915 15.9684 15.7796 15.9684 16.7776 15.7014C17.048 15.6281 17.2946 15.4852 17.4927 15.2871C17.6909 15.0889 17.8337 14.8424 17.9071 14.572C18.0885 13.5581 18.1764 12.5298 18.1699 11.4998C18.1764 10.4699 18.0885 9.44153 17.9071 8.42768V8.42768ZM10.5142 13.4137V9.58589L13.8287 11.4998L10.5142 13.4137Z" fill="white"/>
</svg>
